
<svg width="1081px" height="837px" viewBox="0 0 1081 837" version="1.1" xmlns="http://www.w3.org/2000/svg" xmlns:xlink="http://www.w3.org/1999/xlink">
    <!-- Generator: Sketch 49.3 (51167) - http://www.bohemiancoding.com/sketch -->
    <desc>Created with Sketch.</desc>
    <defs>
        <path d="M234.42,1.63 C199.66,0.35 163.35,-0.55 131.92,14.35 C100.49,29.25 76.19,65.35 86.73,98.54 C90.17,109.36 96.87,118.79 102.52,128.64 C130.77,177.9 132.08,241.57 105.89,291.96 C85.73,330.75 51.56,360.27 26.96,396.41 C2.36,432.55 -11.62,482.64 12.58,519.05 C29.15,543.98 59.9,556.11 89.69,559.05 C119.48,561.99 149.44,557.36 179.36,556.17 C237.581985,553.932788 295.555703,564.896446 348.94,588.24 C422.43,620.46 485.74,675.58 563.12,696.85 C572.41,699.4 582.12,701.46 591.62,699.73 C608.47,696.66 620.72,682.73 633.91,671.73 C676.02,636.86 734.32,630.35 788.98,628.73 C843.64,627.11 900.57,628.36 949.98,604.89 C993.12,584.4 1026.33,546.28 1046.98,503.22 C1067.63,460.16 1076.6,412.31 1079.98,364.66 C1081.98,336.3 1081.91,307.02 1071.76,280.47 C1060.35,250.62 1037.21,226.85 1012.94,206.07 C987.58,184.35 959.94,164.67 928.63,152.95 C891.23,138.95 850.63,136.95 810.81,133.63 C729.154606,126.810342 648.134994,113.7996 568.45,94.71 C492.82,76.63 409.78,56.88 340.9,20.05 C306.33,1.56 273.39,3.03 234.42,1.63 Z" id="path-1"></path>
        <linearGradient x1="95039%" y1="83764%" x2="95039%" y2="17791%" id="linearGradient-3">
            <stop stop-color="#808080" stop-opacity="0.25" offset="0%"></stop>
            <stop stop-color="#808080" stop-opacity="0.12" offset="54%"></stop>
            <stop stop-color="#808080" stop-opacity="0.1" offset="100%"></stop>
        </linearGradient>
        <linearGradient x1="49.9963627%" y1="100.004109%" x2="49.9963627%" y2="7.92274891e-06%" id="linearGradient-4">
            <stop stop-color="#808080" stop-opacity="0.25" offset="0%"></stop>
            <stop stop-color="#808080" stop-opacity="0.12" offset="54%"></stop>
            <stop stop-color="#808080" stop-opacity="0.1" offset="100%"></stop>
        </linearGradient>
    </defs>
    <g id="Page-1" stroke="none" stroke-width="1" fill="none" fill-rule="evenodd">
        <g id="Artboard" transform="translate(-56.000000, -153.000000)">
            <g id="Group-4" transform="translate(56.000000, 153.000000)">
                <mask id="mask-2" fill="white">
                    <use xlink:href="#path-1"></use>
                </mask>
                <use id="Mask" fill="#425B9A" fill-rule="nonzero" opacity="0.787873641" xlink:href="#path-1"></use>
                <g id="Group-2" mask="url(#mask-2)">
                    <g transform="translate(904.500000, 463.500000) scale(-1, 1) translate(-904.500000, -463.500000) translate(787.000000, 223.000000)">
                        <path d="M0,460.205178 C20.0151636,468.754605 44.4363123,463.552392 67.1494447,464.154754 C70.2517602,464.236894 73.5492775,464.490159 76.0381014,465.968683 C78.5269253,467.447207 79.76088,469.836118 81.4688964,471.889624 C87.8338718,479.514973 100.87754,481.96549 112.275935,480.671781 C123.67433,479.378073 134.124602,475.093092 144.881619,471.834863 C163.474598,466.194569 184.723716,463.620842 203.065721,469.781358 C204.745851,470.34265 206.551469,470.992926 208.322229,470.767041 C212.344781,470.267354 213.543879,466.174034 216.353391,463.839883 C221.42864,459.616507 232.457546,460.76647 234.688425,455.20147 C235.992094,451.943242 232.98738,448.602873 229.710777,446.378243 C217.162085,437.863041 199.245341,436.459812 182.841412,437.774056 C166.437484,439.088299 150.312414,442.709313 133.824828,442.723003 C113.27983,442.723003 93.4319827,437.164849 73.0891588,434.885458 C58.9997664,433.311104 43.6206473,433.516455 30.4096634,438.150531 C16.0902116,443.161084 12.9390956,454.448519 0,460.205178 Z" id="Shape" fill="#6C63FF" fill-rule="nonzero" opacity="0.1"></path>
                        <path d="M190.469513,88.2254985 C173.838498,78.6748804 167.555514,76.3064388 167.520531,76.2924657 L167.184692,76.0479364 C165.3708,74.6568502 163.928823,72.8401783 162.986708,70.7591156 C162.986708,70.3748552 162.986708,69.9975813 162.986708,69.6203074 L162.986708,69.7320923 C163.25258,64.6738278 166.85585,60.0696893 170.277208,56.0524212 L179.016012,45.782188 C180.012644,44.7683268 180.780772,43.5534807 181.26893,42.2190459 C181.44922,41.5046265 181.52928,40.7686668 181.506816,40.0322548 C181.506816,39.731833 181.506816,39.4314112 181.506816,39.137976 C181.464836,36.5878841 181.387873,34.0308056 181.296917,31.4527675 C181.212957,29.224057 180.639233,26.4154626 178.407304,25.9543501 C177.245862,25.7168073 175.713597,26.1360005 175.097893,25.1369234 C174.891409,24.7287595 174.839242,24.259934 174.950964,23.8164649 C174.947677,23.8513205 174.947677,23.8864075 174.950964,23.9212632 L174.950964,23.7955052 C175.385452,22.0749976 175.664107,20.3189578 175.783564,18.5486038 C175.827518,17.6487984 175.704162,16.7486477 175.419739,15.8937136 C174.12536,12.1908404 169.675496,10.6747583 165.736388,9.97610302 C161.797279,9.27744771 157.389395,8.67660413 154.919581,5.60252074 C154.156947,4.65234951 153.639196,3.50655479 152.771612,2.64720875 C151.631979,1.63911104 150.242883,0.954007298 148.748544,0.663027646 C143.863104,-0.542636863 138.715109,-0.0954168414 134.111571,1.93458032 C132.208485,2.77995326 130.298402,3.92574798 128.213403,3.79999002 C126.128404,3.67423206 124.190335,2.17212313 122.049363,1.80882237 C118.593022,1.2219519 115.283611,3.7580707 113.583427,6.75530201 C112.573578,8.53806075 112.034266,10.547949 112.01618,12.5960605 C112.01618,12.7078453 112.01618,12.8266167 112.01618,12.9384016 C111.964995,15.1401621 112.769956,17.276118 114.262102,18.8979314 C115.752386,20.4419597 117.977318,21.5039158 118.593022,23.5370027 C118.844901,24.361416 118.781932,25.2556948 119.005824,26.0940812 C119.005824,26.1988795 119.068794,26.3036778 119.103777,26.4014895 L118.991831,26.5482071 C115.424135,31.1138816 113.492721,36.7423294 113.506464,42.5334408 C113.581348,54.0609117 121.116295,64.2154575 132.138519,67.6431129 C132.138519,67.9016154 132.138519,68.1671044 132.138519,68.4256069 C132.138519,71.597502 131.235952,74.8322761 128.521255,77.2146907 L104.970563,86.6744837 C104.970563,86.6744837 90.7743785,84.9907244 85.6528375,105.712841 C84.8287987,109.153178 84.5315661,112.698338 84.7712608,116.227604 C84.9601701,119.350593 84.5263783,124.855997 80.8881251,131.975294 C75.0599234,143.363376 76.3892851,169.507058 88.2975677,172.099069 C99.5411694,174.544363 103.942056,173.49638 104.389841,173.405555 L104.389841,173.859681 C104.207929,178.750268 102.423785,221.081794 95.9378994,226.202937 C94.1467594,227.600248 94.4825982,228.578365 95.9378994,229.221128 C95.9378994,229.221128 95.9378994,229.493604 95.8959196,229.982662 C95.7000136,233.077705 94.699494,244.864021 90.3615767,251.571112 C85.330992,259.333172 85.8557401,304.123965 85.8557401,304.123965 L82.4763626,330.554095 C82.4763626,330.554095 84.5753548,346.86071 82.4763626,349.711224 C80.5872696,352.247343 78.0684789,412.590203 77.5787141,425.662044 L77.3548216,425.662044 C75.2503796,425.788115 73.3452645,426.94733 72.2682637,428.757087 C69.4696074,433.2704 59.7442768,441.605358 59.7442768,441.605358 C57.6452845,444.602589 49.8160435,447.467076 45.6810288,448.822467 C45.126799,449.000377 44.5922671,449.234483 44.0857947,449.521123 C42.5410364,450.362787 41.3001668,451.667854 40.5384979,453.251942 C39.9945747,454.196262 39.8558013,455.319965 40.1536826,456.367945 C41.217172,458.952969 63.186624,460.762487 68.7419568,458.177462 C73.1148573,456.137389 90.4315432,453.461539 97.6170932,452.413556 C100.300672,452.072875 102.414799,449.964669 102.759624,447.285426 C102.887754,446.368963 102.634966,445.440043 102.05996,444.714374 C100.660632,443.009655 99.9609679,438.363597 99.6601123,435.331433 C100.244383,435.096146 100.78937,434.773394 101.276336,434.374275 C100.686354,424.968876 102.0366,415.542675 105.243432,406.679579 C110.539889,392.706472 112.128126,366.80732 110.840744,349.9837 C110.840744,349.9837 126.988991,280.607227 139.694891,274.130692 C139.890797,274.375221 146.054837,282.283999 146.838461,306.743922 C147.636078,331.595092 156.633758,347.901707 156.633758,347.901707 C156.633758,347.901707 152.659666,390.100488 156.633758,405.890098 L151.435254,430.804147 C151.057435,430.475779 150.812553,430.224263 150.812553,430.224263 C150.812553,430.224263 150.966479,430.922918 151.183375,432.026794 L151.071429,432.550785 L151.295321,432.606677 C151.883039,435.72268 152.757619,441.151232 152.40079,444.3371 C152.190891,446.146618 151.701126,448.63383 151.337301,451.072137 C150.791563,454.907755 150.637637,458.624601 152.659666,459.456001 C155.969077,460.783446 175.426735,462.59995 178.736146,458.331166 C180.250448,456.554808 180.624658,454.0745 179.701683,451.931484 C179.460652,451.344949 179.135396,450.796577 178.736146,450.303617 C178.736146,450.303617 173.572625,441.870847 175.027927,435.92529 C175.306878,434.750521 175.083821,433.512822 174.412222,432.508866 C174.636115,429.588486 175.81155,416.083479 178.869082,404.611559 C182.178494,392.154535 189.168138,364.844098 184.025607,346.88167 C183.829701,346.183015 183.605808,345.484359 183.367922,344.785704 C180.400485,334.981875 179.411172,324.687426 180.45732,314.498996 C178.548244,305.799144 178.548244,296.789677 180.45732,288.089825 C183.633795,273.592727 185.85173,259.354132 185.85173,259.354132 C185.85173,259.354132 187.607887,240.20399 186.075622,228.459594 L185.970673,227.705046 L186.81027,227.516409 C186.81027,227.516409 182.31143,207.583773 180.723192,194.903179 C180.345374,191.905948 179.855609,188.112249 179.323864,184.060048 C180.790471,183.826023 182.234604,183.468432 183.640791,182.991106 C197.885952,178.051613 202.363802,133.533296 202.363802,133.533296 L202.363802,119.420458 C202.363802,119.420458 207.149504,97.8040629 190.469513,88.2254985 Z M83.9806404,432.01282 C83.539852,431.789251 83.2809763,431.642533 83.2809763,431.642533 L83.9806404,432.01282 Z" id="Shape" fill="url(#linearGradient-3)" fill-rule="nonzero"></path>
                        <path d="M183.725024,344.320161 C189.948385,362.093416 182.685456,390.936591 179.313883,403.813133 C175.942311,416.689674 174.902742,432.15408 174.902742,432.15408 C161.676344,434.211816 152.081411,431.630927 152.081411,431.630927 L157.525096,405.124503 C153.633739,389.415959 157.525096,347.431179 157.525096,347.431179 C157.525096,347.431179 148.709838,331.206457 147.930162,306.478753 C147.164534,282.134696 141.1238,274.273448 140.906053,274.02931 C128.459331,280.467581 112.634012,349.502865 112.634012,349.502865 C113.933473,366.243764 112.37412,391.996848 107.190328,405.905745 C104.04621,414.740446 102.722868,424.112729 103.298971,433.465451 C101.486751,434.986082 98.9650954,435.244171 96.239741,434.811698 C88.857402,433.591007 80,427.257367 80,427.257367 C80,427.257367 82.8096438,352.055852 84.9168766,349.216875 C87.0241094,346.377897 84.9168766,330.153175 84.9168766,330.153175 L88.281425,303.883914 C88.281425,303.883914 87.768665,259.318245 92.6925657,251.568603 C96.949176,244.89317 97.9255272,233.167565 98.1151782,230.091425 C98.1151782,229.603148 98.1573228,229.331109 98.1573228,229.331109 L105.659072,220.402629 C105.659072,220.402629 178.288363,214.996714 183.732048,220.402629 C185.073653,221.734926 185.895474,224.748288 186.387161,228.549867 C187.883297,240.233619 186.169414,259.290343 186.169414,259.290343 C186.169414,259.290343 183.99194,273.457329 180.880259,287.88938 C179.006047,296.546899 179.006047,305.501122 180.880259,314.158641 C179.847367,324.300541 180.813613,334.545134 183.725024,344.320161 Z" id="Shape" fill="#65617D" fill-rule="nonzero"></path>
                        <path d="M177.60651,458.382132 C174.451426,462.568218 155.917014,460.787929 152.76193,459.488799 C150.8361,458.684575 150.986342,455.041512 151.50536,451.281596 C151.833161,448.889547 152.318033,446.470003 152.516079,444.675966 C153.021439,440.104952 151,430.839199 151,430.839199 C151,430.839199 155.165804,435.279612 156.169694,430.839199 C156.613591,428.900814 158.163816,427.904127 159.768675,427.402346 C161.930688,426.748782 164.253647,426.895066 166.317865,427.814769 C169.589045,429.244499 175.059223,432.296424 174.07582,436.420647 C172.709983,442.249548 177.60651,450.518614 177.60651,450.518614 C177.985944,451.003262 178.294137,451.540329 178.521621,452.113314 C179.402388,454.211121 179.049577,456.627992 177.60651,458.382132 Z" id="Shape" fill="#A27772" fill-rule="nonzero"></path>
                        <path d="M177.596317,456.57565 C174.422513,460.452292 155.778127,458.803606 152.604322,457.60051 C150.667065,456.855736 150.818198,453.481976 151.340296,450 C153.339381,450.86572 156.746756,451.591397 162.421134,451.101246 C163.747735,450.986685 165.080724,450.948418 166.412434,450.986666 C170.448148,451.158511 174.491692,451.084085 178.516858,450.76387 C179.405663,452.708377 179.050638,454.949805 177.596317,456.57565 Z" id="Shape" fill="#000000" fill-rule="nonzero" opacity="0.1"></path>
                        <path d="M111.149709,350.463294 C112.429785,367.211942 110.893694,392.976945 105.787231,406.892279 C102.690015,415.731069 101.386415,425.10769 101.953924,434.464741 C100.168737,435.986076 97.6846989,436.244284 95,435.811611 C96.5430099,424.92499 103.109451,378.11252 107.350999,341.118945 C112.111496,298.989117 134.530115,270 134.530115,270 L139,274.961787 C126.725114,281.396059 111.149709,350.463294 111.149709,350.463294 Z" id="Shape" fill="#000000" fill-rule="nonzero" opacity="0.1"></path>
                        <path d="M170,79.8233932 L166.883177,95.2142444 L151.623874,121 L132.805449,112.918935 C132.805449,112.918935 107.235059,85.9797336 123.302939,82.1302837 C125.227869,81.7169202 127.045316,80.9026734 128.638166,79.7400116 C131.796455,77.3497394 132.784716,73.8685582 132.784716,70.4638101 C132.784716,64.8425014 130.17239,59.4226983 130.17239,59.4226983 L163.089084,49 C161.729419,53.3490145 160.934984,57.8565932 160.72555,62.4105385 C160.476757,71.4435437 163.807819,75.8627678 166.537631,77.9820498 C167.559443,78.8197669 168.736229,79.4456008 170,79.8233932 Z" id="Shape" fill="#FBBEBE" fill-rule="nonzero"></path>
                        <path d="M164,49 C162.636895,53.4048757 161.840448,57.9703522 161.630485,62.582791 C161.030613,63.309535 160.389818,64.0003873 159.711316,64.6518793 C152.771689,71.3904236 142.75031,73.7150008 133.618938,70.7043147 C133.618938,65.0108028 131,59.5213847 131,59.5213847 L164,49 Z" id="Shape" fill="#000000" fill-rule="nonzero" opacity="0.1"></path>
                        <path d="M165.999733,44.006596 C165.996934,54.5243188 159.6576,64.004324 149.938646,68.0247626 C140.219692,72.0452012 129.035818,69.8140194 121.603625,62.3719286 C114.171432,54.9298379 111.955113,43.7429806 115.988446,34.0293489 C120.021779,24.3157172 129.51017,17.9889627 140.027859,18.0001336 C146.928785,17.9779794 153.552957,20.7119333 158.429432,25.5949028 C163.305907,30.4778724 166.031053,37.1056867 165.999733,44.006596 Z" id="Shape" fill="#FBBEBE" fill-rule="nonzero"></path>
                        <path d="M170,78.8073068 L166.883177,94.2041707 L151.623874,120 L132.805449,111.915778 C132.805449,111.915778 107.235059,84.9660524 123.302939,81.1150986 C125.227869,80.7015736 127.045316,79.8870087 128.638166,78.7238927 C125.735581,86.7525057 137.71911,103.44924 137.71911,103.44924 C139.101293,105.534594 142.314869,104.21387 142.314869,104.21387 C150.027452,103.046072 164.243207,80.7119302 166.558364,77 C167.57688,77.8232516 168.746218,78.4373061 170,78.8073068 Z" id="Shape" fill="#000000" fill-rule="nonzero" opacity="0.1"></path>
                        <path d="M185,229.195963 C180.413384,230.298944 155.008435,236.250604 145.373041,234.762689 C134.778308,233.11932 114.163046,232.031144 114.163046,232.031144 C114.163046,232.031144 101.040423,232.7714 97,230.831929 C97,230.31375 97.0420148,230.02505 97.0420148,230.02505 L104.520649,220.549771 C104.520649,220.549771 176.926156,214.812786 182.353068,220.549771 C183.690539,221.948855 184.509827,225.146762 185,229.195963 Z" id="Shape" fill="#000000" fill-rule="nonzero" opacity="0.1"></path>
                        <path d="M138.113384,105.02856 C138.113384,105.02856 124.536954,86.2006158 129.652508,78.8856107 L106.716149,88.2926096 C106.716149,88.2926096 92.9097289,86.6190145 87.8987162,107.232127 C87.0988566,110.657385 86.8099816,114.182219 87.0414777,117.692096 C87.2226826,120.802193 86.8045174,126.276244 83.2640523,133.354156 C77.5979143,144.685789 78.8872569,170.689273 90.470432,173.269398 C102.053607,175.849524 106.165565,174.552488 106.165565,174.552488 C106.165565,174.552488 104.625323,221.678135 97.9346803,227.082452 C91.2440376,232.48677 114.98885,231.20368 114.98885,231.20368 C114.98885,231.20368 135.506821,232.235731 146.058522,233.776833 C156.610223,235.317935 186.202378,228.372515 186.202378,228.372515 C186.202378,228.372515 181.825583,208.540414 180.285341,195.925691 C178.745099,183.310969 175.13494,156.442795 175.13494,156.442795 L201.388743,120.8789 C201.388743,120.8789 206.016438,99.3801768 189.805568,89.8546316 C173.594698,80.3290864 167.503426,78 167.503426,78 C167.503426,78 151.236801,104.498588 142.748048,105.802598 C142.748048,105.802598 139.521206,107.099634 138.113384,105.02856 Z" id="Shape" fill="#FFFFFF" fill-rule="nonzero"></path>
                        <path d="M107.422535,113 C107.422535,113 107.161972,121.564993 108.71831,124.944617 C110.274648,128.324241 116,147 116,147 L103,147 C103,147 110.042254,139.474892 109.5,135.842323 C108.957746,132.209754 107.422535,113 107.422535,113 Z" id="Shape" fill="#000000" fill-rule="nonzero" opacity="0.1"></path>
                        <path d="M145.535986,176 C145.535986,176 116.763479,169.044822 114.082372,163.153787 C111.401265,157.262751 104,144.034003 104,144.034003 L107.033884,140 L121.032082,150.829212 C121.032082,150.829212 137.704332,163.925811 145.521875,165.212519 C153.339417,166.499227 145.535986,176 145.535986,176 Z" id="Shape" fill="#FBBEBE" fill-rule="nonzero"></path>
                        <path d="M145.535986,176 C145.535986,176 116.763479,169.044822 114.082372,163.153787 C111.401265,157.262751 104,144.034003 104,144.034003 L107.033884,140 L121.032082,150.829212 C121.032082,150.829212 137.704332,163.925811 145.521875,165.212519 C153.339417,166.499227 145.535986,176 145.535986,176 Z" id="Shape" fill="#000000" fill-rule="nonzero" opacity="0.05"></path>
                        <path d="M170,142.132211 L170,157.612761 L167.535496,157.612761 C155.373218,157.615121 143.411539,160.746005 132.7763,166.710733 L128.165739,169.300156 L126.926564,170 L119,151.958021 L126.41428,145.239519 L126.795032,145.239519 C128.608796,145.41448 136.452287,146.079332 139.775214,144.945584 C142.931994,143.860826 146.850278,140.424592 156.14755,142.846052 C160.730419,144.028789 164.641781,149.221631 169.086195,147.597993 L170,142.132211 Z" id="Shape" fill="#FBBEBE" fill-rule="nonzero"></path>
                        <path d="M195.781231,114.490528 L201,120.268357 L201,134.281335 C201,134.281335 196.565106,178.492174 182.483612,183.378965 C168.402117,188.265756 143.268697,180.54574 143.268697,180.54574 C143.268697,180.54574 136.771719,163.581197 139.80835,162.557894 C142.844981,161.534592 166.643696,155.332126 166.643696,155.332126 C166.643696,155.332126 166.311785,129.394544 171.523491,121.681489 C171.523491,121.681489 168.133764,97.5259843 179.870696,97.0108525 C191.607629,96.4957207 195.781231,114.490528 195.781231,114.490528 Z" id="Shape" fill="#000000" fill-rule="nonzero" opacity="0.1"></path>
                        <path d="M196.783664,114.490528 L202,120.268357 L202,134.281335 C202,134.281335 197.58129,178.492174 183.464008,183.378965 C169.346725,188.265756 144.260313,180.54574 144.260313,180.54574 C144.260313,180.54574 137.773422,163.581197 140.808638,162.557894 C143.843854,161.534592 167.631475,155.332126 167.631475,155.332126 C167.631475,155.332126 167.29266,129.394544 172.508996,121.681489 C172.508996,121.681489 169.120848,97.5259843 180.85231,97.0108525 C192.583772,96.4957207 196.783664,114.490528 196.783664,114.490528 Z" id="Shape" fill="#FFFFFF" fill-rule="nonzero"></path>
                        <path d="M159.779127,55.1896311 C159.883279,53.5055853 159.917996,51.7245163 159.195876,50.206796 C158.473755,48.6890757 156.779549,47.4762855 155.127004,47.8643783 C152.932868,48.3772153 151.988556,51.2255397 149.836081,51.9116325 C148.023836,52.4868415 146.044948,51.2186095 145.183958,49.513773 C144.322968,47.8089365 144.295194,45.8407513 144.28825,43.9695892 C144.28825,41.8350785 144.28825,39.6936375 144.28825,37.5591268 C144.28825,35.2305696 144.211872,32.707966 142.774574,30.8922458 C140.990103,28.6122002 136.789305,27.6211774 133.984144,27.7112704 C132.115591,27.7329435 130.323564,28.4553146 128.964017,29.7348974 C127.464228,31.0031295 125.728361,31.9456407 123.680038,31.6060595 C121.943437,31.3433729 120.512178,30.1089073 120,28.4320143 L120,28.3488515 C125.94352,20.5112615 135.794886,16.6713483 145.487067,18.4143792 C155.179248,20.1574102 163.068248,27.1877309 165.897178,36.6029484 C168.726107,46.0181658 166.01512,56.2212631 158.88342,63 C159.328843,60.4154179 159.627887,57.8078222 159.779127,55.1896311 Z" id="Shape" fill="#000000" fill-rule="nonzero" opacity="0.1"></path>
                        <path d="M123.536851,29.7874902 C121.781499,29.5217674 120.335948,28.283428 119.81933,26.6028533 C119.60189,25.7772067 119.658004,24.8960544 119.412507,24.0704078 C118.809287,22.0583278 116.606831,21.0106586 115.203993,19.4842531 C112.28609,16.4175657 112.475473,11.3804276 114.544659,7.68930152 C116.214037,4.719749 119.454592,2.21505634 122.828418,2.79092751 C124.932675,3.15171426 126.735321,4.62955231 128.860621,4.76137824 C130.985921,4.89320417 132.767525,3.75533825 134.633299,2.91581523 C139.123444,0.904228155 144.171315,0.461422126 148.949261,1.65999979 C150.417897,1.95181103 151.77974,2.63015026 152.891236,3.62351232 C153.643105,4.56063133 154.345462,5.53559578 154.995493,6.5444974 C157.415388,9.59037019 161.736129,10.187056 165.58692,10.8739385 C169.43771,11.5608209 173.786508,13.0664118 175.056076,16.729785 C175.890765,19.1581574 175.056076,21.794676 174.600154,24.3201833 C174.437744,24.8347937 174.472703,25.3905537 174.698352,25.8812798 C175.301573,26.8665052 176.802609,26.457151 177.938908,26.69305 C180.127335,27.1440334 180.68847,29.9262544 180.744584,32.1326042 C180.838107,34.6581114 180.908248,37.1836187 180.95501,39.709126 C181.218597,42.0846859 180.313235,44.4410002 178.521086,46.0437088 L169.970788,56.2081818 C166.176112,60.7180163 162.149966,65.9702388 162.914513,71.7844561 C161.118881,72.5823499 158.986567,71.042068 158.397375,69.1826286 C157.808183,67.3231892 158.285148,65.3249856 158.677942,63.4169787 C159.370024,60.11825 159.822427,56.7747357 160.031681,53.4120845 C160.136894,51.719162 160.171965,49.9429811 159.442489,48.4235138 C158.713013,46.9040465 157.001551,45.648231 155.332174,46.0714617 C153.11569,46.584889 152.16176,49.436492 149.987361,50.1233744 C148.163672,50.6992456 146.157613,49.4295538 145.287854,47.7227549 C144.418094,46.015956 144.390038,44.0455053 144.383023,42.1721894 L144.383023,35.7474099 C144.383023,33.4231106 144.305867,30.8906651 142.85393,29.0728549 C141.051283,26.7901849 136.807698,25.7980213 133.973966,25.888218 C132.086655,25.9112703 130.276854,26.6342816 128.902706,27.9141744 C127.359584,29.1838663 125.606037,30.1205242 123.536851,29.7874902 Z" id="Shape" fill="#7C5C5C" fill-rule="nonzero"></path>
                        <path d="M129,111 L136.670823,144 C136.670823,144 142.722544,143.965263 129,111 Z" id="Shape" fill="#000000" fill-rule="nonzero" opacity="0.1"></path>
                        <path d="M157,107 C157,107 147.000841,124.630332 150.90408,142.850711 L152.766538,143 C152.766538,143 149.437889,134.561611 157,107 Z" id="Shape" fill="#000000" fill-rule="nonzero" opacity="0.1"></path>
                        <path d="M164,203.977512 C164,203.977512 177.052156,199.416145 178,210 C178,210 175.535607,202.746314 164,203.977512 Z" id="Shape" fill="#000000" fill-rule="nonzero" opacity="0.1"></path>
                        <path d="M125.928058,147 C125.928058,147 123.379568,164.754552 128,171.856373 C128,171.856373 118.662446,175.66141 105.553957,174.899029 L104,147 L125.928058,147 Z" id="Shape" fill="#000000" fill-rule="nonzero" opacity="0.1"></path>
                        <path d="M128,170.293386 L126.783233,171 L119,152.783493 L126.280211,146 L126.654079,146 C126.53852,146.876201 124.51284,162.56303 128,170.293386 Z" id="Shape" fill="#000000" fill-rule="nonzero" opacity="0.1"></path>
                        <path d="M125.886394,146 C125.886394,146 123.286658,163.752038 128,170.855601 C128,170.855601 118.474681,174.661572 105.102598,173.899004 L96,146 L125.886394,146 Z" id="Shape" fill="#FFFFFF" fill-rule="nonzero"></path>
                        <path d="M104.956034,446.138265 C104.64446,448.732237 102.556163,450.792342 99.8818744,451.143922 C92.8049429,452.171074 75.6929224,454.786889 71.3759942,456.772717 C65.8913723,459.299512 44.2005771,457.53281 43.1531913,455.006015 C42.8579864,453.984425 42.9928413,452.891293 43.5282686,451.965644 C44.2833211,450.420296 45.5210999,449.143566 47.0667344,448.315828 C47.5656687,448.037736 48.0919521,447.80835 48.6378132,447.63106 C52.7212027,446.309457 60.4350581,443.52245 62.5227529,440.577946 C62.5227529,440.577946 72.1403028,432.436051 74.8790753,428.032991 C75.928298,426.277185 77.8123233,425.142306 79.9036967,425.006315 C82.1966225,424.903599 84.7443179,426.019772 85.7846268,430.874779 C85.7846268,430.874779 98.3249495,437.797787 101.7148,431.723892 C101.7148,431.723892 102.238493,441.050437 104.319111,443.597775 C104.874671,444.327806 105.104134,445.243064 104.956034,446.138265 Z" id="Shape" fill="#A27772" fill-rule="nonzero"></path>
                        <path d="M104.957878,446.458565 C104.646294,448.982492 102.557935,450.986968 99.883567,451.329055 C92.8064249,452.328471 75.6938953,454.873652 71.3768386,456.805857 C65.8920534,459.264422 44.2006128,457.545426 43.1531958,455.086861 C42.8579822,454.092857 42.9928411,453.029243 43.5282843,452.128588 C44.2833592,450.624969 45.5211749,449.382714 47.0668554,448.577328 C50.6054265,450.78937 58.4539771,452.948109 75.7222038,450.409591 C92.1907135,447.991003 100.343581,445.619055 104.320935,444 C104.872779,444.706863 105.102061,445.591878 104.957878,446.458565 Z" id="Shape" fill="#000000" fill-rule="nonzero" opacity="0.1"></path>
                        <g id="Group" opacity="0.1" stroke-width="1" fill="none" fill-rule="evenodd" transform="translate(113.000000, 14.000000)">
                            <path d="M62.2971429,11.6162791 L62.2971429,11.4906977 C62.6703061,9.55813953 63.2265306,7.5627907 63.0997959,5.6372093 C62.9329273,7.21759833 62.6648356,8.78587729 62.2971429,10.3325581 C62.1987452,10.7549109 62.1987452,11.1939263 62.2971429,11.6162791 Z" id="Shape" fill="#000000" fill-rule="nonzero"></path>
                            <path d="M47.1171429,35.727907 C47.5270315,36.6570441 47.7448907,37.6581426 47.7578571,38.672093 C47.8784047,37.2735569 47.6586882,35.8667692 47.1171429,34.5697674 C46.4130612,33.027907 44.6739796,31.8139535 42.9982653,32.2046512 C40.7733673,32.7209302 39.8158163,35.5883721 37.6331633,36.2790698 C35.7955102,36.8581395 33.7888776,35.5813953 32.9087755,33.8651163 C32.0286735,32.1488372 32.0145918,30.1674419 32.007551,28.2837209 C32.007551,26.127907 32.007551,23.9790698 32.007551,21.8232558 C32.007551,19.4860465 31.930102,16.9395349 30.4726531,15.1116279 C28.6631633,12.8162791 24.3964286,11.8186047 21.5589796,11.9093023 C19.6642292,11.931121 17.8470775,12.6583405 16.4684694,13.9465116 C14.9406122,15.2302326 13.187449,16.172093 11.1104082,15.8372093 C9.34839243,15.5700105 7.8973549,14.3247929 7.37877551,12.6348837 C7.1605102,11.8046512 7.21683673,10.9186047 6.97040816,10.0883721 C6.35785714,8.06511628 4.15408163,7.01162791 2.74591837,5.47674419 C1.37686737,3.98149865 0.599217403,2.04639341 0.55622449,0.0279069767 C0.336924299,2.4350432 1.12909158,4.82525437 2.74591837,6.63488372 C4.21040816,8.16976744 6.38602041,9.23023256 6.97040816,11.2534884 C7.21683673,12.0767442 7.1605102,12.9627907 7.37877551,13.7930233 C7.8973549,15.4829325 9.34839243,16.7281501 11.1104082,16.9953488 C13.2226531,17.3302326 14.9406122,16.3883721 16.4684694,15.1046512 C17.8470775,13.81648 19.6642292,13.0892605 21.5589796,13.0674419 C24.3753061,12.9767442 28.6631633,13.9813953 30.4726531,16.2697674 C31.930102,18.1116279 32.0005102,20.644186 32.007551,22.9813953 C32.007551,25.1372093 32.007551,27.2860465 32.007551,29.4418605 C32.007551,31.3534884 32.007551,33.3418605 32.9087755,35.0232558 C33.81,36.7046512 35.7955102,38.0162791 37.6331633,37.4372093 C39.8158163,36.7395349 40.7733673,33.8790698 42.9982653,33.3627907 C44.695102,32.9790698 46.3919388,34.1860465 47.1171429,35.727907 Z" id="Shape" fill="#000000" fill-rule="nonzero"></path>
                            <path d="M68.4860204,28.6325581 C68.0115452,29.9561679 67.2578699,31.1643937 66.2752041,32.1767442 C63.4166327,35.5860465 60.5557143,38.9930233 57.692449,42.3976744 C54.0805102,46.7023256 50.2503061,51.6837209 50.5319388,57.1744186 C50.792449,52.1372093 54.3339796,47.5534884 57.692449,43.555814 L66.2752041,33.3418605 C67.2565016,32.3257783 68.009915,31.1155947 68.4860204,29.7906977 C68.6985416,28.8764032 68.774453,27.9361456 68.7113265,27 C68.7041797,27.5512903 68.6285075,28.0996075 68.4860204,28.6325581 Z" id="Shape" fill="#000000" fill-rule="nonzero"></path>
                            <path d="M46.1032653,55.444186 C45.9644951,54.9903736 45.8794344,54.5221146 45.8497959,54.0488372 C45.7759998,54.9035912 45.8619267,55.7645017 46.1032653,56.5883721 C46.6946939,58.4581395 48.8421429,60 50.6445918,59.1976744 C50.5953061,58.8209302 50.5671429,58.444186 50.5530612,58.0674419 C48.7365306,58.8069767 46.652449,57.2860465 46.1032653,55.444186 Z" id="Shape" fill="#000000" fill-rule="nonzero"></path>
                        </g>
                        <path d="M72,431 C72,431 74.8127803,435.149236 85,431.494975" id="Shape" fill="#000000" fill-rule="nonzero" opacity="0.1"></path>
                        <path d="M155,432 C155,432 163.405723,442.713667 174,435.508349" id="Shape" fill="#000000" fill-rule="nonzero" opacity="0.1"></path>
                        <path d="M179,315 C179,315 173.191531,318.42767 173.007676,320.389094 C172.82382,322.350519 176.003838,318.961434 176.003838,318.961434 L179,315 Z" id="Shape" fill="#000000" fill-rule="nonzero" opacity="0.1"></path>
                        <path d="M182,344 C179.869247,345.620513 177.220279,346.565434 174.451272,346.69273 C169.871711,346.876623 170.252742,352.334326 173.243476,350.692418 C176.23421,349.05051 182,344 182,344 Z" id="Shape" fill="#000000" fill-rule="nonzero" opacity="0.1"></path>
                        <path d="M183,347 C183,347 180.240216,361.428205 178,358.643059" id="Shape" fill="#000000" fill-rule="nonzero" opacity="0.1"></path>
                    </g>
                </g>
                <g id="Group-3" transform="translate(50.000000, 69.000000)" fill-rule="nonzero">
                    <path d="M81.41,733.04 C130.41,747.15 190.21,738.56 245.81,739.56 C253.42,739.7 261.48,740.11 267.59,742.56 C273.7,745.01 276.7,748.96 280.89,752.34 C296.47,764.93 328.4,768.98 356.3,766.84 C384.2,764.7 409.8,757.63 436.14,752.25 C481.66,742.94 533.7,738.7 578.6,748.85 C582.72,749.78 587.06,750.85 591.48,750.48 C601.32,749.65 604.25,742.9 611.14,739.04 C623.57,732.04 650.56,733.97 656.02,724.79 C659.22,719.41 651.86,713.89 643.84,710.22 C613.16,696.17 569.26,693.85 529.09,696.02 C488.92,698.19 449.44,704.16 409.09,704.19 C358.79,704.19 310.19,695.02 260.38,691.25 C225.88,688.65 188.23,688.97 155.88,696.65 C120.81,704.94 113.08,723.57 81.41,733.04 Z" id="Shape" fill="#6C63FF" opacity="0.1"></path>
                    <path d="M603.48,0.67 L138.86,0.67 C127.573304,0.651420767 116.741647,5.11791675 108.748556,13.0866274 C100.755465,21.0553381 96.2559002,31.8732996 96.24,43.16 L96.24,686.89 C96.2896574,710.381913 115.368066,729.3887 138.86,729.35 L603.48,729.35 C614.766696,729.368579 625.598353,724.902083 633.591444,716.933373 C641.584535,708.964662 646.0841,698.1467 646.1,686.86 L646.1,43.16 C646.0841,31.8732996 641.584535,21.0553381 633.591444,13.0866274 C625.598353,5.11791675 614.766696,0.651420767 603.48,0.67 Z" id="Shape" fill="url(#linearGradient-4)"></path>
                    <rect id="Rectangle-path" fill="#535461" x="102.79" y="9.4" width="536.72" height="713.44" rx="20"></rect>
                    <rect id="Rectangle-path" fill="#F6F7F9" x="130.06" y="76.88" width="482.18" height="578.47"></rect>
                    <circle id="Oval" fill="#F6F7F9" cx="368.97" cy="42.12" r="6.55"></circle>
                    <circle id="Oval" fill="#F6F7F9" cx="368.97" cy="687.93" r="19.64"></circle>
                    <g id="Group" opacity="0.2" transform="translate(130.000000, 76.000000)" fill="#6C63FF">
                        <rect id="Rectangle-path" x="0.06" y="0.88" width="482.18" height="28.83"></rect>
                    </g>
                    <circle id="Oval" fill="#F6F7F9" cx="145.14" cy="91.3" r="6.15"></circle>
                    <circle id="Oval" fill="#F6F7F9" cx="160.81" cy="91.3" r="6.15"></circle>
                    <circle id="Oval" fill="#F6F7F9" cx="176.47" cy="91.3" r="6.15"></circle>
                    <rect id="Rectangle-path" fill="#DCE0ED" x="144.46" y="246.93" width="449.01" height="1.5"></rect>
                    <rect id="Rectangle-path" fill="#DCE0ED" x="144.46" y="281.76" width="449.01" height="1.5"></rect>
                    <rect id="Rectangle-path" fill="#DCE0ED" x="144.46" y="316.6" width="449.01" height="1.5"></rect>
                    <rect id="Rectangle-path" fill="#DCE0ED" x="144.46" y="351.43" width="449.01" height="1.5"></rect>
                    <rect id="Rectangle-path" fill="#DCE0ED" x="144.46" y="386.26" width="449.01" height="1.5"></rect>
                    <g id="Group" opacity="0.2" transform="translate(143.000000, 268.000000)" fill="#0D355D">
                        <polygon id="Shape" points="450.47 119.76 0.91 119.76 0.91 51.26 42.14 71.58 84.81 77.37 122.25 66.08 167.42 31.05 190.14 17.93 206.75 14.73 222.64 15.58 248.77 28.49 284.3 51.12 312.18 54.7 334.28 47.08 381.14 8.71 405.06 0.18 430.09 4.05 450.47 15.82"></polygon>
                    </g>
                    <path d="M222.27,345.35 C181.78,345.35 144.37,320.59 143.9,320.27 L145.02,318.61 C145.6,319 203.18,357.09 252.11,338.01 C269.95,331.01 282.65,320.23 294.94,309.76 C307.77,298.83 319.88,288.51 336.4,284.03 C355.34,278.9 376.04,283.54 391.77,296.47 C405.22,307.52 432,325.26 460.29,319.96 C474.71,317.25 486.86,306.72 499.73,295.57 C524.4,274.19 549.92,252.08 594.06,283.8 L592.89,285.42 C550.03,254.62 525.13,276.21 501.04,297.08 C487.96,308.41 475.61,319.08 460.66,321.92 C431.56,327.38 404.22,309.28 390.5,298.01 C375.27,285.5 355.25,281.01 336.92,285.96 C320.84,290.32 308.92,300.5 296.23,311.28 C283.82,321.86 270.99,332.79 252.84,339.87 C243.080966,343.587294 232.712596,345.445936 222.27,345.35 Z" id="Shape" fill="#6C63FF"></path>
                    <circle id="Oval" fill="#6C63FF" cx="360.52" cy="282.63" r="11.13"></circle>
                    <g id="Group" opacity="0.2" transform="translate(363.000000, 135.000000)" fill="#6C63FF">
                        <path d="M142.7,0.35 L2.3,0.35 C1.04079077,0.35 0.02,1.37079077 0.02,2.63 L0.02,97.58 C0.0212061594,98.5141433 0.592111914,99.3530487 1.46065382,99.6969384 C2.32919572,100.040828 3.31964263,99.8201232 3.96,99.14 L28.29,73.19 C28.7196339,72.73031 29.3207942,72.4695658 29.95,72.47 L142.7,72.47 C143.959209,72.47 144.98,71.4492092 144.98,70.19 L144.98,2.61 C144.969022,1.35860823 143.95144,0.349951852 142.7,0.35 Z" id="Shape"></path>
                    </g>
                    <rect id="Rectangle-path" fill="#F6F7F9" x="395.52" y="152.93" width="79.95" height="10"></rect>
                    <rect id="Rectangle-path" fill="#F6F7F9" x="395.52" y="175.09" width="21.95" height="10"></rect>
                    <g id="Group" opacity="0.2" transform="translate(182.000000, 459.000000)" fill="#6C63FF">
                        <rect id="Rectangle-path" x="0.38" y="0.32" width="21.95" height="10"></rect>
                    </g>
                    <g id="Group" opacity="0.2" transform="translate(182.000000, 478.000000)" fill="#6C63FF">
                        <rect id="Rectangle-path" x="0.38" y="0.65" width="21.95" height="10"></rect>
                    </g>
                    <g id="Group" opacity="0.2" transform="translate(182.000000, 497.000000)" fill="#6C63FF">
                        <rect id="Rectangle-path" x="0.38" y="0.98" width="21.95" height="10"></rect>
                    </g>
                    <g id="Group" opacity="0.2" transform="translate(182.000000, 517.000000)" fill="#6C63FF">
                        <rect id="Rectangle-path" x="0.38" y="0.32" width="21.95" height="10"></rect>
                    </g>
                    <g id="Group" opacity="0.2" transform="translate(182.000000, 536.000000)" fill="#6C63FF">
                        <rect id="Rectangle-path" x="0.38" y="0.65" width="21.95" height="10"></rect>
                    </g>
                    <g id="Group" opacity="0.2" transform="translate(182.000000, 555.000000)" fill="#6C63FF">
                        <rect id="Rectangle-path" x="0.38" y="0.98" width="21.95" height="10"></rect>
                    </g>
                    <g id="Group" opacity="0.2" transform="translate(182.000000, 575.000000)" fill="#6C63FF">
                        <rect id="Rectangle-path" x="0.38" y="0.32" width="21.95" height="10"></rect>
                    </g>
                    <g id="Group" opacity="0.2" transform="translate(182.000000, 594.000000)" fill="#6C63FF">
                        <rect id="Rectangle-path" x="0.38" y="0.65" width="21.95" height="10"></rect>
                    </g>
                    <g id="Group" opacity="0.2" transform="translate(223.000000, 604.000000)" fill="#6C63FF">
                        <rect id="Rectangle-path" x="0.71" y="0.65" width="21.95" height="10"></rect>
                    </g>
                    <g id="Group" opacity="0.2" transform="translate(262.000000, 604.000000)" fill="#6C63FF">
                        <rect id="Rectangle-path" x="0.38" y="0.65" width="21.95" height="10"></rect>
                    </g>
                    <g id="Group" opacity="0.2" transform="translate(301.000000, 604.000000)" fill="#6C63FF">
                        <rect id="Rectangle-path" x="0.05" y="0.65" width="21.95" height="10"></rect>
                    </g>
                    <g id="Group" opacity="0.2" transform="translate(339.000000, 604.000000)" fill="#6C63FF">
                        <rect id="Rectangle-path" x="0.71" y="0.65" width="21.95" height="10"></rect>
                    </g>
                    <g id="Group" opacity="0.2" transform="translate(378.000000, 604.000000)" fill="#6C63FF">
                        <rect id="Rectangle-path" x="0.38" y="0.65" width="21.95" height="10"></rect>
                    </g>
                    <g id="Group" opacity="0.2" transform="translate(417.000000, 604.000000)" fill="#6C63FF">
                        <rect id="Rectangle-path" x="0.05" y="0.65" width="21.95" height="10"></rect>
                    </g>
                    <g id="Group" opacity="0.2" transform="translate(455.000000, 604.000000)" fill="#6C63FF">
                        <rect id="Rectangle-path" x="0.71" y="0.65" width="21.95" height="10"></rect>
                    </g>
                    <g id="Group" opacity="0.2" transform="translate(494.000000, 604.000000)" fill="#6C63FF">
                        <rect id="Rectangle-path" x="0.38" y="0.65" width="21.95" height="10"></rect>
                    </g>
                    <g id="Group" opacity="0.2" transform="translate(533.000000, 604.000000)" fill="#6C63FF">
                        <rect id="Rectangle-path" x="0.05" y="0.65" width="21.95" height="10"></rect>
                    </g>
                    <rect id="Rectangle-path" fill="#F6F7F9" x="442.14" y="175.09" width="33.33" height="10"></rect>
                    <rect id="Rectangle-path" fill="#425B9A" x="223.71" y="531.98" width="21.95" height="62.67"></rect>
                    <rect id="Rectangle-path" fill="#425B9A" x="262.38" y="502.98" width="21.95" height="91.67"></rect>
                    <rect id="Rectangle-path" fill="#425B9A" x="301.05" y="478.65" width="21.95" height="116"></rect>
                    <rect id="Rectangle-path" fill="#425B9A" x="339.71" y="491.26" width="21.95" height="103.38"></rect>
                    <rect id="Rectangle-path" fill="#425B9A" x="378.38" y="469.32" width="21.95" height="125.33"></rect>
                    <g id="Group" opacity="0.2" transform="translate(417.000000, 517.000000)" fill="#6C63FF">
                        <rect id="Rectangle-path" x="0.05" y="0.32" width="21.95" height="77.33"></rect>
                    </g>
                    <g id="Group" opacity="0.2" transform="translate(455.000000, 517.000000)" fill="#6C63FF">
                        <rect id="Rectangle-path" x="0.71" y="0.32" width="21.95" height="77.33"></rect>
                    </g>
                    <g id="Group" opacity="0.2" transform="translate(494.000000, 517.000000)" fill="#6C63FF">
                        <rect id="Rectangle-path" x="0.38" y="0.32" width="21.95" height="77.33"></rect>
                    </g>
                    <g id="Group" opacity="0.2" transform="translate(533.000000, 517.000000)" fill="#6C63FF">
                        <rect id="Rectangle-path" x="0.05" y="0.32" width="21.95" height="77.33"></rect>
                    </g>
                    <path d="M44.76,701.71 C45.2411307,702.401327 45.6184647,703.159364 45.88,703.96 C55.5,715.26 60.63,725.81 51.38,726.08 C42.77,726.32 32.38,741.73 29.96,745.62 C30.0415942,745.918088 30.1383874,746.211805 30.25,746.5 C30.25,746.5 42.36,726.36 52.25,726.08 C62.14,725.8 55.61,713.82 44.76,701.71 Z" id="Shape" fill="#000000" opacity="0.1"></path>
                    <path d="M54.97,710.86 C54.97,713.39 54.69,715.44 54.34,715.44 C53.99,715.44 53.7,713.39 53.7,710.86 C53.7,708.33 54.06,709.53 54.41,709.53 C54.76,709.53 54.97,708.35 54.97,710.86 Z" id="Shape" fill="#FFD037"></path>
                    <path d="M58.48,713.88 C56.26,715.09 54.32,715.82 54.15,715.52 C53.98,715.22 55.65,713.98 57.87,712.77 C60.09,711.56 59.21,712.44 59.38,712.77 C59.55,713.1 60.7,712.67 58.48,713.88 Z" id="Shape" fill="#FFD037"></path>
                    <path d="M15.74,701.71 C15.2632662,702.403923 14.8862575,703.161306 14.62,703.96 C5,715.26 -0.13,725.81 9.12,726.08 C17.74,726.32 28.12,741.73 30.54,745.62 C30.4628742,745.919416 30.3659954,746.213393 30.25,746.5 C30.25,746.5 18.14,726.36 8.25,726.08 C-1.64,725.8 4.9,713.82 15.74,701.71 Z" id="Shape" fill="#000000" opacity="0.1"></path>
                    <path d="M5.53,710.86 C5.53,713.39 5.81,715.44 6.16,715.44 C6.51,715.44 6.8,713.39 6.8,710.86 C6.8,708.33 6.44,709.53 6.09,709.53 C5.74,709.53 5.53,708.35 5.53,710.86 Z" id="Shape" fill="#FFD037"></path>
                    <path d="M2.03,713.88 C4.25,715.09 6.18,715.82 6.35,715.52 C6.52,715.22 4.85,713.98 2.63,712.77 C0.41,711.56 1.29,712.44 1.12,712.77 C0.95,713.1 -0.19,712.67 2.03,713.88 Z" id="Shape" fill="#FFD037"></path>
                </g>
            </g>
        </g>
    </g>
</svg>
