
<svg width="100%" height="100%" viewBox="0 0 784 1190" version="1.1" xmlns="http://www.w3.org/2000/svg" xmlns:xlink="http://www.w3.org/1999/xlink">
    <!-- Generator: Sketch 49.3 (51167) - http://www.bohemiancoding.com/sketch -->
    <desc>Created with Sketch.</desc>
    <defs>
        <linearGradient x1="50.0010874%" y1="100%" x2="50.0010874%" y2="0%" id="linearGradient-1">
            <stop stop-color="#808080" stop-opacity="0.25" offset="0%"></stop>
            <stop stop-color="#808080" stop-opacity="0.12" offset="54%"></stop>
            <stop stop-color="#808080" stop-opacity="0.1" offset="100%"></stop>
        </linearGradient>
        <linearGradient x1="40046%" y1="39509%" x2="40046%" y2="20989%" id="linearGradient-2">
            <stop stop-color="#808080" stop-opacity="0.25" offset="0%"></stop>
            <stop stop-color="#808080" stop-opacity="0.12" offset="54%"></stop>
            <stop stop-color="#808080" stop-opacity="0.1" offset="100%"></stop>
        </linearGradient>
        <linearGradient x1="0%" y1="49.9898312%" x2="100%" y2="49.9898312%" id="linearGradient-3">
            <stop stop-color="#DADADA" offset="0%"></stop>
            <stop stop-color="#FFFFFF" offset="100%"></stop>
        </linearGradient>
        <linearGradient x1="23262%" y1="57459%" x2="49842%" y2="57459%" id="linearGradient-4">
            <stop stop-color="#DADADA" offset="0%"></stop>
            <stop stop-color="#FFFFFF" offset="100%"></stop>
        </linearGradient>
        <linearGradient x1="39792%" y1="85800%" x2="39792%" y2="73295%" id="linearGradient-5">
            <stop stop-color="#808080" stop-opacity="0.25" offset="0%"></stop>
            <stop stop-color="#808080" stop-opacity="0.12" offset="54%"></stop>
            <stop stop-color="#808080" stop-opacity="0.1" offset="100%"></stop>
        </linearGradient>
        <linearGradient x1="40135%" y1="22224%" x2="40135%" y2="0%" id="linearGradient-6">
            <stop stop-color="#808080" stop-opacity="0.25" offset="0%"></stop>
            <stop stop-color="#808080" stop-opacity="0.12" offset="54%"></stop>
            <stop stop-color="#808080" stop-opacity="0.1" offset="100%"></stop>
        </linearGradient>
        <linearGradient x1="39258%" y1="86042%" x2="39258%" y2="49806%" id="linearGradient-7">
            <stop stop-color="#808080" stop-opacity="0.25" offset="0%"></stop>
            <stop stop-color="#808080" stop-opacity="0.12" offset="54%"></stop>
            <stop stop-color="#808080" stop-opacity="0.1" offset="100%"></stop>
        </linearGradient>
    </defs>
    <g id="Page-1" stroke="none" stroke-width="1" fill="none" fill-rule="evenodd">
        <g id="undraw_checklist_7q37-(1)">
            <polygon id="Shape" fill="url(#linearGradient-1)" fill-rule="nonzero" points="784 585 146 690.957069 146 918 784 907.60416"></polygon>
            <polygon id="Shape" fill="#425B9A" fill-rule="nonzero" points="153 692.773988 770 590 770 893.424663 153 913"></polygon>
            <polygon id="Shape" fill="url(#linearGradient-2)" fill-rule="nonzero" points="777 291 334 417.057667 334 548 777 453.040443"></polygon>
            <polygon id="Shape" fill="#FFFFFF" fill-rule="nonzero" points="765 296 344 418.5 344 541 765 443.002778"></polygon>
            <path d="M413,461.929036 C413,480.114521 404.139535,497.00996 393.311628,499.645537 C382.483721,502.281116 374,489.935515 374,472.055202 C374,454.174889 382.595349,437.37655 393.311628,434.435801 C404.027907,431.495051 413,443.743551 413,461.929036 Z" id="Shape" stroke="#DBDBDB" stroke-width="2"></path>
            <polygon id="Shape" fill="#DBDBDB" fill-rule="nonzero" points="716 378.932793 449 449 449 434.043851 716 362"></polygon>
            <polygon id="Shape" fill="#DBDBDB" fill-rule="nonzero" points="716 412.921659 449 483 449 468.041475 716 396"></polygon>
            <path d="M275,792.021344 C275,757.48379 259.566096,731.604946 240.885131,734.176152 C222.577232,736.705663 208,765.697751 208,798.984448 C208,832.271145 222.577232,858.233379 240.885131,856.954725 C259.635183,855.648275 275,826.572796 275,792.021344 Z" id="Shape" fill="#FFFFFF" fill-rule="nonzero"></path>
            <polygon id="Shape" fill="url(#linearGradient-3)" fill-rule="nonzero" points="692 731.244255 323 772 323 749.167378 692 704"></polygon>
            <polygon id="Shape" fill="url(#linearGradient-4)" fill-rule="nonzero" points="692 790.244255 323 831 323 808.167378 692 763"></polygon>
            <polygon id="Shape" fill="url(#linearGradient-5)" fill-rule="nonzero" points="768.097685 1022.10492 332 1017 332 1149.36817 773 1190"></polygon>
            <polygon id="Shape" fill="#FFFFFF" fill-rule="nonzero" points="765 1029.90636 344 1025 344 1142.68325 765 1177"></polygon>
            <path d="M418,1089.5221 C418,1107.64361 409.136364,1121.71964 398.304581,1120.97151 C387.472799,1120.22337 379,1105.26066 379,1087.47165 C379,1069.68265 387.598425,1055.60661 398.31854,1056.00839 C409.038654,1056.41017 418,1071.40059 418,1089.5221 Z" id="Shape" stroke="#DBDBDB" stroke-width="2"></path>
            <polygon id="Shape" fill="#DBDBDB" fill-rule="nonzero" points="716 1094 457 1081.47922 457 1066 716 1076.55784"></polygon>
            <polygon id="Shape" fill="#DBDBDB" fill-rule="nonzero" points="716 1128 457 1115.47922 457 1100 716 1110.55784"></polygon>
            <polygon id="Shape" fill="url(#linearGradient-6)" fill-rule="nonzero" points="777 0 337 176.243521 337 308 777 161.331353"></polygon>
            <polygon id="Shape" fill="#FFFFFF" fill-rule="nonzero" points="770 7 344 183.332629 344 296 770 153.9508"></polygon>
            <path d="M432,205.539587 C432,223.485349 423.139535,241.237848 412.311628,245.19972 C401.483721,249.161593 393,238.021416 393,220.448373 C393,202.875331 401.595349,185.205658 412.311628,180.926284 C423.027907,176.64691 432,187.593825 432,205.539587 Z" id="Shape" stroke="#DBDBDB" stroke-width="2"></path>
            <polygon id="Shape" fill="#DBDBDB" fill-rule="nonzero" points="726 85.6705449 467 186 467 168.527359 726 66"></polygon>
            <polygon id="Shape" fill="#DBDBDB" fill-rule="nonzero" points="726 129.672811 467 230 467 212.539171 726 110"></polygon>
            <path d="M169.027298,1141.58707 L155.929242,1132.64936 L134.944632,1053.05651 L139.185908,1048.46274 C139.185908,1048.46274 139.185908,1022.78763 133.212085,1005.84205 C136.912806,1003.4966 139.227489,1001.90058 139.227489,1001.90058 C126.448222,990.256567 126.448222,947.580365 126.448222,947.580365 C126.448222,947.580365 121.028815,914.71622 110.203861,884.280802 L130.703357,889.37419 L160.530887,823.409966 L160.530887,807.866114 L173.310154,800.108066 C173.310154,800.108066 156.261891,776.820045 139.213628,800.108066 C139.213628,800.108066 143.468764,815.624162 139.213628,823.396088 C134.958493,831.168014 122.165365,858.314242 122.165365,858.314242 L111.312691,858.314242 L113.641234,846.670231 L91.3676091,846.670231 C90.2864998,845.282387 89.1915301,843.991692 88.0688396,842.784268 L105.117103,807.866114 L97.1335257,802.411887 L126.434361,769.103632 L130.689497,699.253446 C147.626877,694.118423 151.480061,678.75499 152.145359,668.970691 C152.450288,664.501833 147.820922,661.101615 143.052953,662.21189 C106.267514,670.802645 113.655094,687.609435 113.655094,687.609435 L100.848107,753.476509 L83.2315682,778.749148 C81.0970703,767.188408 72.7531237,757.584527 61.4014755,752.838101 L71.0205767,741.888012 C71.0205767,741.888012 49.2736462,736.600327 28.6078252,743.761602 C-9.57751153,756.973876 -9.49434927,807.602424 28.6078252,820.88409 C33.9858966,822.864663 39.7136899,823.71503 45.434322,823.382209 L45.434322,819.496246 C45.9748767,819.496246 46.501571,819.496246 47.0282653,819.426854 C46.3768276,823.035248 45.766971,827.11551 45.4481824,831.140257 C36.9240509,831.140257 36.9240509,873.830337 49.7033179,881.588385 L45.4481824,924.278465 L45.4481824,947.566487 C53.9723138,966.996302 71.0205767,966.996302 71.0205767,966.996302 L83.7859833,1021.33039 C87.8332132,1023.17623 93.1001562,1023.03744 98.7551897,1021.76062 L100.820386,1036.84649 C100.820386,1036.84649 62.4687245,1064.0066 62.4687245,1102.81071 L61.0826869,1105.35047 L58.213589,1102.81071 L32.6411947,1122.24053 L66.7377204,1161.10016 L100.834246,1161.10016 C109.358378,1141.67034 75.2618518,1137.81214 75.2618518,1137.81214 L75.0955273,1117.86882 L109.649446,1080.50806 C115.512385,1096.1213 125.963109,1122.07399 134.598123,1133.24613 L130.703357,1133.95393 L130.703357,1165 L203.123824,1165 C224.427222,1137.70111 169.027298,1141.58707 169.027298,1141.58707 Z" id="Shape" fill="url(#linearGradient-7)" fill-rule="nonzero"></path>
            <path d="M55.7419355,810.737858 C55.7419355,810.737858 47.3225806,845.967232 55.7419355,851 L81,835.874195 L64.1612903,804 L55.7419355,810.737858 Z" id="Shape" fill="#F6B9AD" fill-rule="nonzero"></path>
            <path d="M150,1124.28735 L127.479096,1031 L105,1060.83976 C105,1060.83976 123.772066,1120.54699 135.032518,1128 L150,1124.28735 Z" id="Shape" fill="#B98B82" fill-rule="nonzero"></path>
            <path d="M164,802.973545 C164,802.973545 149.15008,780.533069 134.286371,802.973545 C134.286371,802.973545 137.995404,817.929234 134.286371,825.414021 C130.577338,832.898809 119.43645,859.074736 119.43645,859.074736 L86,859.074736 L86,877.779762 L126.854517,889 L152.872901,825.414021 L152.872901,810.444446 L164,802.973545 Z" id="Shape" fill="#F6B9AD" fill-rule="nonzero"></path>
            <polygon id="Shape" fill="#6A9C45" fill-rule="nonzero" points="112 848 104.597253 889 75 881.541681 75 848"></polygon>
            <circle id="Oval" fill="#F6B9AD" fill-rule="nonzero" cx="52.5" cy="787.5" r="33.5"></circle>
            <path d="M44.2377923,784.010677 L74,746.802134 C74,746.802134 55.0101923,741.733265 36.9733277,748.597647 C3.64794161,761.262915 3.70318469,809.741751 36.9733277,822.531325 C41.6236208,824.427504 46.6420503,825.249011 51.6541754,824.934549 L51.6541754,802.614948 L40.4950739,802.614948 L44.2377923,784.010677 Z" id="Shape" fill="#3D213C" fill-rule="nonzero"></path>
            <path d="M127.204589,705.747316 L123.480634,772.760974 L93.6474624,810 L75,798.831057 L101.109216,757.873658 L112.294925,694.578373 C112.294925,694.578373 105.829917,678.446991 138.030361,670.208513 C139.994909,669.692901 142.087939,670.146189 143.662013,671.428161 C145.236087,672.710134 146.101476,674.66627 145.990488,676.691476 C145.395209,686.077259 142.03119,700.812523 127.204589,705.747316 Z" id="Shape" fill="#F6B9AD" fill-rule="nonzero"></path>
            <path d="M96.6688159,1001.1944 L100.400547,1031.01384 C100.400547,1031.01384 66.7317311,1057.0972 66.7317311,1094.36112 L63,1101.81944 L74.209066,1113 L134,1042.18056 C134,1042.18056 134,1001.18056 122.790934,990 L96.6688159,1001.1944 Z" id="Shape" fill="#F6B9AD" fill-rule="nonzero"></path>
            <path d="M78.2199963,1108.42613 L78.372651,1127.60554 C78.372651,1127.60554 108.279098,1131.33333 100.799017,1150 L70.9064474,1150 L41,1112.66667 L63.4263661,1094 L78.2199963,1108.42613 Z" id="Shape" fill="#425B9A" fill-rule="nonzero"></path>
            <path d="M145.743939,1120 L160.730741,1131.33333 C160.730741,1131.33333 209.434369,1127.56023 190.718261,1154 L127,1154 L127,1123.78713 L145.743939,1120 Z" id="Shape" fill="#425B9A" fill-rule="nonzero"></path>
            <path d="M134,996.928228 C134,996.928228 144.390193,1032.76011 134,1048.86 C123.36405,1065.3407 109.697383,1086.55053 93,1112.48949 C76.0320413,1096.4825 65.8378686,1087.61864 62.4174818,1085.89792 L87.202142,1028.31069 L74.3686698,963.231378 C74.3686698,963.231378 59.4608373,963.231378 52,944.506271 L52,922 L122.843349,944.464567 C122.843349,944.464567 122.815665,985.654241 134,996.928228 Z" id="Shape" fill="#425B9A" fill-rule="nonzero"></path>
            <path d="M104.365548,810.430554 L98.1239994,757.042757 C98.1239994,757.042757 59.6539307,832.861109 52.1973831,832.861109 C44.7408355,832.861109 44.7408355,873.988418 55.9187399,881.442136 L52.1973831,922.569446 L123,945 C123,945 111.822096,870.226859 89.466287,844.048625 L104.365548,810.430554 Z" id="Shape" fill="#6A9C45" fill-rule="nonzero"></path>
            <polygon id="Shape" fill="#47E6B1" fill-rule="nonzero" points="395 208.33189 403.441481 207.008663 411.882963 215.665945 421.612593 197 432 197 411.882963 223"></polygon>
            <polygon id="Shape" fill="#6C63FF" fill-rule="nonzero" points="212 793.866077 225.688372 791.761727 239.376744 805.433039 255.15814 776 272 776 239.376744 817"></polygon>
            <polygon id="Shape" fill="#000000" fill-rule="nonzero" opacity="0.2" points="212 793.866077 225.688372 791.761727 239.376744 805.433039 255.15814 776 272 776 239.376744 817"></polygon>
        </g>
    </g>
</svg>
