
<svg width="1467px" height="460px" viewBox="0 0 1467 460" version="1.1" xmlns="http://www.w3.org/2000/svg" xmlns:xlink="http://www.w3.org/1999/xlink">
    <!-- Generator: Sketch 49.3 (51167) - http://www.bohemiancoding.com/sketch -->
    <desc>Created with Sketch.</desc>
    <defs></defs>
    <g id="Page-1" stroke="none" stroke-width="1" fill="none" fill-rule="evenodd" opacity="0.2">
        <g id="undraw_selfie_time_cws4" fill="#6A7EAF" fill-rule="nonzero">
            <g id="Group-11" transform="translate(0.000000, 15.000000)">
                <rect id="Rectangle-path" x="319" y="0" width="52" height="27"></rect>
                <rect id="Rectangle-path" x="356" y="31" width="52" height="27"></rect>
                <rect id="Rectangle-path" x="256" y="2" width="52" height="27"></rect>
                <rect id="Rectangle-path" x="63" y="62" width="52" height="27"></rect>
                <rect id="Rectangle-path" x="0" y="64" width="52" height="27"></rect>
                <rect id="Rectangle-path" x="293" y="33" width="52" height="27"></rect>
                <rect id="Rectangle-path" x="49" y="342" width="52" height="27"></rect>
                <rect id="Rectangle-path" x="53" y="375" width="52" height="27"></rect>
                <rect id="Rectangle-path" x="177.5" y="146" width="52" height="27"></rect>
                <rect id="Rectangle-path" x="214.5" y="177" width="52" height="27"></rect>
                <rect id="Rectangle-path" x="114.5" y="148" width="52" height="27"></rect>
                <rect id="Rectangle-path" x="281.5" y="208" width="52" height="27"></rect>
                <rect id="Rectangle-path" x="218.5" y="210" width="52" height="27"></rect>
                <rect id="Rectangle-path" x="151.5" y="179" width="52" height="27"></rect>
                <rect id="Rectangle-path" x="111" y="416" width="52" height="27"></rect>
                <rect id="Rectangle-path" x="48" y="418" width="52" height="27"></rect>
            </g>
            <g id="Group-12" transform="translate(1130.000000, 0.000000)">
                <rect id="Rectangle-path" x="243.5" y="123" width="52" height="27"></rect>
                <rect id="Rectangle-path" x="280.5" y="154" width="52" height="27"></rect>
                <rect id="Rectangle-path" x="180.5" y="125" width="52" height="27"></rect>
                <rect id="Rectangle-path" x="284.5" y="187" width="52" height="27"></rect>
                <rect id="Rectangle-path" x="0" y="368" width="52" height="27"></rect>
                <rect id="Rectangle-path" x="4" y="401" width="52" height="27"></rect>
                <rect id="Rectangle-path" x="217.5" y="156" width="52" height="27"></rect>
                <rect id="Rectangle-path" x="119" y="0" width="52" height="27"></rect>
                <rect id="Rectangle-path" x="56" y="2" width="52" height="27"></rect>
                <rect id="Rectangle-path" x="93" y="33" width="52" height="27"></rect>
            </g>
        </g>
    </g>
</svg>
