
<svg width="737px" height="225px" viewBox="0 0 737 225" version="1.1" xmlns="http://www.w3.org/2000/svg" xmlns:xlink="http://www.w3.org/1999/xlink">
    <!-- Generator: Sketch 49.3 (51167) - http://www.bohemiancoding.com/sketch -->
    <desc>Created with Sketch.</desc>
    <defs></defs>
    <g id="Page-1" stroke="none" stroke-width="1" fill="none" fill-rule="evenodd" stroke-dasharray="12">
        <path d="M1.12920047,130.42 C1.12920047,130.42 0.129599185,241.42 98.1297255,220.42 C196.129852,199.42 199.129856,165.42 311.13,209.42" id="Shape" stroke="#3AD29F" stroke-width="2"></path>
        <path d="M735.1308,120.42 C735.1308,120.42 736.130401,231.42 638.130275,210.42 C540.130148,189.42 537.130144,155.42 425.13,199.42" id="Shape" stroke="#3AD29F" stroke-width="2"></path>
        <path d="M383.13,120.42 C383.13,120.42 370.13,151.42 389.13,166.42 C408.13,181.42 387.13,213.42 387.13,213.42" id="Shape" stroke="#3AD29F" stroke-width="2"></path>
        <path d="M116.55,41.66 C116.55,41.66 131.55,114.66 204.55,114.66 C277.55,114.66 341.55,196.66 327.55,206.66" id="Shape" stroke="#3AD29F" stroke-width="2"></path>
        <path d="M222.55,0.66 C222.55,0.66 203.33,36.01 224.46,72.03 C234.617494,89.019352 251.00258,101.375436 270.13,106.47 C315.44,118.89 335.28,113.12 364.56,187.65" id="Shape" stroke="#3AD29F" stroke-width="2"></path>
        <path d="M545.55,2.66 C545.55,2.66 560.9,21.35 532.18,60.9 C520.738982,76.4003921 504.971888,88.1735272 486.86,94.74 C457.86,105.51 429.55,136.66 429.55,182.66" id="Shape" stroke="#3AD29F" stroke-width="2"></path>
    </g>
</svg>
