
<svg width="473px" height="334px" viewBox="0 0 473 334" version="1.1" xmlns="http://www.w3.org/2000/svg" xmlns:xlink="http://www.w3.org/1999/xlink">
    <!-- Generator: Sketch 48.1 (47250) - http://www.bohemiancoding.com/sketch -->
    <desc>Created with Sketch.</desc>
    <defs>
        <linearGradient x1="49.8572925%" y1="99.8538948%" x2="50.0190144%" y2="-0.19189207%" id="linearGradient-1">
            <stop stop-color="#000F25" offset="0%"></stop>
            <stop stop-color="#6E6E6E" offset="100%"></stop>
        </linearGradient>
    </defs>
    <g id="Page-1" stroke="none" stroke-width="1" fill="none" fill-rule="evenodd">
        <g id="Group-6" transform="translate(12.000000, 9.000000)">
            <g id="Group-4">
                <g id="eang-logo">
                    <polygon id="Shape" stroke="#FFFFFF" stroke-width="20" fill="url(#linearGradient-1)" points="353.85669 1 448.536788 149.512782 353.85669 314.292564 76.9237827 314.292564 0 149.512782 76.9237827 1"></polygon>
                    <polygon id="Shape" fill-opacity="0.098" fill="#000000" points="220.268394 0.105191266 220.268394 313.397756 361.778732 313.397756 453.217086 149.192989 361.778732 0.105191266"></polygon>
                </g>
                <path d="M200.051558,193.3018 L206.490998,192.61186 L206.950958,211.24024 C189.472391,214.766618 173.987226,216.52978 160.494999,216.52978 C143.476394,216.52978 131.249247,211.853567 123.81319,202.501 C116.377133,193.148434 112.65916,178.199883 112.65916,157.654901 C112.65916,116.871578 129.294213,96.4802222 162.564819,96.4802222 C194.762179,96.4802222 210.860618,114.035186 210.860618,149.145641 L209.250758,167.084081 L137.956959,167.084081 C138.11028,176.589968 140.180079,183.565958 144.166419,188.01226 C148.152759,192.458563 155.588705,194.68168 166.474479,194.68168 C177.360253,194.68168 188.552501,194.221725 200.051558,193.3018 Z M186.252758,147.765761 C186.252758,136.420025 184.451267,128.485794 180.848229,123.962832 C177.245191,119.439869 171.150782,117.178422 162.564819,117.178422 C153.978856,117.178422 147.731129,119.554858 143.821449,124.307802 C139.91177,129.060745 137.8803,136.879987 137.726979,147.765761 L186.252758,147.765761 Z M329.041117,134.426921 L329.041117,186.862361 C329.194437,190.235417 330.076018,192.726842 331.685886,194.33671 C333.295754,195.946578 335.78718,196.981478 339.160236,197.44144 L338.470296,216.52978 C325.284711,216.52978 315.089033,213.693388 307.882957,208.02052 C295.617296,213.693388 283.275159,216.52978 270.856178,216.52978 C248.011384,216.52978 236.589158,204.340962 236.589158,179.962961 C236.589158,168.310583 239.693857,159.878067 245.903348,154.665161 C252.112839,149.452255 261.656913,146.309227 274.535858,145.235981 L304.203277,142.706201 L304.203277,134.426921 C304.203277,128.294091 302.86174,124.001174 300.178627,121.548042 C297.495514,119.094909 293.547563,117.868362 288.334657,117.868362 C278.522128,117.868362 266.256651,118.481636 251.537858,119.708202 L244.178498,120.168162 L243.258578,102.459702 C259.970541,98.4733622 275.340717,96.4802222 289.369567,96.4802222 C303.398417,96.4802222 313.517436,99.5082618 319.726927,105.564432 C325.936418,111.620602 329.041117,121.241336 329.041117,134.426921 Z M277.525597,162.944441 C266.946465,163.864366 261.656978,169.613808 261.656978,180.192941 C261.656978,190.772073 266.333191,196.06156 275.685757,196.06156 C283.351796,196.06156 291.477674,194.835013 300.063637,192.38188 L304.203277,191.002 L304.203277,160.414661 L277.525597,162.944441 Z" id="ea" fill="#FFFFFF"></path>
            </g>
        </g>
    </g>
</svg>
