
<svg width="489px" height="363px" viewBox="0 0 489 363" version="1.1" xmlns="http://www.w3.org/2000/svg" xmlns:xlink="http://www.w3.org/1999/xlink">
    <!-- Generator: Sketch 49.3 (51167) - http://www.bohemiancoding.com/sketch -->
    <desc>Created with Sketch.</desc>
    <defs>
        <linearGradient x1="50%" y1="0%" x2="50%" y2="100%" id="linearGradient-1">
            <stop stop-color="#6B6C6C" offset="0%"></stop>
            <stop stop-color="#0D1A2E" offset="100%"></stop>
        </linearGradient>
    </defs>
    <g id="Page-1" stroke="none" stroke-width="1" fill="none" fill-rule="evenodd">
        <g id="Group" transform="translate(12.000000, 0.000000)">
            <g id="eang-logo">
                <polygon id="Path-87" stroke="#FFFFFF" stroke-width="21" fill="url(#linearGradient-1)" points="61.7919554 17 393.566874 17 454 181.5 393.566874 346 61.7919554 346 0 186.932656"></polygon>
                <polygon id="Shape" fill-opacity="0.098" fill="#000000" fill-rule="nonzero" points="217 0.95293709 217 362.655802 409.693798 362.655802 476.405143 181.804369 409.693798 0.95293709"></polygon>
            </g>
            <path d="M152.034668,237.831055 C136.228925,237.831055 123.438525,233.117967 113.663086,223.69165 C103.887646,214.265334 99,201.998611 99,186.891113 L99,184.225098 C99,173.687936 100.951885,164.388712 104.855713,156.327148 C108.759541,148.265585 114.456506,142.029075 121.946777,137.617432 C129.437049,133.205788 138.323679,131 148.606934,131 C163.079662,131 174.505329,135.490922 182.884277,144.4729 C191.263225,153.454879 195.452637,165.975506 195.452637,182.035156 L195.452637,194.508301 L131.658691,194.508301 C132.801275,200.284697 135.308574,204.823226 139.180664,208.124023 C143.052754,211.424821 148.067352,213.075195 154.224609,213.075195 C164.38091,213.075195 172.315401,209.520543 178.02832,202.411133 L192.691406,219.740234 C188.692363,225.262723 183.027136,229.658431 175.695557,232.92749 C168.363977,236.19655 160.477093,237.831055 152.034668,237.831055 Z M148.416504,155.755859 C139.021926,155.755859 133.436044,161.9765 131.658691,174.417969 L164.031738,174.417969 L164.031738,171.942383 C164.158692,166.800756 162.857436,162.817641 160.12793,159.99292 C157.398424,157.168199 153.494654,155.755859 148.416504,155.755859 Z M303.747696,235.926758 C302.605112,233.832021 301.589497,230.753438 300.700821,226.690918 C294.797471,234.117713 286.5456,237.831055 275.944962,237.831055 C266.232999,237.831055 257.981128,234.895293 251.189102,229.023682 C244.397076,223.15207 241.001114,215.772994 241.001114,206.88623 C241.001114,195.7143 245.127049,187.272001 253.379044,181.559082 C261.631038,175.846163 273.627988,172.989746 289.370255,172.989746 L299.272598,172.989746 L299.272598,167.5625 C299.272598,158.104445 295.178401,153.375488 286.989883,153.375488 C279.372658,153.375488 275.564102,157.120568 275.564102,164.61084 L243.4767,164.61084 C243.4767,154.64497 247.713718,146.551789 256.187881,140.331055 C264.662045,134.11032 275.468822,131 288.608536,131 C301.74825,131 312.126564,134.205534 319.74379,140.616699 C327.361015,147.027864 331.264785,155.81928 331.455215,166.991211 L331.455215,212.599121 C331.582169,222.057176 333.042116,229.293432 335.835098,234.308105 L335.835098,235.926758 L303.747696,235.926758 Z M283.657364,214.979492 C287.656407,214.979492 290.973025,214.122567 293.607315,212.408691 C296.241606,210.694816 298.130014,208.7588 299.272598,206.600586 L299.272598,190.128418 L289.941544,190.128418 C278.769613,190.128418 273.183731,195.143016 273.183731,205.172363 C273.183731,208.0923 274.167608,210.456778 276.135391,212.265869 C278.103175,214.07496 280.610474,214.979492 283.657364,214.979492 Z" id="ea" fill="#FFFFFF"></path>
        </g>
    </g>
</svg>
