
<svg width="1034px" height="491px" viewBox="0 0 1034 491" version="1.1" xmlns="http://www.w3.org/2000/svg" xmlns:xlink="http://www.w3.org/1999/xlink">
    <!-- Generator: Sketch 49.3 (51167) - http://www.bohemiancoding.com/sketch -->
    <desc>Created with Sketch.</desc>
    <defs>
        <linearGradient x1="49.8572925%" y1="88.8260226%" x2="50.0190144%" y2="10.9107464%" id="linearGradient-1">
            <stop stop-color="#000F25" offset="0%"></stop>
            <stop stop-color="#6E6E6E" offset="100%"></stop>
        </linearGradient>
    </defs>
    <g id="Page-1" stroke="none" stroke-width="1" fill="none" fill-rule="evenodd">
        <g id="Group-3" transform="translate(11.000000, 11.000000)">
            <g id="eang-logo" fill-rule="nonzero">
                <g id="Shape">
                    <polygon stroke="#FFFFFF" stroke-width="20" fill="url(#linearGradient-1)" points="205.71 0.171 412.78 81.397 392.76 354.25 206.853 467.51 19.803 353.106 0.356 81.968"></polygon>
                    <polygon fill-opacity="0.098" fill="#000000" points="205.142 0.01 206.858 467.414 392.533 353.779 412.258 81.055"></polygon>
                </g>
                <path d="M183.051558,270.3018 L189.490998,269.61186 L189.950958,288.24024 C172.472391,291.766618 156.987226,293.52978 143.494999,293.52978 C126.476394,293.52978 114.249247,288.853567 106.81319,279.501 C99.3771326,270.148434 95.6591598,255.199883 95.6591598,234.654901 C95.6591598,193.871578 112.294213,173.480222 145.564819,173.480222 C177.762179,173.480222 193.860618,191.035186 193.860618,226.145641 L192.250758,244.084081 L120.956959,244.084081 C121.11028,253.589968 123.180079,260.565958 127.166419,265.01226 C131.152759,269.458563 138.588705,271.68168 149.474479,271.68168 C160.360253,271.68168 171.552501,271.221725 183.051558,270.3018 Z M169.252758,224.765761 C169.252758,213.420025 167.451267,205.485794 163.848229,200.962832 C160.245191,196.439869 154.150782,194.178422 145.564819,194.178422 C136.978856,194.178422 130.731129,196.554858 126.821449,201.307802 C122.91177,206.060745 120.8803,213.879987 120.726979,224.765761 L169.252758,224.765761 Z M312.041117,211.426921 L312.041117,263.862361 C312.194437,267.235417 313.076018,269.726842 314.685886,271.33671 C316.295754,272.946578 318.78718,273.981478 322.160236,274.44144 L321.470296,293.52978 C308.284711,293.52978 298.089033,290.693388 290.882957,285.02052 C278.617296,290.693388 266.275159,293.52978 253.856178,293.52978 C231.011384,293.52978 219.589158,281.340962 219.589158,256.962961 C219.589158,245.310583 222.693857,236.878067 228.903348,231.665161 C235.112839,226.452255 244.656913,223.309227 257.535858,222.235981 L287.203277,219.706201 L287.203277,211.426921 C287.203277,205.294091 285.86174,201.001174 283.178627,198.548042 C280.495514,196.094909 276.547563,194.868362 271.334657,194.868362 C261.522128,194.868362 249.256651,195.481636 234.537858,196.708202 L227.178498,197.168162 L226.258578,179.459702 C242.970541,175.473362 258.340717,173.480222 272.369567,173.480222 C286.398417,173.480222 296.517436,176.508262 302.726927,182.564432 C308.936418,188.620602 312.041117,198.241336 312.041117,211.426921 Z M260.525597,239.944441 C249.946465,240.864366 244.656978,246.613808 244.656978,257.192941 C244.656978,267.772073 249.333191,273.06156 258.685757,273.06156 C266.351796,273.06156 274.477674,271.835013 283.063637,269.38188 L287.203277,268.002 L287.203277,237.414661 L260.525597,239.944441 Z" id="ea" fill="#FFFFFF"></path>
            </g>
            <path d="M443,310.7 L443,157.7 L495.875,157.7 L522.875,269.3 L549.875,157.7 L602.75,157.7 L602.75,310.7 L571.7,310.7 L571.7,192.35 L568.325,192.35 L538.4,303.95 L507.35,303.95 L477.425,192.35 L474.05,192.35 L474.05,310.7 L443,310.7 Z M666.885,274.7 C671.385023,282.500039 679.709939,286.4 691.86,286.4 C704.010061,286.4 712.297478,282.462539 716.7225,274.5875 C721.147522,266.712461 723.36,253.512593 723.36,234.9875 C723.36,216.462407 721.110023,203.000042 716.61,194.6 C712.109978,186.199958 703.86006,182 691.86,182 C679.85994,182 671.610023,186.199958 667.11,194.6 C662.609978,203.000042 660.36,216.462407 660.36,234.9875 C660.36,253.512593 662.534978,266.74996 666.885,274.7 Z M740.91,294.5 C731.459953,307.100063 715.110116,313.4 691.86,313.4 C668.609884,313.4 652.222548,307.062563 642.6975,294.3875 C633.172452,281.712437 628.41,261.875135 628.41,234.875 C628.41,207.874865 633.172452,187.812566 642.6975,174.6875 C652.222548,161.562434 668.609884,155 691.86,155 C715.110116,155 731.497452,161.562434 741.0225,174.6875 C750.547548,187.812566 755.31,207.874865 755.31,234.875 C755.31,261.875135 750.510048,281.749936 740.91,294.5 Z M832.495,310.7 L780.97,310.7 L780.97,157.7 L832.495,157.7 C845.695066,157.7 856.569957,159.087486 865.12,161.8625 C873.670043,164.637514 880.307476,169.212468 885.0325,175.5875 C889.757524,181.962532 893.019991,189.462457 894.82,198.0875 C896.620009,206.712543 897.52,217.924931 897.52,231.725 C897.52,245.525069 896.695008,256.962455 895.045,266.0375 C893.394992,275.112545 890.282523,283.212464 885.7075,290.3375 C881.132477,297.462536 874.495044,302.637484 865.795,305.8625 C857.094957,309.087516 845.995068,310.7 832.495,310.7 Z M865.12,249.95 C865.420002,245.149976 865.57,238.512542 865.57,230.0375 C865.57,221.562458 865.270003,214.775025 864.67,209.675 C864.069997,204.574974 862.645011,199.925021 860.395,195.725 C858.144989,191.524979 854.807522,188.637508 850.3825,187.0625 C845.957478,185.487492 839.995038,184.7 832.495,184.7 L812.02,184.7 L812.02,283.7 L832.495,283.7 C843.745056,283.7 851.919975,280.850029 857.02,275.15 C861.370022,270.499977 864.069995,262.100061 865.12,249.95 Z M923.63,310.7 L923.63,157.7 L1022.63,157.7 L1022.63,184.7 L954.68,184.7 L954.68,220.475 L1009.13,220.475 L1009.13,247.025 L954.68,247.025 L954.68,283.7 L1022.63,283.7 L1022.63,310.7 L923.63,310.7 Z" id="MODE" fill="#2F3844"></path>
        </g>
    </g>
</svg>
