
<svg width="779px" height="171px" viewBox="0 0 779 171" version="1.1" xmlns="http://www.w3.org/2000/svg" xmlns:xlink="http://www.w3.org/1999/xlink">
    <!-- Generator: Sketch 49.3 (51167) - http://www.bohemiancoding.com/sketch -->
    <desc>Created with Sketch.</desc>
    <defs>
        <linearGradient x1="50%" y1="0%" x2="50%" y2="100%" id="linearGradient-1">
            <stop stop-color="#FFFFFF" offset="0%"></stop>
            <stop stop-color="#F2F2F2" offset="100%"></stop>
        </linearGradient>
    </defs>
    <g id="Page-1" stroke="none" stroke-width="1" fill="none" fill-rule="evenodd">
        <g id="a" transform="translate(-3032.000000, -4142.000000)">
            <g id="Group-4" transform="translate(3037.000000, 4142.000000)">
                <g id="Group-2" transform="translate(0.573991, 5.193082)">
                    <g id="Group" transform="translate(0.000000, -0.000000)">
                        <g id="eang-logo" transform="translate(0.000000, -0.000000)">
                            <g id="Group-8" transform="translate(92.000000, 78.000000) rotate(-4.000000) translate(-92.000000, -78.000000) ">
                                <polygon id="Path-87" stroke="#796E6E" stroke-width="10" fill="url(#linearGradient-1)" points="24.7809768 7.68866327 157.83562 7.68866327 182.071653 81.4517765 157.83562 155.21489 24.7809768 155.21489 -2.13162821e-13 83.887823"></polygon>
                                <polygon id="Shape" fill-opacity="0.098" fill="#000000" fill-rule="nonzero" points="86.4959823 0.457925775 86.4959823 155.21489 158.557358 155.21489 183.505288 77.8364077 158.557358 0.457925775"></polygon>
                                <text id="EA" font-family="Roboto-Bold, Roboto" font-size="82" font-weight="bold" letter-spacing="20.6700001" fill="#000000">
                                    <tspan x="30.426009" y="108.806918">E</tspan>
                                    <tspan x="97.2210091" y="108.806918">A</tspan>
                                </text>
                            </g>
                        </g>
                    </g>
                </g>
                <path d="M209.232693,157 L209.232693,2.875 L252.657693,2.875 L287.082693,123.25 L321.507693,2.875 L365.157693,2.875 L365.157693,157 L339.957693,157 L339.957693,30.55 L336.582693,30.55 L300.132693,150.7 L274.032693,150.7 L237.582693,30.55 L234.207693,30.55 L234.207693,157 L209.232693,157 Z M421.903847,124.375 C427.003872,133.225044 436.753775,137.65 451.153847,137.65 C465.553919,137.65 475.266321,133.300043 480.291347,124.6 C485.316372,115.899956 487.828847,101.312602 487.828847,80.8375 C487.828847,60.3623976 485.241372,45.4750465 480.066347,36.175 C474.891321,26.8749535 465.253917,22.225 451.153847,22.225 C437.053776,22.225 427.378873,26.8749535 422.128847,36.175 C416.87882,45.4750465 414.253847,60.2873984 414.253847,80.6125 C414.253847,100.937602 416.803821,115.524956 421.903847,124.375 Z M499.753847,140.575 C490.603801,153.175063 474.403963,159.475 451.153847,159.475 C427.90373,159.475 411.628893,153.137563 402.328847,140.4625 C393.0288,127.787437 388.378847,107.875136 388.378847,80.725 C388.378847,53.5748642 393.0663,33.400066 402.441347,20.2 C411.816393,6.999934 428.053731,0.4 451.153847,0.4 C474.253962,0.4 490.4538,6.96243437 499.753847,20.0875 C509.053893,33.2125656 513.703847,53.4248635 513.703847,80.725 C513.703847,108.025136 509.053893,127.974937 499.753847,140.575 Z M590.7,157 L537.375,157 L537.375,2.875 L590.7,2.875 C614.400119,2.875 630.599957,8.87494 639.3,20.875 C648.000044,32.87506 652.35,51.6998717 652.35,77.35 C652.35,90.4000652 651.487509,101.462455 649.7625,110.5375 C648.037491,119.612545 645.000022,127.824963 640.65,135.175 C632.099957,149.725073 615.450124,157 590.7,157 Z M626.475,77.35 C626.475,58.749907 624.150023,45.3250412 619.5,37.075 C614.849977,28.8249587 605.250073,24.7 590.7,24.7 L562.35,24.7 L562.35,134.95 L590.7,134.95 C605.550074,134.95 615.449975,129.475055 620.4,118.525 C622.800012,112.974972 624.412496,107.050031 625.2375,100.75 C626.062504,94.4499685 626.475,86.6500465 626.475,77.35 Z M676.246153,157 L676.246153,2.875 L773.446153,2.875 L773.446153,24.7 L701.221153,24.7 L701.221153,68.35 L759.946153,68.35 L759.946153,89.95 L701.221153,89.95 L701.221153,134.95 L773.446153,134.95 L773.446153,157 L676.246153,157 Z" id="MODE" fill="#000000"></path>
            </g>
        </g>
    </g>
</svg>
