
<svg width="712px" height="595px" viewBox="0 0 712 595" version="1.1" xmlns="http://www.w3.org/2000/svg" xmlns:xlink="http://www.w3.org/1999/xlink">
    <!-- Generator: Sketch 49.3 (51167) - http://www.bohemiancoding.com/sketch -->
    <desc>Created with Sketch.</desc>
    <defs>
        <linearGradient x1="49.9944184%" y1="100%" x2="49.9944184%" y2="0%" id="linearGradient-1">
            <stop stop-color="#808080" stop-opacity="0.25" offset="0%"></stop>
            <stop stop-color="#808080" stop-opacity="0.12" offset="54%"></stop>
            <stop stop-color="#808080" stop-opacity="0.1" offset="100%"></stop>
        </linearGradient>
        <linearGradient x1="27151%" y1="39501%" x2="27151%" y2="17308%" id="linearGradient-2">
            <stop stop-color="#808080" stop-opacity="0.25" offset="0%"></stop>
            <stop stop-color="#808080" stop-opacity="0.12" offset="54%"></stop>
            <stop stop-color="#808080" stop-opacity="0.1" offset="100%"></stop>
        </linearGradient>
        <linearGradient x1="84754%" y1="73489%" x2="84754%" y2="46105%" id="linearGradient-3">
            <stop stop-color="#808080" stop-opacity="0.25" offset="0%"></stop>
            <stop stop-color="#808080" stop-opacity="0.12" offset="54%"></stop>
            <stop stop-color="#808080" stop-opacity="0.1" offset="100%"></stop>
        </linearGradient>
        <linearGradient x1="21157%" y1="70574%" x2="21157%" y2="44319%" id="linearGradient-4">
            <stop stop-color="#808080" stop-opacity="0.25" offset="0%"></stop>
            <stop stop-color="#808080" stop-opacity="0.12" offset="54%"></stop>
            <stop stop-color="#808080" stop-opacity="0.1" offset="100%"></stop>
        </linearGradient>
        <linearGradient x1="57069%" y1="73135%" x2="57069%" y2="47067%" id="linearGradient-5">
            <stop stop-color="#808080" stop-opacity="0.25" offset="0%"></stop>
            <stop stop-color="#808080" stop-opacity="0.12" offset="54%"></stop>
            <stop stop-color="#808080" stop-opacity="0.1" offset="100%"></stop>
        </linearGradient>
        <linearGradient x1="61078%" y1="31804%" x2="61078%" y2="16029%" id="linearGradient-6">
            <stop stop-color="#808080" stop-opacity="0.25" offset="0%"></stop>
            <stop stop-color="#808080" stop-opacity="0.12" offset="54%"></stop>
            <stop stop-color="#808080" stop-opacity="0.1" offset="100%"></stop>
        </linearGradient>
        <linearGradient x1="62544%" y1="87017%" x2="62544%" y2="20210%" id="linearGradient-7">
            <stop stop-color="#808080" stop-opacity="0.25" offset="0%"></stop>
            <stop stop-color="#808080" stop-opacity="0.12" offset="54%"></stop>
            <stop stop-color="#808080" stop-opacity="0.1" offset="100%"></stop>
        </linearGradient>
    </defs>
    <g id="Page-1" stroke="none" stroke-width="1" fill="none" fill-rule="evenodd">
        <g id="Artboard-3" transform="translate(-1050.000000, -89.000000)" fill-rule="nonzero">
            <g id="Group-2" transform="translate(1050.000000, 89.000000)">
                <ellipse id="Oval" fill="#6C63FF" opacity="0.1" cx="441.5" cy="582.5" rx="74.5" ry="12.5"></ellipse>
                <path d="M438.516817,73.5339454 C407.967169,99.4629391 368.332176,97.7873983 333.637601,84.299295 C298.943026,70.8111916 266.983824,46.7881255 233.15452,29.7185537 C205.464082,15.6217389 175.636402,6.19796795 144.875946,1.82778094 C101.758935,-4.15529597 53.5968359,3.13330647 23.5496034,45.0497519 C-9.90986706,91.7275258 -7.33498811,175.916469 28.8528771,218.789369 C47.2608194,240.585362 71.3628029,251.280898 92.3874921,268.3016 C113.412181,285.322301 132.859844,313.576108 131.073478,346.423689 C129.419694,376.834754 110.139503,400.180623 90.2103587,414.841605 C74.7959749,426.151505 55.8158373,438.508618 53.9248015,461.945245 C52.1244796,484.620897 68.0831468,502.388611 83.3300588,512.497707 C133.041272,545.463972 194.280128,545.142827 243.823869,511.666918 C261.499122,499.721708 277.736909,483.838978 296.270455,474.525764 C344.921014,450.090794 398.539902,474.686336 450.051438,483.685387 C493.656908,491.302116 538.371879,487.357614 580.853893,472.1451 C606.365431,463.013402 631.974661,449.050562 649.901121,423.037792 C662.824362,404.278716 670.876965,380.534907 678.43413,357.091299 C686.500688,332.088507 694.250911,306.911179 701.684798,281.559316 C706.143735,266.339821 710.53987,250.841068 711.691238,234.546434 C713.784636,205.035972 704.97841,175.902506 692.997199,150.964874 C664.575838,91.7903586 616.657969,50.2160027 564.790556,39.6531143 C512.923143,29.0902259 457.96448,49.7203219 417.715424,94.8552019" id="Shape" fill="#0D355D" opacity="0.922044837"></path>
                <g id="Group" opacity="0.35" transform="translate(235.000000, 138.000000)" fill="#6C63FF">
                    <path d="M114.335657,4.93248408 L114.335657,0.273248408 L41.2679283,0.273248408 C37.9073705,0.273248408 39.9571713,4.96050955 39.9571713,4.96050955 L0.257968127,4.96050955 L0.257968127,109.46051 L174.560757,109.46051 L174.560757,4.93248408 L114.335657,4.93248408 Z" id="Shape" opacity="0.2"></path>
                </g>
                <path d="M583.151495,183.230019 C583.846589,188.3641 595.27393,202 595.27393,202 C595.27393,202 602.648874,185.869225 601.95378,180.735144 C601.71008,177.246811 599.524599,174.181961 596.283495,172.783312 C593.042391,171.384662 589.283576,171.884343 586.531157,174.079745 C583.778737,176.275148 582.489519,179.80191 583.186249,183.230019 L583.151495,183.230019 Z" id="Shape" fill="#6C63FF"></path>
                <path d="M569.300837,185.427737 C572.070767,189.936895 587.997863,198 587.997863,198 C587.997863,198 588.170983,179.907179 585.401054,175.398021 C582.617642,171.013708 576.889715,169.689793 572.508266,172.418067 C568.126816,175.146341 566.698763,180.926195 569.293912,185.427737 L569.300837,185.427737 Z" id="Shape" fill="#6C63FF"></path>
                <path d="M106.762019,356.797575 C104.194823,361.137756 89.0101292,369 89.0101292,369 C89.0101292,369 88.7165402,351.66701 91.2905643,347.354562 C93.8865326,343.081577 99.3847349,341.724654 103.622427,344.311133 C107.86012,346.897611 109.259918,352.464733 106.762019,356.797575 Z" id="Shape" fill="#6C63FF"></path>
                <path d="M560.614814,129.388823 L560.028745,129.388823 C560.94971,128.342727 561.424146,127.296632 561.347399,126.369095 L556.044876,121.06888 L558.068207,116.535801 L551.251674,116.535801 L552.514512,113 L548.474827,113 L503.780141,127.882446 C503.780141,127.882446 503.731302,128.503129 503.780141,129.388823 L475,129.388823 L475,259 L600,259 L600,129.388823 L560.614814,129.388823 Z" id="Shape" fill="url(#linearGradient-1)"></path>
                <rect id="Rectangle-path" fill="#F6F7F9" x="476" y="130" width="123" height="128"></rect>
                <path d="M561,130 C555.169371,138.632539 516.22412,150 516.22412,150 L516.468225,141.002805 L509.263633,141.002805 C509.669309,139.222993 508.856224,137.387824 507.268944,136.500701 C505.176613,135.343619 504.974355,131.591865 505.002252,130 L561,130 Z" id="Shape" fill="#000000" opacity="0.1"></path>
                <path d="M549.250345,114.034564 L505.036419,128.551649 C505.036419,128.551649 504.531838,134.220225 507.279002,135.692672 C508.870308,136.570452 509.686049,138.376723 509.283311,140.130753 L516.522649,140.130753 L516.277366,149 C516.277366,149 562.740884,135.692672 561.99102,127.072289 L556.748982,121.894529 L558.746283,117.456449 L551.99751,117.456449 L553.251954,114 L549.250345,114.034564 Z" id="Shape" fill="#9D9CB5"></path>
                <g id="Group" opacity="0.35" transform="translate(499.000000, 172.000000)" fill="#6C63FF">
                    <rect id="Rectangle-path" opacity="0.2" x="0.643185841" y="0.0075" width="77.7555752" height="2.34"></rect>
                </g>
                <g id="Group" opacity="0.35" transform="translate(499.000000, 183.000000)" fill="#6C63FF">
                    <rect id="Rectangle-path" opacity="0.2" x="0.643185841" y="0.345" width="77.7555752" height="2.34"></rect>
                </g>
                <g id="Group" opacity="0.35" transform="translate(499.000000, 194.000000)" fill="#6C63FF">
                    <rect id="Rectangle-path" opacity="0.2" x="0.643185841" y="0.54" width="77.7555752" height="1.872"></rect>
                </g>
                <g id="Group" opacity="0.35" transform="translate(499.000000, 206.000000)" fill="#6C63FF">
                    <rect id="Rectangle-path" opacity="0.2" x="0.643185841" y="0.255" width="77.7555752" height="2.34"></rect>
                </g>
                <g id="Group" opacity="0.35" transform="translate(499.000000, 217.000000)" fill="#6C63FF">
                    <rect id="Rectangle-path" opacity="0.2" x="0.643185841" y="0.585" width="77.7555752" height="2.34"></rect>
                </g>
                <g id="Group" opacity="0.35" transform="translate(499.000000, 229.000000)" fill="#6C63FF">
                    <rect id="Rectangle-path" opacity="0.2" x="0.643185841" y="0.1725" width="77.7555752" height="2.34"></rect>
                </g>
                <path d="M143.820071,119.364681 L143.525504,119.364681 C145.741775,113.707237 147.789722,108.189483 147.698546,107.134823 C147.502168,105.039474 143.287044,109.593367 143.090666,108.454894 C142.894287,107.31642 143.090666,103 141.175976,103 C139.261285,103 138.104055,105.242024 136.967865,105.242024 C135.831676,105.242024 131.209768,104.487698 131.209768,104.487698 L125.325427,119.364681 L81,119.364681 L81,258 L191,258 L191,119.364681 L143.820071,119.364681 Z" id="Shape" fill="url(#linearGradient-2)"></path>
                <rect id="Rectangle-path" fill="#F6F7F9" x="82" y="120" width="107" height="137"></rect>
                <path d="M144,120 C141.7,125.793909 139.10805,131.898575 138.517028,133.355685 C137.370588,136.117977 136.615789,134.647057 135.27709,134.281053 C133.93839,133.915049 132.236533,134.647057 131.474613,134.281053 C130.712693,133.915049 126.240867,134.281053 126.240867,134.281053 C126.290849,133.602854 126.290849,132.922061 126.240867,132.243862 C126.141176,131.511854 121,132.243862 121,132.243862 L125.899071,120 L144,120 Z" id="Shape" fill="#000000" opacity="0.1"></path>
                <path d="M131.143596,105.48669 L121,132.176323 C121,132.176323 125.978706,131.418819 126.06835,132.176323 C126.12041,132.869083 126.12041,133.56493 126.06835,134.25769 C126.06835,134.25769 130.405755,133.875398 131.143596,134.25769 C131.881438,134.639982 133.536409,133.875398 134.825908,134.25769 C136.115406,134.639982 136.853248,136.14791 137.963458,133.30904 C139.073668,130.470169 147.183028,110.215782 146.996844,108.134415 C146.81066,106.053049 142.75598,110.598074 142.569795,109.458278 C142.383611,108.318482 142.569795,104 140.728639,104 C138.887484,104 137.777274,106.244195 136.673959,106.244195 C135.570645,106.244195 131.143596,105.48669 131.143596,105.48669 Z" id="Shape" fill="#9D9CB5"></path>
                <g id="Group" opacity="0.35" transform="translate(97.000000, 156.000000)" fill="#6C63FF">
                    <rect id="Rectangle-path" opacity="0.2" x="0.0208928571" y="0.03" width="77.4567857" height="2.34"></rect>
                </g>
                <g id="Group" opacity="0.35" transform="translate(97.000000, 164.000000)" fill="#6C63FF">
                    <rect id="Rectangle-path" opacity="0.2" x="0.0208928571" y="0.6075" width="77.4567857" height="2.34"></rect>
                </g>
                <g id="Group" opacity="0.35" transform="translate(97.000000, 172.000000)" fill="#6C63FF">
                    <rect id="Rectangle-path" opacity="0.2" x="0.0208928571" y="0.4275" width="77.4567857" height="2.34"></rect>
                </g>
                <g id="Group" opacity="0.35" transform="translate(97.000000, 181.000000)" fill="#6C63FF">
                    <rect id="Rectangle-path" opacity="0.2" x="0.0208928571" y="0.255" width="77.4567857" height="2.34"></rect>
                </g>
                <g id="Group" opacity="0.35" transform="translate(97.000000, 189.000000)" fill="#6C63FF">
                    <rect id="Rectangle-path" opacity="0.2" x="0.0208928571" y="0.075" width="77.4567857" height="2.34"></rect>
                </g>
                <g id="Group" opacity="0.35" transform="translate(97.000000, 197.000000)" fill="#6C63FF">
                    <rect id="Rectangle-path" opacity="0.2" x="0.0208928571" y="0.645" width="77.4567857" height="2.34"></rect>
                </g>
                <path d="M547.469854,324.161072 L547.17708,324.161072 C549.881756,317.184923 552.377308,310.369225 552.258805,309.092589 C552.028768,306.532342 546.884305,312.120238 546.682152,310.725008 C546.479998,309.329778 546.682152,304 544.346928,304 C542.011705,304 540.610571,306.79046 539.209437,306.79046 C537.808303,306.79046 532.196796,305.855656 532.196796,305.855656 L524.988972,324.161072 L471,324.161072 L471,495 L605,495 L605,324.161072 L547.469854,324.161072 Z" id="Shape" fill="url(#linearGradient-3)"></path>
                <rect id="Rectangle-path" fill="#F6F7F9" x="472" y="325" width="132" height="169"></rect>
                <path d="M548,325 C545.221159,332.351527 542.103778,340.046986 541.37733,341.895615 C539.966751,345.43524 539.056927,343.543619 537.427708,343.077879 C535.798489,342.612138 533.710831,343.543619 532.779849,343.077879 C531.848866,342.612138 526.389924,343.077879 526.389924,343.077879 C526.450887,342.211992 526.450887,341.342786 526.389924,340.4769 C526.270025,339.538254 520,340.4769 520,340.4769 L525.945592,325 L548,325 Z" id="Shape" fill="#000000" opacity="0.1"></path>
                <path d="M532.481609,307.824195 L520,340.539971 C520,340.539971 526.123703,339.610266 526.240804,340.539971 C526.300369,341.388763 526.300369,342.240827 526.240804,343.089619 C526.240804,343.089619 531.572353,342.631809 532.481609,343.089619 C533.390865,343.547428 535.429804,342.631809 537.021002,343.089619 C538.6122,343.547428 539.514568,345.413883 540.878453,341.93453 C542.242337,338.455177 552.223491,313.620769 551.996177,311.071121 C551.768863,308.521474 546.774842,314.085621 546.547528,312.698106 C546.320214,311.310591 546.547528,306 544.281276,306 C542.015023,306 540.651139,308.753901 539.287254,308.753901 C537.92337,308.753901 532.481609,307.824195 532.481609,307.824195 Z" id="Shape" fill="#9D9CB5"></path>
                <g id="Group" opacity="0.35" transform="translate(499.000000, 372.000000)" fill="#6C63FF">
                    <rect id="Rectangle-path" opacity="0.2" x="0.643185841" y="0.4" width="77.7555752" height="5.28666667"></rect>
                </g>
                <g id="Group" opacity="0.35" transform="translate(499.000000, 409.000000)" fill="#6C63FF">
                    <rect id="Rectangle-path" opacity="0.2" x="0.643185841" y="0.0733333333" width="77.7555752" height="5.28666667"></rect>
                </g>
                <g id="Group" opacity="0.35" transform="translate(499.000000, 444.000000)" fill="#6C63FF">
                    <rect id="Rectangle-path" opacity="0.2" x="0.643185841" y="0.42" width="77.7555752" height="5.28666667"></rect>
                </g>
                <polygon id="Shape" fill="url(#linearGradient-4)" points="166.411799 330.610588 166.411799 310 137.456551 310 137.456551 330.610588 77 330.610588 77 493 219 493 219 330.610588"></polygon>
                <rect id="Rectangle-path" fill="#F6F7F9" x="78" y="331" width="139" height="161"></rect>
                <rect id="Rectangle-path" fill="#000000" opacity="0.1" x="137" y="331" width="28" height="22"></rect>
                <rect id="Rectangle-path" fill="#9D9CB5" x="137" y="311" width="28" height="42"></rect>
                <g id="Group" opacity="0.35" transform="translate(108.000000, 369.000000)" fill="#6C63FF">
                    <rect id="Rectangle-path" opacity="0.2" x="0.671150442" y="0.426666667" width="77.7555752" height="5.28666667"></rect>
                </g>
                <g id="Group" opacity="0.35" transform="translate(108.000000, 381.000000)" fill="#6C63FF">
                    <rect id="Rectangle-path" opacity="0.2" x="0.671150442" y="0.273333333" width="77.7555752" height="5.28666667"></rect>
                </g>
                <g id="Group" opacity="0.35" transform="translate(108.000000, 392.000000)" fill="#6C63FF">
                    <rect id="Rectangle-path" opacity="0.2" x="0.671150442" y="0.126666667" width="77.7555752" height="5.28666667"></rect>
                </g>
                <g id="Group" opacity="0.35" transform="translate(108.000000, 402.000000)" fill="#6C63FF">
                    <rect id="Rectangle-path" opacity="0.2" x="0.671150442" y="0.64" width="77.7555752" height="5.28666667"></rect>
                </g>
                <g id="Group" opacity="0.35" transform="translate(165.000000, 415.000000)" fill="#6C63FF">
                    <rect id="Rectangle-path" opacity="0.2" x="0.298064516" y="0.3536" width="21.1270968" height="16.3608"></rect>
                </g>
                <g id="Group" opacity="0.35" transform="translate(108.000000, 436.000000)" fill="#6C63FF">
                    <rect id="Rectangle-path" opacity="0.2" x="0.681290323" y="0.1904" width="21.1270968" height="16.3608"></rect>
                </g>
                <path d="M365.997047,330.083052 L365.801368,330.083052 C368.065653,321.237673 369.770855,314.193483 369.770855,314.193483 L360.112702,318.731365 C360.112702,318.731365 353.256952,309.655601 350.720114,311.170556 C348.183277,312.68551 342.613416,316.462424 342.613416,316.462424 L335.219548,312.678529 L332.389192,330.083052 L274,330.083052 L274,455.670684 L277.752842,457.911699 C280.848762,456.801664 285.943403,454.916697 285.943403,454.916697 L283.602244,461.409359 L285.181653,462.344861 L287.844284,459.936293 L288.829667,464.537007 L291.995472,466.428955 L296.992273,463.252438 L295.594567,468.600157 L300.283872,471.3927 L313.9185,466.275365 L309.809243,477.082506 L312.513805,478.702181 L318.684679,477.62007 C318.684679,477.62007 318.405138,479.77731 318.230425,482.116064 L324.422265,485.816184 C326.959102,484.831812 329.349181,483.861404 329.349181,483.861404 C329.349181,483.861404 329.104582,486.221102 328.992765,488.538913 L333.143954,491.024276 C336.421576,489.111384 340.59373,486.507338 340.59373,486.507338 L337.099464,493 L416,493 L416,330.083052 L365.997047,330.083052 Z" id="Shape" fill="url(#linearGradient-5)"></path>
                <path d="M414,331 L414,492 L336.75685,492 L340.202901,485.588805 C340.202901,485.588805 336.122052,488.154681 332.913179,490.049375 L328.853257,487.588371 C328.96487,485.302154 329.209023,482.966997 329.209023,482.966997 C329.209023,482.966997 326.865151,483.924831 324.381763,484.896648 L318.319783,481.240099 C318.494178,478.932908 318.759259,476.800504 318.759259,476.800504 L312.725183,477.870201 L310.081351,476.269151 L314.099418,465.586156 L300.754692,470.647994 L296.157633,467.851398 L297.496989,462.565833 L292.613922,465.705011 L289.516662,463.838284 L288.554,459.293816 L285.945047,461.684905 L284.396417,460.755037 L286.691458,454.343842 C286.691458,454.343842 281.703754,456.203578 278.669276,457.301242 L275,455.091932 L275,331 L414,331 Z" id="Shape" fill="#F6F7F9"></path>
                <g id="Group" opacity="0.35" transform="translate(305.000000, 381.000000)" fill="#6C63FF">
                    <rect id="Rectangle-path" opacity="0.2" x="0.657168142" y="0.273333333" width="77.7555752" height="5.28666667"></rect>
                </g>
                <g id="Group" opacity="0.35" transform="translate(305.000000, 397.000000)" fill="#6C63FF">
                    <rect id="Rectangle-path" opacity="0.2" x="0.657168142" y="0.08" width="77.7555752" height="5.28666667"></rect>
                </g>
                <g id="Group" opacity="0.35" transform="translate(305.000000, 413.000000)" fill="#6C63FF">
                    <rect id="Rectangle-path" opacity="0.2" x="0.657168142" y="0.546666667" width="77.7555752" height="5.28666667"></rect>
                </g>
                <g id="Group" opacity="0.35" transform="translate(305.000000, 430.000000)" fill="#6C63FF">
                    <rect id="Rectangle-path" opacity="0.2" x="0.665833333" y="0.353333333" width="15.7816667" height="5.28666667"></rect>
                </g>
                <path d="M365,331.006931 C361.227148,345.825706 355.727972,366.355738 354.29401,365.995319 C352.066496,365.39231 348.586005,361.143522 348.586005,361.143522 C348.586005,361.143522 340.39989,368.80243 336.43213,364.851681 C332.464371,360.900932 327,363.611007 327,363.611007 L332.290346,331 L365,331.006931 Z" id="Shape" fill="#000000" opacity="0.1"></path>
                <path d="M335.00167,313.651706 L327,362.621635 C327,362.621635 332.49808,359.901854 336.495408,363.863575 C340.492737,367.825297 348.746869,360.137753 348.746869,360.137753 C348.746869,360.137753 352.253298,364.383941 354.497412,364.994504 C356.741526,365.605067 369,315.136484 369,315.136484 L359.497579,319.590819 C359.497579,319.590819 352.751211,310.68215 350.247621,312.166928 C347.744031,313.651706 342.274002,317.363652 342.274002,317.363652 L335.00167,313.651706 Z" id="Shape" fill="#9D9CB5"></path>
                <path d="M399.857724,98.721958 L399.857724,94 L325.645002,94 C322.239273,94 324.323271,98.721958 324.323271,98.721958 L284,98.721958 L284,204 L461,204 L461,98.6801091 L399.857724,98.721958 Z" id="Shape" fill="url(#linearGradient-6)"></path>
                <rect id="Rectangle-path" fill="#F6F7F9" x="286" y="99" width="175" height="104"></rect>
                <path d="M399.766763,116 L330.502588,116 C330.502588,116 329.755409,107.964653 332.185486,106.476367 C334.615563,104.988081 325.272336,99.7476367 325.272336,99.7476367 C325.168889,99.5032291 325.077992,99.2536914 325,99 L399.766763,99 L399.766763,101.431566 C399.766763,101.431566 409.291547,109.837238 399.766763,116 Z" id="Shape" fill="#000000" opacity="0.1"></path>
                <path d="M326.918484,95 L399.785371,95 L399.785371,101.375752 C399.785371,101.375752 409.268286,109.792585 399.785371,116 L330.825667,116 C330.825667,116 330.081773,107.933868 332.501168,106.43988 C334.920562,104.945892 325.618407,99.6853707 325.618407,99.6853707 C325.618407,99.6853707 323.574435,95 326.918484,95 Z" id="Shape" fill="#9D9CB5"></path>
                <g id="Group" opacity="0.35" transform="translate(307.000000, 131.000000)" fill="#6C63FF">
                    <rect id="Rectangle-path" opacity="0.2" x="0.469" y="0.576" width="132.006" height="1.872"></rect>
                </g>
                <g id="Group" opacity="0.35" transform="translate(307.000000, 140.000000)" fill="#6C63FF">
                    <rect id="Rectangle-path" opacity="0.2" x="0.470175439" y="0.54" width="79.0526316" height="2.34"></rect>
                </g>
                <g id="Group" opacity="0.35" transform="translate(307.000000, 148.000000)" fill="#6C63FF">
                    <rect id="Rectangle-path" opacity="0.2" x="0.469" y="0.3675" width="132.006" height="2.34"></rect>
                </g>
                <g id="Group" opacity="0.35" transform="translate(307.000000, 156.000000)" fill="#6C63FF">
                    <rect id="Rectangle-path" opacity="0.2" x="0.469" y="0.1875" width="132.006" height="2.34"></rect>
                </g>
                <g id="Group" opacity="0.35" transform="translate(307.000000, 165.000000)" fill="#6C63FF">
                    <rect id="Rectangle-path" opacity="0.2" x="0.469" y="0.0075" width="132.006" height="2.34"></rect>
                </g>
                <path d="M492.951092,579.3031 C491.698736,573.986986 490.929132,569.326666 490.929132,569.326666 C490.929132,569.326666 491.215984,563.543125 488.613322,559.203725 L488.613322,557.759584 L488.613322,547.078521 C489.351194,545.144263 490.254735,543.276958 491.313934,541.497299 C493.244941,538.134613 491.313934,525.828019 491.313934,525.828019 C491.313934,525.828019 484.163609,508.477396 485.905713,497.475413 C487.647818,486.47343 471.213265,448.604841 471.213265,448.604841 C471.314294,444.951077 471.83305,441.320736 472.75947,437.784247 C472.930048,437.041097 473.000633,436.278606 472.969362,435.516876 C472.969362,435.426181 472.969362,435.335486 472.969362,435.237815 L472.969362,435.32851 C472.724488,428.072922 466.973444,414.468694 466.973444,414.468694 L467.743049,388.536942 C467.743049,388.536942 471.416161,373.244395 465.427239,352.726429 C463.328318,345.561536 461.992004,339.833807 461.145439,335.410689 C461.04749,334.908379 460.956537,334.426998 460.87258,333.966547 C473.20724,332.089862 482.6244,330.52712 482.6244,330.52712 C482.6244,330.52712 475.467079,300.667584 470.63956,295.449141 C465.812041,290.230699 461.94303,273.821907 461.94303,273.821907 C461.94303,273.821907 459.424324,252.745819 463.489235,246.613452 C467.554146,240.481084 468.120854,229.820951 468.120854,229.820951 C468.120854,229.820951 477.398086,223.109532 478.559489,220.123578 C479.720892,217.137625 481.6519,210.426205 481.6519,206.868177 C481.6519,203.310148 480.490497,200.149781 480.882295,198.287048 C481.274094,196.424316 478.174687,189.336164 479.720892,185.973478 C480.122605,184.940976 480.331275,183.843839 480.336576,182.736369 C480.340463,182.703928 480.340463,182.67114 480.336576,182.638698 C480.336576,182.638698 480.336576,182.638698 480.336576,182.603815 C480.346877,179.665836 480.072746,176.733725 479.517997,173.848274 C479.517997,173.848274 475.320154,170.157691 470.345711,168.964705 L470.142815,168.162404 L469.618085,166.069446 C469.322655,165.871684 469.016697,165.690028 468.701556,165.525277 L468.701556,164.764836 L468.617599,161.737023 L470.072851,154.920956 C472.920388,143.06086 457.073532,141.309751 457.073532,141.309751 C456.123605,139.482799 454.524499,138.074807 452.588837,137.361037 C449.398477,136.237816 452.057111,155.179087 453.547345,156.386027 C454.673766,157.299952 458.136986,163.236976 459.80213,166.153164 L460.07499,166.634545 C459.822044,166.869244 459.588102,167.123517 459.375349,167.394986 L459.97704,171.504161 L460.067993,172.132048 C459.019486,173.435981 458.168523,174.886266 457.542291,176.436565 C457.542291,176.436565 460.445799,179.603909 459.865098,183.147984 C459.284396,186.69206 460.753641,191.108202 460.823605,191.35238 C460.648695,191.157038 458.612741,188.952455 456.576788,189.489648 C454.540834,190.02684 448.880743,191.729113 448.880743,191.729113 C448.880743,191.729113 444.626929,192.475601 445.018728,193.410456 C445.410527,194.34531 442.11522,198.447508 442.11522,198.447508 L430.690093,187.647844 C430.57815,187.326924 430.466208,187.006004 430.361262,186.671131 C429.884957,185.128248 429.552385,183.544846 429.367772,181.941045 C430.612013,181.644956 431.83269,181.257874 433.019895,180.782942 C434.221412,180.374504 435.306273,179.682835 436.18227,178.766725 C437.32968,177.37142 437.581551,175.550546 438.022324,173.883156 C438.92486,170.56233 440.86986,167.604282 442.262145,164.457868 C444.613883,159.142779 445.404793,153.271352 444.542973,147.525837 C444.362755,145.758564 443.760586,144.060056 442.786875,142.572503 C440.925832,140.012117 437.539572,138.972615 435.090831,136.928492 C432.642089,134.88437 431.046909,131.772839 428.178384,130.238003 C425.589714,128.842697 422.427339,129.017111 419.509839,129.491515 C413.792102,130.430175 408.299614,132.422199 403.313163,135.36575 C401.648019,136.349441 399.814961,137.458708 397.897947,137.137788 C396.260788,136.844774 395.057407,135.533187 394.00095,134.284389 C394.014033,134.229971 394.030387,134.176388 394.049924,134.123929 L393.923989,133.977421 C392.714011,136.655568 392.107416,139.56562 392.146903,142.502738 C392.146903,142.956212 392.146903,143.409686 392.202874,143.898043 C392.202874,144.058503 392.202874,144.218963 392.202874,144.379423 C392.21322,144.509448 392.21322,144.640085 392.202874,144.770109 C392.20298,144.973021 392.174722,145.174957 392.118917,145.37009 C391.875952,145.953998 391.511038,146.479598 391.048467,146.911903 C390.699543,147.303013 390.388016,147.725766 390.117945,148.174654 C390.16692,148.021171 390.215895,147.867687 390.271866,147.714203 C389.542867,148.772624 389.132607,150.01685 389.089474,151.300138 C389.027076,152.237527 389.336077,153.161898 389.950032,153.874477 C390.519528,154.432069 391.142907,154.93216 391.811075,155.367454 C390.19747,164.331503 394.35847,173.348307 402.235717,177.957448 C402.368649,178.278369 402.494584,178.606265 402.627516,178.934162 C404.082768,182.771252 405.181203,187.236229 404.726437,191.359357 C404.684459,191.666324 404.64248,191.966315 404.586509,192.266305 C404.439584,192.419789 404.299656,192.580249 404.173721,192.740709 C404.173721,192.740709 385.28343,192.922099 380.868699,188.910596 C376.453968,184.899093 369.674453,198.677734 369.674453,198.677734 C369.674453,198.677734 362.90893,199.989321 361.558624,198.677734 C360.208318,197.366147 352.281392,198.496344 352.281392,198.496344 C352.281392,198.496344 347.446877,193.829047 340.492451,194.20578 C337.850926,192.203971 334.936777,190.587772 331.837899,189.405929 L331.621011,189.329188 C330.260262,188.83905 328.807521,188.655591 327.367197,188.791995 C327.367197,188.791995 318.089965,181.117815 315.389354,177.043523 C312.688742,172.969231 299.794369,157.718543 299.738398,157.648778 L299.689423,156.951125 L299.542498,154.73259 C299.160529,154.792599 298.774739,154.82524 298.388092,154.830261 L298.129225,154.062843 C297.389082,151.898495 296.471798,149.798468 295.386634,147.783969 C295.386634,147.783969 295.386634,144.993358 296.205214,144.295705 C297.023793,143.598052 295.869386,133.335581 295.869386,133.335581 C295.869386,133.335581 287.508683,113.843164 280.022531,128.3962 C280.022531,128.3962 265.868806,137.807535 277.7487,148.767659 C277.7487,148.767659 282.485265,151.062936 283.15692,152.876833 C283.597693,154.055866 285.206866,157.341811 286.291309,159.53244 C286.473215,159.89522 286.634133,160.230093 286.774061,160.509154 L286.641129,160.620778 L286.816039,162.448629 L286.886003,163.146281 C284.647154,164.416009 283.128934,165.664808 283.499744,166.634545 C284.16103,168.250075 284.614733,169.942524 284.85005,171.671597 C284.85005,171.671597 301.277606,192.189564 303.404513,200.973011 C303.404513,200.973011 347.481859,227.086152 361.964415,228.955861 L359.452706,242.008944 C359.452706,242.008944 358.676105,249.843584 358.872005,252.641171 C359.067904,255.438758 357.1299,268.129061 357.1299,268.129061 C357.1299,268.129061 354.618191,286.777318 352.491284,289.386539 C350.364377,291.99576 350.756176,303.193086 350.756176,303.193086 C350.244386,308.551968 349.272996,313.857259 347.852668,319.050733 C345.753747,326.138884 347.278963,334.901402 347.278963,334.901402 C347.278963,334.901402 339.932739,351.693903 357.521699,340.315187 C357.521699,340.315187 366.155261,339.777995 376.097152,339.443121 C376.097152,339.764041 376.097152,340.091938 376.097152,340.426812 C376.097152,341.703516 376.055173,343.084868 376.04118,344.542963 C375.908249,354.156617 375.852277,367.405042 376.286055,377.430311 C377.055659,395.15069 382.470876,430.221692 382.470876,430.221692 L382.470876,447.837423 C382.121493,449.493554 381.950278,451.182125 381.960138,452.874475 C381.841049,459.084692 383.493346,465.200905 386.724689,470.511136 L387.921074,482.141007 C387.921074,482.141007 391.097442,489.884952 391.16041,494.510389 C391.145304,494.888036 391.098497,495.263756 391.020481,495.63361 C390.902086,496.226 390.850459,496.829728 390.866561,497.433554 C390.684654,502.770597 393.909996,515.530665 393.909996,515.530665 C393.909996,515.530665 394.105896,528.402358 396.008918,529.148846 C397.660069,529.78371 393.80505,536.564895 392.650644,538.511346 C392.650644,538.385768 392.601669,538.267167 392.58068,538.14159 C392.433755,538.392745 392.342802,538.532275 392.342802,538.532275 C391.945559,539.570437 391.741655,540.672173 391.741111,541.783337 C391.517617,543.578276 392.351102,545.341006 393.882011,546.311103 C397.555123,548.550568 399.528109,550.413301 396.414709,551.194672 C395.26776,551.36907 394.130521,551.601926 393.00746,551.892325 C392.951489,551.745818 392.895518,551.599311 392.846543,551.45978 C391.951727,551.828212 391.425695,552.759122 391.573197,553.713198 C391.489241,554.655029 391.804079,556.029405 392.727604,558.080504 C395.820015,564.98029 397.960914,567.596487 397.960914,567.596487 L399.444152,567.429051 C399.218082,567.989794 398.929411,568.523371 398.583594,569.019699 C398.018841,569.828974 397.267943,570.491619 396.39372,570.952197 C395.588919,571.436299 394.689588,571.743154 393.756075,571.852169 C391.634471,571.922819 389.642918,572.889135 388.277891,574.510226 C386.35388,576.993869 385.143502,580.384461 388.977532,583.356462 L402.802426,588.114453 C402.802426,588.114453 426.5902,591.191102 425.309858,585.874988 C424.029516,580.558875 423.287897,575.898554 423.287897,575.898554 C423.287897,575.898554 423.55376,570.708018 421.35689,566.46629 C421.111081,565.981642 420.830495,565.515328 420.517321,565.070984 L421.35689,564.973313 C421.35689,564.973313 423.091998,553.224841 425.414804,551.020259 C425.946531,550.503996 426.065469,550.106334 425.939534,549.806343 C426.184408,549.164503 425.575721,548.78777 424.79912,548.578474 L424.631207,549.038925 C423.872566,548.873857 423.098857,548.787354 422.322393,548.780794 C422.322393,548.780794 421.545792,542.627497 424.057502,540.408961 C424.471033,539.895347 424.648782,539.231946 424.54725,538.581111 C424.568446,537.738661 424.48145,536.896968 424.288383,536.076538 C424.288383,536.118397 424.232412,536.174209 424.19743,536.216068 C422.93108,530.634847 418.649281,521.753728 418.649281,521.753728 C418.649281,521.753728 418.453382,516.172506 419.999587,513.926064 C421.545792,511.679622 419.810684,483.515383 419.810684,483.515383 C419.810684,483.515383 420.391386,469.904178 418.649281,463.562515 C416.907177,457.220852 420.748202,449.755968 420.748202,449.755968 C420.748202,449.755968 420.748202,449.609461 420.706224,449.351329 L420.755199,449.253658 C420.755199,449.253658 420.671242,448.416475 420.531314,447.111864 C420.511981,447.152494 420.495614,447.194462 420.482339,447.237442 C420.097537,443.637554 419.355918,437.107524 418.817195,434.086688 C418.040594,429.796124 419.006098,409.278158 419.006098,409.278158 L422.5043,400.51564 L428.689121,415.619821 L435.265741,435.768031 C435.265741,435.768031 438.519069,440.023713 438.596029,444.335206 C438.596029,444.544502 438.596029,444.753798 438.554051,444.963094 C438.501508,445.409986 438.475808,445.859612 438.47709,446.309563 C438.361304,448.853833 439.062255,451.368622 440.478062,453.48841 C440.478062,453.48841 442.220166,462.997416 444.927775,465.425248 C447.635383,467.853079 447.628387,472.513399 447.628387,472.513399 C447.628387,472.513399 450.916697,486.31297 452.462902,488.740801 C453.764233,490.784924 453.862183,496.414981 453.820204,498.12423 C453.820204,498.445151 453.820204,498.62654 453.820204,498.62654 C453.820204,498.62654 454.274971,503.558945 454.260978,507.696025 C454.260978,508.205312 454.260978,508.700645 454.212003,509.168073 L454.212003,509.063425 C454.207342,510.193469 454.073547,511.319303 453.813208,512.419134 C453.790404,512.480623 453.771706,512.543549 453.757237,512.607501 C453.757237,512.377275 453.757237,512.140073 453.813208,511.909848 C453.13956,514.726997 452.8153,517.615958 452.847704,520.511906 C452.756751,525.472217 453.547345,531.353429 456.527813,534.799833 C461.74713,540.77174 465.03544,540.025252 465.03544,540.025252 C465.03544,540.025252 462.516735,547.48316 459.438317,548.976136 C459.322176,549.035132 459.21205,549.105226 459.109486,549.185432 C459.109486,549.038925 459.053515,548.899395 459.032525,548.752887 C458.388856,549.31101 458.129989,550.31563 458.129989,551.543498 C457.906104,554.822466 459.97704,560.152533 461.957022,562.601294 C462.68755,563.315446 463.584152,563.837976 464.566681,564.122177 C464.408574,564.23029 464.245118,564.330413 464.076933,564.422167 C463.733297,564.609513 463.378101,564.774956 463.013479,564.917501 C462.514265,565.137951 461.982751,565.276929 461.439288,565.329116 C459.315939,565.377323 457.315653,566.332699 455.947111,567.95229 C454.0231,570.428957 452.812722,573.819549 456.646752,576.79155 L470.471646,581.549541 C470.471646,581.549541 494.217442,584.619213 492.951092,579.3031 Z" id="Shape" fill="url(#linearGradient-7)"></path>
                <path d="M401.958795,589.113161 L388.441107,584.363203 C384.708189,581.39622 385.895936,578.011353 387.783605,575.531903 C389.093099,573.925333 391.045567,572.957269 393.135534,572.878334 C394.051995,572.768115 394.932817,572.461441 395.716056,571.979881 C396.568877,571.51232 397.296034,570.850899 397.837032,570.050646 C398.825874,568.509229 399.359548,566.727035 399.378274,564.903698 C399.378274,564.903698 414.225108,560.620378 418.283242,564.903698 C419.008153,565.67802 419.613243,566.553379 420.079002,567.501549 C422.199978,571.736115 421.973741,576.917887 421.973741,576.917887 C421.973741,576.917887 422.730222,581.563374 423.953319,586.877477 C425.176415,592.191579 401.958795,589.113161 401.958795,589.113161 Z" id="Shape" fill="#2D293D"></path>
                <path d="M467.946624,582.115857 L454.434766,577.365409 C450.710524,574.39812 451.897759,571.012903 453.777547,568.540162 C455.083451,566.929745 457.036905,565.960674 459.127168,565.886319 C459.662611,565.834921 460.18564,565.696035 460.674813,565.475357 C461.031367,565.332359 461.378342,565.167177 461.713643,564.980809 C465.49442,562.932961 465.395484,557.903894 465.395484,557.903894 C465.395484,557.903894 480.235914,553.620132 484.292298,557.903894 C484.83521,558.48275 485.309397,559.120727 485.705673,559.805467 C488.249747,564.137987 487.967072,569.919325 487.967072,569.919325 C487.967072,569.919325 488.723227,574.572257 489.952863,579.879942 C491.182498,585.187628 467.946624,582.115857 467.946624,582.115857 Z" id="Shape" fill="#2D293D"></path>
                <path d="M418.223776,564.890958 C418.9408,565.660619 419.539308,566.530708 420,567.47317 L398,570 C398.978085,568.467862 399.505953,566.696396 399.524476,564.884035 C399.524476,564.884035 414.20979,560.640345 418.223776,564.890958 Z" id="Shape" fill="#000000" opacity="0.1"></path>
                <path d="M485,559.851611 L485,564.004018 C481.549534,569.686261 464.847587,568.445473 460,565.590252 C460.356013,565.44552 460.702463,565.278335 461.037257,565.089707 C464.812306,563.017029 464.71352,557.92698 464.71352,557.92698 C464.71352,557.92698 479.531471,553.591275 483.58171,557.92698 C484.126268,558.512485 484.602114,559.158213 485,559.851611 Z" id="Shape" fill="#000000" opacity="0.1"></path>
                <path d="M487.174543,541.952039 C486.154051,543.73598 485.283837,545.602195 484.572963,547.531254 L484.572963,562.27433 C480.851452,568.425415 461.506547,566.375054 458.904967,563.02055 C456.303387,559.666047 453.513992,550.899706 456.484246,549.407266 C459.454499,547.914826 461.868264,540.459599 461.868264,540.459599 C461.868264,540.459599 458.70324,541.205819 453.680939,535.236059 C448.658637,529.266299 450.147242,516.029611 451.086315,512.863406 C452.025388,509.697202 451.086315,499.061823 451.086315,499.061823 C451.086315,499.061823 451.274129,491.606597 449.785525,489.179638 C448.29692,486.75268 445.173633,472.95807 445.173633,472.95807 C445.173633,472.95807 445.173633,468.299426 442.565097,465.872467 C439.95656,463.445508 438.287097,453.939921 438.287097,453.939921 C436.764906,451.563495 436.10877,448.732627 436.429819,445.926773 C436.986307,441.261154 433.264796,436.225912 433.264796,436.225912 L426.941704,416.09192 L420.994241,400.986195 L417.648359,409.752537 C417.648359,409.752537 416.716242,430.263126 417.460544,434.552148 C418.204847,438.84117 419.317822,450.215794 419.317822,450.215794 C419.317822,450.215794 415.603267,457.671021 417.27273,464.010404 C418.942193,470.349787 418.392661,483.963072 418.392661,483.963072 C418.392661,483.963072 420.062124,512.117186 418.57352,514.355846 C417.084915,516.594507 417.27273,522.18767 417.27273,522.18767 C417.27273,522.18767 424.924436,538.590562 422.482846,540.829222 C420.041256,543.067882 420.806427,549.198045 420.806427,549.198045 C420.806427,549.198045 426.016543,549.198045 423.783636,551.436705 C421.550729,553.675365 419.87431,565.384743 419.87431,565.384743 L397.392206,568 C397.392206,568 395.305377,565.384743 392.355992,558.487438 C389.406607,551.590133 392.91248,552.336354 395.903601,551.590133 C398.894723,550.843913 397.002665,548.98185 393.468968,546.70832 C389.935271,544.43479 391.980363,539.434418 391.980363,539.434418 C391.980363,539.434418 397.371338,530.298454 395.51406,529.552234 C393.656782,528.806014 393.468968,515.938949 393.468968,515.938949 C393.468968,515.938949 389.747456,500.651899 390.686529,496.551176 C391.625602,492.450453 387.674539,482.631034 387.674539,482.631034 L386.373749,470.879813 C379.675028,459.323863 382.283564,448.695458 382.283564,448.695458 L382.283564,430.632749 C382.283564,430.632749 377.073448,395.58133 376.329146,377.867322 C375.856131,366.520593 375.988297,351.038271 376.141331,341.379255 C376.231761,335.960442 376.329146,332.368823 376.329146,332.368823 L456.67206,324 C456.67206,324 456.588587,327.717152 458.13284,335.967416 C458.946704,340.388944 460.219669,346.114614 462.25085,353.276931 C468.017454,373.787521 464.483757,389.074571 464.483757,389.074571 L463.739454,414.983051 C463.739454,414.983051 470.806848,432.327436 469.304331,438.290222 C468.412409,441.829842 467.91318,445.457405 467.815727,449.106925 C467.815727,449.106925 483.640846,486.947952 481.964427,497.973876 C480.288008,508.9998 487.174543,526.316289 487.174543,526.316289 C487.174543,526.316289 489.031821,538.590562 487.174543,541.952039 Z" id="Shape" fill="#C9C9C9"></path>
                <path d="M442,445.091868 L467,442 C467,442 452.836177,455.424522 442,445.091868 Z" id="Shape" fill="#000000" opacity="0.05"></path>
                <path d="M462.516701,418 C462.516701,418 463.360944,426.717709 458,430 C458,430 467.596231,428.499123 462.516701,418 Z" id="Shape" fill="#000000" opacity="0.1"></path>
                <path d="M461,390 C461,390 440.491494,407.350204 433.031952,405.91571 C425.57241,404.481216 461,390 461,390 Z" id="Shape" fill="#000000" opacity="0.1"></path>
                <path d="M411,453 C411,453 395.482738,456.471611 395.00999,462.586303 C394.537242,468.700995 411,453 411,453 Z" id="Shape" fill="#000000" opacity="0.1"></path>
                <path d="M415.235159,531 C415.235159,531 392.75781,535.130484 399.141235,537.942579 C405.524659,540.754675 415.997465,542.998741 415.997465,542.998741 C415.997465,542.998741 423.235812,543.377427 415.235159,531 Z" id="Shape" fill="#000000" opacity="0.05"></path>
                <g id="Group" opacity="0.05" transform="translate(376.000000, 332.000000)" fill="#000000">
                    <path d="M18.7217284,210.615398 C17.5989085,209.914156 16.8566656,208.737771 16.7058642,207.420442 L16.4826543,207.811947 C16.4826543,207.811947 14.4319136,212.859558 17.9753704,215.103717 L19.1262963,215.858761 C19.775,215.739912 20.4795062,215.649027 21.1630864,215.474248 C24.1624691,214.726195 22.2651852,212.859558 18.7217284,210.615398 Z" id="Shape"></path>
                    <path d="M47.0693827,209.119292 C47.6692593,208.56 47.6483333,207.126814 47.278642,205.28115 C46.2881481,206.728319 46.0509877,208.979469 46.0300617,210.692301 C46.2604395,210.099587 46.6148315,209.563216 47.0693827,209.119292 Z" id="Shape"></path>
                    <path d="M43.6793827,116.13 C42.864292,118.339381 42.3641209,120.652925 42.193642,123.002301 C42.6137744,121.37981 43.1835531,119.799998 43.8956173,118.283274 C43.8956173,118.283274 43.8119136,117.437345 43.6793827,116.13 Z" id="Shape"></path>
                    <path d="M94.062037,106.314425 C94.2147464,105.645169 94.2827097,104.959295 94.264321,104.273009 C93.992284,105.671239 93.7969753,106.964602 93.6574691,108.097168 C93.7760494,107.516903 93.9085802,106.922655 94.062037,106.314425 Z" id="Shape"></path>
                    <path d="M43.1492593,182.580885 C43.4561728,182.119469 43.6235802,180.581416 43.707284,178.428142 C43.0097531,179.791416 42.7237654,181.993628 42.6330864,183.671504 C42.7614307,183.288754 42.9347034,182.922647 43.1492593,182.580885 Z" id="Shape"></path>
                    <path d="M47.7738889,217.830265 C46.239321,222.024956 45.2,229.309735 45.2,229.309735 L22.6488272,231.924425 C22.6488272,231.924425 20.5562346,229.309735 17.5987037,222.395487 C17.3406173,221.787257 17.131358,221.241947 16.9639506,220.745575 C15.6107407,221.367788 15.0806173,222.773009 16.8523457,226.876814 C19.8377778,233.791062 21.9024691,236.412743 21.9024691,236.412743 L44.453642,233.77708 C44.453642,233.77708 46.1346914,222.003982 48.3737654,219.794779 C49.4758642,218.676195 48.771358,218.109912 47.7738889,217.830265 Z" id="Shape"></path>
                    <path d="M17.9753704,184.258761 C17.9753704,184.258761 18.1637037,197.157434 20.0261111,197.905487 C20.9677778,195.773186 21.5955556,193.710796 20.723642,193.410177 C18.8612346,192.669115 18.6729012,179.770442 18.6729012,179.770442 C18.6729012,179.770442 14.9411111,164.43885 15.8827778,160.328053 C16.8244444,156.217257 12.8973457,146.310796 12.8973457,146.310796 L11.592963,134.537699 C4.87574074,122.946372 7.49148148,112.291858 7.49148148,112.291858 L7.49148148,94.1707965 C7.49148148,94.1707965 2.26697531,59.0262832 1.52061728,41.2687611 C1.0462963,29.9011504 1.17882716,14.3807965 1.33228395,4.6980531 C1.33228395,2.94327434 1.39506173,1.39123894 1.42296296,0.0838938053 L0.774259259,0.146814159 C0.774259259,0.146814159 0.676604938,3.74725664 0.585925926,9.17938053 C0.432469136,18.8621239 0.299938272,34.3475221 0.774259259,45.7570796 C1.52061728,63.5146018 6.74512346,98.6521239 6.74512346,98.6521239 L6.74512346,116.787168 C6.74512346,116.787168 4.12938272,127.441681 10.8466049,139.026018 L12.1509877,150.806106 C12.1509877,150.806106 16.0641358,160.712566 15.1364198,164.788407 C14.2087037,168.864248 17.9753704,184.258761 17.9753704,184.258761 Z" id="Shape"></path>
                    <path d="M84.366358,226.876814 C82.5337855,224.219246 81.3138807,221.186438 80.795,217.998053 C78.4931481,220.095398 81.1367901,228.170177 83.5851235,231.365133 C86.1938889,234.727876 105.592222,236.783274 109.324012,230.61708 L109.324012,227.058584 C104.315741,232.071239 86.8356173,230.057788 84.366358,226.876814 Z" id="Shape"></path>
                    <path d="M112.714012,205.756549 C111.686998,207.543955 110.811993,209.414873 110.098272,211.349469 L110.098272,213.97115 C110.523765,213.013363 111.130617,211.733982 111.967654,210.230885 C112.504753,209.259115 112.727963,207.546283 112.783765,205.595752 C112.755864,205.658673 112.734938,205.714602 112.714012,205.756549 Z" id="Shape"></path>
                    <path d="M85.5103086,208.699823 C86.223617,207.26348 86.8388574,205.78028 87.3517901,204.260442 C87.3517901,204.260442 84.1780247,205.008496 79.1418519,199.031062 C75.4798148,194.675575 75.2705556,186.446991 75.7937037,181.084779 C74.852037,184.265752 73.3662963,197.534956 78.3954938,203.512389 C81.7017901,207.427434 84.1780247,208.455133 85.5103086,208.699823 Z" id="Shape"></path>
                    <path d="M75.7867284,167.249292 C76.1151194,170.933206 76.238541,174.632593 76.1564198,178.330265 C76.2520111,177.745626 76.380091,177.16679 76.5400617,176.59646 C77.4817284,173.422478 76.5400617,162.767965 76.5400617,162.767965 C76.5400617,162.767965 76.7283951,155.287434 75.235679,152.861504 C73.742963,150.435575 70.5412963,136.600088 70.5412963,136.600088 C70.5412963,136.600088 70.5412963,131.923009 67.9325309,129.49708 C65.3237654,127.07115 63.642716,117.535221 63.642716,117.535221 C62.1168814,115.15012 61.4590483,112.310321 61.7803086,109.495398 C62.3383333,104.82531 58.6065432,99.7776991 58.6065432,99.7776991 L52.2659877,79.5872566 L46.3020988,64.4514159 L42.94,73.2323009 C42.94,73.2323009 42.8911728,74.3369027 42.8283951,76.070708 L45.5557407,68.9327434 L51.5196296,84.0755752 L57.8601852,104.259027 C57.8601852,104.259027 61.5919753,109.306637 61.0339506,113.983717 C60.7120149,116.796464 61.3699622,119.634285 62.896358,122.016549 C62.896358,122.016549 64.5774074,131.552478 67.1861728,133.978407 C69.7949383,136.404336 69.8437654,141.081416 69.8437654,141.081416 C69.8437654,141.081416 73.0175309,154.916903 74.5102469,157.342832 C76.002963,159.768761 75.7867284,167.249292 75.7867284,167.249292 Z" id="Shape"></path>
                </g>
                <path d="M467.667239,155.346748 L466.248301,162.054827 L466.333437,165.037723 L466.390195,167.243966 L458.444139,168 L457.557302,166.41233 C455.918428,163.539402 452.52007,157.690452 451.413298,156.790085 C449.951791,155.594177 447.340944,136.940768 450.476799,138.047327 C452.387452,138.763526 453.956866,140.139458 454.882603,141.909971 C454.882603,141.909971 470.448359,143.662594 467.667239,155.346748 Z" id="Shape" fill="#FFCDD3"></path>
                <path d="M466,167.191538 L457.906527,168 L457,166.376045 C458.160355,165.216078 461.474617,162.579788 465.93473,164.970024 L466,167.191538 Z" id="Shape" fill="#000000" opacity="0.1"></path>
                <path d="M468,171.447188 L457.79017,174 L457.575299,172.376825 L457,168.031141 C457,168.031141 461.027095,162.305759 466.870195,166.592418 L467.376181,168.805839 L468,171.447188 Z" id="Shape" fill="#DCE6F2"></path>
                <path d="M302,156.054241 L290.95351,162 C290.95351,162 290.530813,161.126452 289.953126,159.886579 C288.896383,157.681576 287.332403,154.356459 286.90266,153.165899 C286.24748,151.334267 281.625989,149.023593 281.625989,149.023593 C270.051127,137.95631 283.84515,128.445913 283.84515,128.445913 C291.143724,113.757635 299.287692,133.433588 299.287692,133.433588 C299.287692,133.433588 300.414885,143.803442 299.618805,144.500871 C298.822725,145.1983 298.822725,148.02324 298.822725,148.02324 C299.879168,150.061745 300.769711,152.182021 301.485718,154.363504 C301.816831,155.420215 302,156.054241 302,156.054241 Z" id="Shape" fill="#FFCDD3"></path>
                <path d="M302,155.827922 L290.996491,162 C290.996491,162 290.575439,161.093202 290,159.806133 C291.550877,158.453249 297.066667,153.794939 298.877193,154.007013 C299.743139,154.11886 300.617596,154.140906 301.487719,154.072829 C301.817544,155.169762 302,155.827922 302,155.827922 Z" id="Shape" fill="#000000" opacity="0.1"></path>
                <path d="M303,159.157014 L290.454893,165 L290.206124,162.447891 L290,160.661415 C290,160.661415 297.264079,154.778133 299.410607,155.006479 C300.496958,155.157752 301.600909,155.157752 302.687261,155.006479 L302.829415,157.142191 L303,159.157014 Z" id="Shape" fill="#DCE6F2"></path>
                <path d="M437,200.276944 C437,200.276944 383.196574,206.277939 393.252374,203.04238 C400.245281,200.78855 403.042444,196.384594 403.615863,191.503601 C404.09138,187.41767 403.028458,182.999887 401.615891,179.197413 C400.34526,175.841403 398.733289,172.621598 396.804771,169.587525 C396.804771,169.587525 437.93705,147.215152 429.671434,167.513448 C428.403641,170.590076 427.618381,173.840032 427.342796,177.150991 C427.091096,180.439121 427.448943,183.745053 428.398725,186.906064 C429.956514,192.065219 432.934503,196.694571 437,200.276944 Z" id="Shape" fill="#FFCDD3"></path>
                <path d="M429.910855,167.762522 C428.642707,170.92051 427.857227,174.25641 427.581564,177.654925 C423.706407,180.954758 419.453527,180.741866 413.99753,180.741866 C409.800609,180.741866 405.163011,181.770846 401.812469,179.719982 C400.541482,176.275224 398.929059,172.970273 397,169.855965 C397,169.855965 438.143815,146.891965 429.910855,167.762522 Z" id="Shape" fill="#000000" opacity="0.1"></path>
                <circle id="Oval" fill="#FFCDD3" cx="413" cy="159" r="22"></circle>
                <path d="M437,201.154993 C437,201.154993 383.196574,207.352555 393.252374,204.011012 C400.245281,201.683357 403.042444,197.135147 403.615863,192.094273 C406.294146,189.138293 411.678684,186.996279 415.13318,185.861011 C418.30107,184.772022 421.722035,184.714638 424.92325,185.69679 C426.179154,186.079078 427.373583,186.646763 428.468654,187.381841 C430.012734,192.68896 432.965558,197.45605 437,201.154993 Z" id="Shape" fill="#000000" opacity="0.1"></path>
                <path d="M468,170.690179 L457.226729,173 L457,171.531328 C460.035239,167.993162 463.860372,167.565912 467.341755,168.306924 L468,170.690179 Z" id="Shape" fill="#000000" opacity="0.1"></path>
                <path d="M303,159.041096 L290.252778,165 L290,162.39726 C294.557222,159.849315 302.191111,157.226027 302.855556,157 L303,159.041096 Z" id="Shape" fill="#000000" opacity="0.1"></path>
                <path d="M458,335.718909 C437.268686,338.932379 407.764826,343.123564 403.082888,341.721944 C399.200984,340.559625 386.79698,340.682694 376,341.038227 C376.090439,335.725746 376.187834,332.204604 376.187834,332.204604 L456.539068,324 C456.539068,324 456.455587,327.630537 458,335.718909 Z" id="Shape" fill="#000000" opacity="0.1"></path>
                <path d="M480,331.310599 C480,331.310599 411.316754,343.094489 403.938835,340.849605 C396.560915,338.604722 358.726331,341.038427 358.726331,341.038427 C341.695517,352.43768 348.807439,335.611544 348.807439,335.611544 C348.807439,335.611544 347.309456,326.827825 349.367433,319.722524 C350.740204,314.51056 351.676755,309.193566 352.167403,303.826511 C352.167403,303.826511 351.796407,292.637061 353.854384,289.993553 C355.912361,287.350046 358.341335,268.677651 358.341335,268.677651 C358.341335,268.677651 360.217314,255.963638 360.028316,253.159282 C359.839318,250.354926 360.58831,242.50133 360.58831,242.50133 L363.031283,229.437647 C349.031437,227.570407 306.331905,201.394087 306.331905,201.394087 C304.273928,192.603375 288.363103,172.02178 288.363103,172.02178 C288.131756,170.292203 287.692247,168.596857 287.054117,166.97254 C285.927129,163.979363 302.775944,158 302.775944,158 C302.775944,158 315.312807,173.329547 317.930778,177.44167 C320.548749,181.553793 329.536651,189.22556 329.536651,189.22556 C330.931891,189.082249 332.341347,189.266649 333.652606,189.764052 C333.729605,189.764052 333.792604,189.806013 333.869603,189.826993 C333.946602,189.847973 333.869603,189.826993 333.869603,189.826993 C338.069557,191.288615 342.269511,194.631463 342.269511,194.631463 C349.010437,194.260812 353.686386,198.932408 353.686386,198.932408 C353.686386,198.932408 361.386301,197.813463 362.667287,199.12123 C363.948273,200.428997 370.528201,199.12123 370.528201,199.12123 C370.528201,199.12123 377.080129,185.281279 381.385082,189.330461 C385.690035,193.379643 403.952834,193.162848 403.952834,193.162848 C406.388808,189.931894 412.310743,187.617076 416.013702,186.421204 C419.184771,185.35458 422.609168,185.298375 425.813595,186.260355 C427.194885,186.653468 428.497496,187.282871 429.663552,188.120602 L440.744431,198.960382 C440.744431,198.960382 443.929396,194.848259 443.5444,193.911142 C443.159404,192.974026 447.289359,192.232725 447.289359,192.232725 C447.289359,192.232725 452.714299,190.547314 454.772277,189.987841 C456.830254,189.428369 458.720233,191.652272 458.888232,191.848087 C458.818232,191.610311 457.411248,187.085577 457.957242,183.630835 C458.503236,180.176092 455.710266,176.896184 455.710266,176.896184 C462.262195,160.811349 477.046032,174.28065 477.046032,174.28065 C477.046032,174.28065 478.733014,183.071362 477.23503,186.435191 C475.737047,189.799019 478.733014,196.9253 478.355018,198.77156 C477.977022,200.617819 479.10401,203.820799 479.10401,207.37345 C479.10401,210.9261 477.23503,217.66075 476.108043,220.660922 C474.981055,223.661093 465.965154,230.34679 465.965154,230.34679 C465.965154,230.34679 465.39816,241.004741 461.471203,247.172926 C457.544246,253.34111 459.97322,274.447211 459.97322,274.447211 C459.97322,274.447211 463.718179,290.902696 468.373128,296.126771 C473.028076,301.350845 480,331.310599 480,331.310599 Z" id="Shape" fill="#C3C3C3"></path>
                <path d="M379.494989,208 C379.494989,208 377.407086,202.080537 375.510929,201.536913 C373.620023,200.880028 371.778767,200.101933 370,199.208054 L371.221495,197 C371.221495,197 378.358715,198.845638 379.494989,200.818792 C380.631263,202.791946 379.494989,208 379.494989,208 Z" id="Shape" fill="#000000" opacity="0.1"></path>
                <path d="M342,194.630182 C341.629675,196.40796 325,198 325,198 L333.38471,190 L333.594328,190.066335 C333.594328,190.066335 333.594328,190.066335 333.594328,190.066335 C337.842581,191.45937 342,194.630182 342,194.630182 Z" id="Shape" fill="#000000" opacity="0.1"></path>
                <circle id="Oval" fill="#575988" cx="293.5" cy="168.5" r="1.5"></circle>
                <circle id="Oval" fill="#575988" cx="295.5" cy="171.5" r="1.5"></circle>
                <circle id="Oval" fill="#575988" cx="297.5" cy="174.5" r="1.5"></circle>
                <circle id="Oval" fill="#575988" cx="299.5" cy="177.5" r="1.5"></circle>
                <circle id="Oval" fill="#575988" cx="475" cy="177" r="1"></circle>
                <circle id="Oval" fill="#575988" cx="476" cy="180" r="1"></circle>
                <circle id="Oval" fill="#575988" cx="476" cy="183" r="1"></circle>
                <path d="M380.000502,259.000664 C379.83198,258.782677 422.131107,312.302036 455,281.375989 C455,281.361926 403.095095,288.428928 380.000502,259.000664 Z" id="Shape" fill="#000000" opacity="0.1"></path>
                <path d="M355,286 C355,286 380.343373,286.694899 383,293.894053 L383,301.392013 C381.534951,302.202662 379.749185,302.202662 378.284137,301.392013 C375.725904,300.002215 360.404618,292.358326 355,296.034341 L355,286 Z" id="Shape" fill="#000000" opacity="0.1"></path>
                <path d="M356,286 C356,286 380.441732,286.64219 383,293.398852 L383,300.428787 C381.586353,301.190404 379.864041,301.190404 378.450394,300.428787 C375.991339,299.151238 361.208661,291.936845 356,295.407405 L356,286 Z" id="Shape" fill="#ADADAD"></path>
                <path d="M369,232 C369,232 371.876846,239.528578 378.75202,249.013735 C383.002531,254.817596 388.152447,259.879119 394,264 C394,264 369.417944,235.516172 369,232 Z" id="Shape" fill="#000000" opacity="0.1"></path>
                <path d="M361,202 C361,202 365.182156,219.931034 376,226 L361,202 Z" id="Shape" fill="#000000" opacity="0.1"></path>
                <path d="M354.365082,204.005525 C354.26282,203.677351 350.724558,218.048625 368,226 C367.993183,226 360.657596,223.504512 354.365082,204.005525 Z" id="Shape" fill="#000000" opacity="0.1"></path>
                <path d="M464.006254,192.01126 C463.73141,192.01126 472.595118,197.476865 475,200 C475,200.019936 469.214541,191.651768 464.006254,192.01126 Z" id="Shape" fill="#000000" opacity="0.1"></path>
                <path d="M407.552873,180.247247 C407.867753,181.395685 408.252606,182.656165 409.28821,183.258395 C409.942904,183.573325 410.661038,183.733831 411.387409,183.727574 C418.174818,184.147734 425.235122,184.427841 431.518723,181.82985 C432.688478,181.413102 433.73837,180.715845 434.576556,179.799076 C435.689131,178.433555 435.906048,176.577847 436.353877,174.897206 C437.235541,171.570938 439.110825,168.594803 440.468306,165.436599 C442.742787,160.082374 443.5052,154.206104 442.672465,148.44812 C442.497584,146.679326 441.915583,144.975133 440.972114,143.469221 C439.166803,140.899241 435.892054,139.855843 433.505965,137.811064 C431.119875,135.766284 429.594458,132.63609 426.816518,131.095503 C424.311475,129.694969 421.218656,129.870035 418.419724,130.346217 C412.86828,131.293609 407.548471,133.292437 402.745708,136.235463 C401.136323,137.229842 399.365998,138.371277 397.504709,138.021144 C395.881329,137.713026 394.705778,136.347506 393.656178,135.066017 C392.326839,138.119561 391.753159,141.448965 391.983817,144.771718 C392.055153,145.258572 392.038563,145.75429 391.934836,146.235276 C391.704681,146.817532 391.351401,147.343078 390.899231,147.775864 C389.226869,149.722606 388.17727,152.803781 389.835637,154.778534 C390.53537,155.63286 391.66194,156.102039 392.361673,156.97037 C393.621192,158.538968 393.194355,160.786825 393.166365,162.789589 C393.091525,163.48507 393.265039,164.184618 393.656178,164.764342 C394.285938,165.527633 395.4335,165.590657 396.406128,165.422593 C397.378757,165.254529 398.372378,164.925404 399.331012,165.142486 C400.376187,165.490835 401.273509,166.181609 401.878039,167.103234 C405.012843,171.059743 406.237375,175.478428 407.552873,180.247247 Z" id="Shape" fill="#2D293D"></path>
                <g id="Group" opacity="0.1" transform="translate(388.000000, 134.000000)" fill="#000000">
                    <path d="M46.4401471,43.7394366 C45.6122108,44.6613882 44.5751566,45.3625863 43.4197059,45.7816901 C37.1991176,48.415493 30.2389706,48.1126761 23.5345588,47.6830986 C22.8172534,47.6951674 22.107134,47.5359917 21.4610294,47.2183099 C20.445,46.6056338 20.0786765,45.3450704 19.7469118,44.1901408 C18.4475,39.3591549 17.2379412,34.9507042 14.1414706,30.9366197 C13.5443329,30.0097854 12.6579833,29.315106 11.6255882,28.9647887 C10.6786765,28.7464789 9.69720588,29.0774648 8.73647059,29.2464789 C7.77573529,29.415493 6.66294118,29.3521127 6.02014706,28.584507 C5.63379088,28.0015058 5.46239851,27.298004 5.53632353,26.5985915 C5.53632353,24.584507 5.97867647,22.3169014 4.74147059,20.7464789 C4.05029412,19.8661972 2.95823529,19.4014085 2.23941176,18.5422535 C1.21647059,17.2957746 1.24411765,15.6126761 1.81779412,14.0422535 C0.642794118,15.943662 0.131323529,18.3873239 1.50676471,20.0422535 C2.19794118,20.9084507 3.31073529,21.3732394 4.00191176,22.2535211 C5.23911765,23.8239437 4.82441176,26.0915493 4.79676471,28.1056338 C4.72283969,28.8050462 4.89423206,29.5085481 5.28058824,30.0915493 C5.90264706,30.8591549 7.03617647,30.9225352 7.99691176,30.7535211 C8.95764706,30.584507 9.93911765,30.2535211 10.8860294,30.471831 C11.9184245,30.8221483 12.804774,31.5168276 13.4019118,32.443662 C16.4983824,36.4577465 17.7079412,40.8943662 19.0073529,45.6971831 C19.3183824,46.8450704 19.6985294,48.1126761 20.7214706,48.7253521 C21.3675751,49.043034 22.0776945,49.2022097 22.795,49.1901408 C29.4994118,49.6197183 36.4733824,49.8943662 42.6801471,47.2887324 C43.8355977,46.8696286 44.8726519,46.1684305 45.7005882,45.2464789 C46.1196849,44.7018846 46.4424522,44.0870577 46.6544118,43.4295775 C46.5852941,43.5352113 46.5161765,43.6408451 46.4401471,43.7394366 Z" id="Shape"></path>
                    <path d="M3.64941176,11.0915493 C3.95552558,10.7673675 4.19104911,10.3810157 4.34058824,9.95774648 C4.44304707,9.47404117 4.45943451,8.97552181 4.38897059,8.48591549 C4.20682951,5.74135784 4.55676722,2.98711324 5.41882353,0.38028169 L5.30132353,0.232394366 C3.98771339,3.30303817 3.42102594,6.65139422 3.64941176,9.99295775 C3.68393114,10.3583104 3.68393114,10.7261966 3.64941176,11.0915493 Z" id="Shape"></path>
                </g>
                <path d="M403,193.491604 C403,193.491604 430.527701,197.192682 433,193" id="Shape" fill="#000000" opacity="0.1"></path>
                <path d="M457,182 C457,182 472.572383,182 476,188" id="Shape" fill="#000000" opacity="0.1"></path>
            </g>
        </g>
    </g>
</svg>
