
<svg width="104px" height="118px" viewBox="0 0 104 118" version="1.1" xmlns="http://www.w3.org/2000/svg" xmlns:xlink="http://www.w3.org/1999/xlink">
    <!-- Generator: Sketch 49.3 (51167) - http://www.bohemiancoding.com/sketch -->
    <desc>Created with Sketch.</desc>
    <defs></defs>
    <g id="Page-1" stroke="none" stroke-width="1" fill="none" fill-rule="evenodd">
        <g id="Artboard-3" transform="translate(-606.000000, -498.000000)" fill-rule="nonzero" stroke="#000000">
            <g id="eang-logo" transform="translate(612.000000, 504.000000)">
                <g id="Shape" stroke-width="11">
                    <polygon points="45.8240194 0.0383653846 91.9509927 18.2621474 87.4913317 79.4791667 46.0786344 104.890064 4.41132203 79.2225 0.0793026634 18.3902564"></polygon>
                </g>
                <path d="M40.2918285,60.775862 L41.7133316,60.6206896 L41.8148676,64.8103448 C37.9564826,65.6034523 34.5381401,66 31.5597377,66 C27.8028891,66 25.1037525,64.9482864 23.4622466,62.8448275 C21.8207406,60.7413689 21,57.3793334 21,52.7586207 C21,43.5861611 24.6721797,39 32.0166495,39 C39.1242007,39 42.6779231,42.9482363 42.6779231,50.8448276 L42.3225473,54.8793104 L26.5844766,54.8793104 C26.6183221,57.017252 27.0752292,58.5862018 27.9552118,59.5862068 C28.8351944,60.586212 30.4766758,61.0862068 32.879705,61.0862068 C35.2827342,61.0862068 37.7534174,60.9827597 40.2918285,60.775862 Z M37.2457502,50.5344827 C37.2457502,47.982746 36.848072,46.1982809 36.0527031,45.1810346 C35.2573343,44.163788 33.9119965,43.6551725 32.0166495,43.6551725 C30.1213024,43.6551725 28.7421198,44.1896499 27.8790599,45.2586208 C27.0160002,46.3275915 26.5675542,48.0861947 26.5337086,50.5344827 L37.2457502,50.5344827 Z M68.7662095,47.5344827 L68.7662095,59.3275863 C68.8000548,60.0862106 68.9946634,60.6465498 69.350041,61.0086206 C69.7054185,61.3706914 70.2553996,61.6034478 71,61.7068965 L70.8476961,66 C67.9369848,66 65.6862939,65.3620753 64.0955562,64.0862069 C61.3879176,65.3620753 58.663397,66 55.9219131,66 C50.8789362,66 48.3574855,63.2586481 48.3574855,57.7758622 C48.3574855,55.1551594 49.0428463,53.2586265 50.4135883,52.0862069 C51.7843304,50.9137872 53.89118,50.2068979 56.7342007,49.9655172 L63.2832687,49.3965517 L63.2832687,47.5344827 C63.2832687,46.1551656 62.987125,45.189658 62.3948292,44.6379311 C61.8025333,44.0862041 60.9310251,43.8103449 59.7802787,43.8103449 C57.6141678,43.8103449 54.9065698,43.9482746 51.6574036,44.224138 L50.0328285,44.3275863 L49.8297567,40.3448276 C53.5189142,39.4482714 56.9118729,39 60.0087346,39 C63.1055962,39 65.3393646,39.6810277 66.7101067,41.0431035 C68.0808487,42.4051792 68.7662095,44.5689508 68.7662095,47.5344827 Z M57.3941841,53.9482759 C55.0588459,54.1551736 53.8911943,55.448264 53.8911943,57.8275863 C53.8911943,60.2069084 54.923466,61.3965516 56.9880403,61.3965516 C58.6803146,61.3965516 60.4740981,61.1206925 62.3694452,60.5689654 L63.2832687,60.2586206 L63.2832687,53.3793104 L57.3941841,53.9482759 Z" id="ea" stroke-width="3" fill="#000000"></path>
            </g>
        </g>
    </g>
</svg>
