
<svg width="788px" height="730px" viewBox="0 0 788 730" version="1.1" xmlns="http://www.w3.org/2000/svg" xmlns:xlink="http://www.w3.org/1999/xlink">
    <!-- Generator: Sketch 49.3 (51167) - http://www.bohemiancoding.com/sketch -->
    <desc>Created with Sketch.</desc>
    <defs>
        <linearGradient x1="49.99824%" y1="100%" x2="49.99824%" y2="0%" id="linearGradient-1">
            <stop stop-color="#808080" stop-opacity="0.25" offset="0%"></stop>
            <stop stop-color="#808080" stop-opacity="0.12" offset="54%"></stop>
            <stop stop-color="#808080" stop-opacity="0.1" offset="100%"></stop>
        </linearGradient>
        <linearGradient x1="19180%" y1="16304%" x2="19180%" y2="0%" id="linearGradient-2">
            <stop stop-color="#808080" stop-opacity="0.25" offset="0%"></stop>
            <stop stop-color="#808080" stop-opacity="0.12" offset="54%"></stop>
            <stop stop-color="#808080" stop-opacity="0.1" offset="100%"></stop>
        </linearGradient>
        <linearGradient x1="56367%" y1="21547%" x2="56367%" y2="88%" id="linearGradient-3">
            <stop stop-color="#808080" stop-opacity="0.25" offset="0%"></stop>
            <stop stop-color="#808080" stop-opacity="0.12" offset="54%"></stop>
            <stop stop-color="#808080" stop-opacity="0.1" offset="100%"></stop>
        </linearGradient>
        <linearGradient x1="63988%" y1="47030%" x2="63988%" y2="25570%" id="linearGradient-4">
            <stop stop-color="#808080" stop-opacity="0.25" offset="0%"></stop>
            <stop stop-color="#808080" stop-opacity="0.12" offset="54%"></stop>
            <stop stop-color="#808080" stop-opacity="0.1" offset="100%"></stop>
        </linearGradient>
        <linearGradient x1="45370%" y1="78090%" x2="45370%" y2="65004%" id="linearGradient-5">
            <stop stop-color="#808080" stop-opacity="0.25" offset="0%"></stop>
            <stop stop-color="#808080" stop-opacity="0.12" offset="54%"></stop>
            <stop stop-color="#808080" stop-opacity="0.1" offset="100%"></stop>
        </linearGradient>
        <linearGradient x1="48873%" y1="78090%" x2="48873%" y2="65004%" id="linearGradient-6">
            <stop stop-color="#808080" stop-opacity="0.25" offset="0%"></stop>
            <stop stop-color="#808080" stop-opacity="0.12" offset="54%"></stop>
            <stop stop-color="#808080" stop-opacity="0.1" offset="100%"></stop>
        </linearGradient>
        <linearGradient x1="25949%" y1="69831%" x2="35792%" y2="69831%" id="linearGradient-7">
            <stop stop-color="#808080" stop-opacity="0.25" offset="0%"></stop>
            <stop stop-color="#808080" stop-opacity="0.12" offset="54%"></stop>
            <stop stop-color="#808080" stop-opacity="0.1" offset="100%"></stop>
        </linearGradient>
        <linearGradient x1="23532%" y1="69690%" x2="23532%" y2="56604%" id="linearGradient-8">
            <stop stop-color="#808080" stop-opacity="0.25" offset="0%"></stop>
            <stop stop-color="#808080" stop-opacity="0.12" offset="54%"></stop>
            <stop stop-color="#808080" stop-opacity="0.1" offset="100%"></stop>
        </linearGradient>
        <linearGradient x1="27035%" y1="69690%" x2="27035%" y2="56604%" id="linearGradient-9">
            <stop stop-color="#808080" stop-opacity="0.25" offset="0%"></stop>
            <stop stop-color="#808080" stop-opacity="0.12" offset="54%"></stop>
            <stop stop-color="#808080" stop-opacity="0.1" offset="100%"></stop>
        </linearGradient>
        <linearGradient x1="31981%" y1="69688%" x2="31981%" y2="56194%" id="linearGradient-10">
            <stop stop-color="#808080" stop-opacity="0.25" offset="0%"></stop>
            <stop stop-color="#808080" stop-opacity="0.12" offset="54%"></stop>
            <stop stop-color="#808080" stop-opacity="0.1" offset="100%"></stop>
        </linearGradient>
        <linearGradient x1="84016%" y1="68209%" x2="97220%" y2="68209%" id="linearGradient-11">
            <stop stop-color="#808080" stop-opacity="0.25" offset="0%"></stop>
            <stop stop-color="#808080" stop-opacity="0.12" offset="54%"></stop>
            <stop stop-color="#808080" stop-opacity="0.1" offset="100%"></stop>
        </linearGradient>
    </defs>
    <g id="Page-1" stroke="none" stroke-width="1" fill="none" fill-rule="evenodd">
        <g id="undraw_JavaScript_Frameworks_x21l">
            <rect id="Rectangle-path" fill="url(#linearGradient-1)" fill-rule="nonzero" x="136.93" y="199.62" width="284.09" height="270.68"></rect>
            <rect id="Rectangle-path" fill="#FFFFFF" fill-rule="nonzero" x="143.02" y="205.71" width="271.9" height="258.49"></rect>
            <rect id="Rectangle-path" fill="#425B9A" fill-rule="nonzero" x="152.78" y="215.47" width="252.39" height="238.98"></rect>
            <polygon id="Shape" fill="#41B883" fill-rule="nonzero" points="325.16 268.55 355.96 268.55 278.96 401.36 201.96 268.55 260.86 268.55 278.95 299.35 296.66 268.55"></polygon>
            <polygon id="Shape" fill="#41B883" fill-rule="nonzero" points="201.98 268.55 278.98 401.36 355.98 268.55 325.18 268.55 278.98 348.24 232.4 268.55"></polygon>
            <polygon id="Shape" fill="#35495E" fill-rule="nonzero" points="232.39 268.55 278.97 348.62 325.17 268.55 296.68 268.55 278.97 299.35 260.88 268.55"></polygon>
            <g id="Group" opacity="0.5" transform="translate(5.000000, 0.000000)" fill="url(#linearGradient-2)" fill-rule="nonzero">
                <rect id="Rectangle-path" x="0.25" y="0" width="373.1" height="163.04"></rect>
            </g>
            <rect id="Rectangle-path" fill="#FFFFFF" fill-rule="nonzero" x="10.12" y="2.09" width="363.34" height="156.07"></rect>
            <rect id="Rectangle-path" fill="#425B9A" fill-rule="nonzero" x="20.56" y="11.85" width="342.46" height="136.56"></rect>
            <path d="M304.58,56.7 L314.84,56.76 L294.21,84.76 C293.582013,85.4412363 293.035036,86.1929106 292.58,87 C291.735952,89.3880359 291.067506,91.8345483 290.58,94.32 L281.19,94.32 C281.19,94.32 282.65,89.08 282.59,86.32 C282.54,83.88 281.29,81.45 280.59,79 C279.89,76.55 278.93,71.68 278.93,71.68 L288.58,71.68 L289.91,77 L304.58,56.7" id="Shape" fill="#FFFFFF" fill-rule="nonzero"></path>
            <path d="M285.14,62.15 C287.03,63.29 288.2,69.59 288.2,69.59 C288.2,69.59 278.29,69.74 272.9,69.74 L268.24,69.74 L262.58,94.36 L253.93,94.36 C253.93,94.36 259.31,67.6 260.59,62.75 C261,61.18 263.41,61.45 267.48,61.45 L273.98,61.45 C278.18,61.45 283.08,60.91 285.14,62.16 L285.14,62.15 Z M244.86,74.16 C244.964328,72.9519299 244.642368,71.7454621 243.95,70.75 C242.95,69.19 242,68.83 239.34,68.75 C231.82,68.51 231.97,74.08 231.97,74.08 L244.86,74.16 Z M253.01,67.78 C254.11,71.78 252.01,81.09 252.01,81.09 C252.01,81.09 241.01,80.91 235.01,81.09 C233.14,81.15 230.91,80.89 230.35,81.76 C229.57,82.98 230.64,84.85 231.54,85.64 C232.44,86.43 234.61,86.64 235.34,86.75 C240.21,87.37 250.42,86.91 250.42,86.91 L248.65,94.74 C248.65,94.74 234.23,95.46 227.02,93.74 C225.632272,93.4412711 224.360939,92.7465533 223.36,91.74 C223.11,91.47 222.9,91.11 222.67,90.8 C222.272357,90.2665513 221.936855,89.6894885 221.67,89.08 C220.02,84.69 221.86,76.28 223.67,71.78 C223.88,71.26 224.14,70.6 224.42,70.03 C224.7,69.46 225.06,68.54 225.33,68.12 C225.6,67.7 225.75,67.64 225.94,67.37 C226.164071,67.054397 226.404396,66.7506539 226.66,66.46 C227.359324,65.7081866 228.140891,65.0373132 228.99,64.46 C231.99,62.21 237.43,60.46 243.99,61.13 C246.45,61.38 250.16,62.26 251.99,64.79 C252.463915,65.7375171 252.800622,66.7476372 252.99,67.79 L253.01,67.78 Z M213.33,61.43 L221.72,61.43 C221.72,61.43 217.04,83.61 214.66,94.43 L205.01,94.43 C198.27,94.43 192.26,95.27 189.7,90.43 C187.14,85.59 189.59,78.03 190.7,72.79 C191.49,69.08 193.14,61.51 193.14,61.51 L201.83,61.43 C201.83,61.43 199.37,73.23 198.35,79.12 C197.98,81.23 197.23,83.22 198.02,84.78 C198.81,86.34 199.82,86.37 203.02,86.44 C204.02,86.44 207.35,86.44 207.35,86.44 L213.35,61.44 L213.33,61.43 Z M174.08,77.44 C174.96,74.32 176.24,70.94 176.08,68.12 C175.804775,65.414272 174.173779,63.0336959 171.75,61.8 C167.780145,60.4804378 163.405532,61.5093033 160.44,64.46 C158.08,67.02 157.28,70 156.44,74.11 C155.82,77.16 155.31,80.38 156.44,82.76 C158.44,86.97 164.69,86.05 171.44,86.09 C172.44,83.41 173.26,80.41 174.1,77.44 L174.08,77.44 Z M185.73,65.13 C186.73,72.13 183.01,79.79 180.48,86.48 C183.06,86.71 185.33,86.48 185.48,86.64 C185.63,86.8 183.75,94.64 183.09,94.64 C181.09,94.69 174.25,94.75 171.42,94.75 C162.18,94.75 153.53,95.35 149.13,90.75 C147.35158,88.6730639 146.197113,86.1353175 145.8,83.43 C145.434199,79.6305858 145.773218,75.7962858 146.8,72.12 C147.512803,69.0990605 148.633065,66.1890712 150.13,63.47 C154.01,56.69 160.77,51.66 172.13,52.82 C174.692065,53.141994 177.173216,53.9317591 179.45,55.15 C179.59,55.23 180.06,55.61 180.17,55.68 C182.83,57.37 185.26,61.42 185.77,65.14 L185.73,65.13 Z M144.84,61.51 C144.28,64.06 143.72,66.94 143.13,69.46 L133.81,69.46 C134.53,66.67 135.08,63.9 135.81,61.46 C138.81,61.46 141.56,61.46 144.81,61.46 L144.84,61.51 Z M133.48,71.73 L142.48,71.73 C141.31,78.23 138.98,88.73 137.16,96.02 C136.02,100.59 135.26,103.92 132.16,106.34 C131.88,106.56 131.72,106.45 131.49,106.67 C130.92,107.21 128.29,107.84 126.83,108 C124.165714,108.159346 121.494286,108.159346 118.83,108 C119.59,105.21 120.45,101.87 121.13,99.37 C128.23,100.23 128.41,93.52 129.78,87.06 C130.58,83.33 132.98,73.25 133.44,71.75 L133.48,71.73 Z" id="Shape" fill="#FFFFFF" fill-rule="nonzero"></path>
            <path d="M112.51,88.7 L112.32,89.2 C109.04,95.59 103.23,99.51 94.93,99.68 C91.4927525,99.7278619 88.0844354,99.0461985 84.93,97.68 C79.8000588,95.3248296 75.5844839,91.3516503 72.93,86.37 C69.5,79.72 68.93,70.48 76.01,63.58 C76.12,63.58 75.14,65.08 75.25,65.08 L75.05,65.72 C69.91,81.82 85.75,95.61 101.14,94.03 C105.37723,93.4955965 109.336442,91.6332614 112.45,88.71" id="Shape" fill="#FFFFFF" fill-rule="nonzero"></path>
            <path d="M103.19,82 C107.065694,81.970592 110.773629,80.4148402 113.51,77.67 C111.41,82.99 105.34,86.41 97.21,85.32 C90.39,84.41 83.9,77.55 83.21,70.68 C82.72,65.68 84.46,62.68 87.34,59.07 C86.5886036,60.395786 86.0933241,61.8510938 85.88,63.36 C84.8,74.23 94.58,82 103.19,82" id="Shape" fill="#FFFFFF" fill-rule="nonzero"></path>
            <path d="M113.12,68.61 C112.52,69.99 109.05,72.61 107.52,72.93 C101.46,74.22 97.57,71.35 95.52,68.08 C95.1299767,67.3876257 94.7955908,66.6653523 94.52,65.92 C93.73,63.24 94.09,59.18 96.45,57.08 C95.7819365,58.9449861 95.6299183,60.9557727 96.01,62.9 C96.3657569,64.1399476 96.9050622,65.3196779 97.61,66.4 C98.5176512,67.7859372 99.7819649,68.9017113 101.27,69.63 C101.85074,69.9871146 102.467474,70.2820747 103.11,70.51 C104.64,70.96 107.86,72.14 113.06,68.61" id="Shape" fill="#21609B" fill-rule="nonzero"></path>
            <rect id="Rectangle-path" fill="url(#linearGradient-3)" fill-rule="nonzero" x="456.38" y="0.88" width="214.59" height="214.59"></rect>
            <rect id="Rectangle-path" fill="#FFFFFF" fill-rule="nonzero" x="462.47" y="6.97" width="202.4" height="202.4"></rect>
            <rect id="Rectangle-path" fill="#425B9A" fill-rule="nonzero" x="472.23" y="16.73" width="182.89" height="182.89"></rect>
            <polygon id="Shape" fill="#E23237" fill-rule="nonzero" points="497.72 69.52 563.77 46 631.58 69.1 620.58 156.5 563.77 188 507.77 156.93"></polygon>
            <polygon id="Shape" fill="#B52E31" fill-rule="nonzero" points="631.58 69.1 563.77 46 563.77 188 620.58 156.55 631.58 69.11"></polygon>
            <path d="M563.87,62.57 L522.71,154.15 L538.09,153.89 L546.35,133.23 L583.28,133.23 L592.28,154.15 L606.98,154.41 L563.83,62.57 L563.87,62.57 Z M563.98,91.91 L577.89,121 L551.74,121 L563.98,91.92 L563.98,91.91 Z" id="Shape" fill="#FFFFFF" fill-rule="nonzero"></path>
            <rect id="Rectangle-path" fill="url(#linearGradient-4)" fill-rule="nonzero" x="497.83" y="255.7" width="284.09" height="214.59"></rect>
            <rect id="Rectangle-path" fill="#FFFFFF" fill-rule="nonzero" x="503.93" y="261.8" width="271.9" height="202.4"></rect>
            <rect id="Rectangle-path" fill="#425B9A" fill-rule="nonzero" x="513.68" y="271.55" width="252.39" height="182.89"></rect>
            <path d="M563.78,362.59 C563.78,374.16 575.01,385 592.78,391.14 C589.17,409.03 592.04,423.48 601.78,429.14 C611.78,434.95 626.73,431 640.94,418.65 C654.72,430.58 668.66,435.31 678.42,429.65 C688.42,423.88 691.55,408.48 687.95,390.01 C706.52,383.94 716.95,374.76 716.95,363.01 C716.95,351.71 705.7,341.9 688.15,335.79 C692.15,316.57 688.86,302.48 678.72,296.59 C668.95,290.91 654.81,295.79 640.72,307.94 C626.18,294.94 612.2,290.94 602.04,296.79 C592.24,302.42 589.4,317.11 592.91,335.36 C575.74,341.37 563.81,351.33 563.78,362.59 Z" id="Shape" fill="#FFFFFF" fill-rule="nonzero"></path>
            <path d="M684.44,341.85 C682.993333,341.35 681.533333,340.886667 680.06,340.46 C680.306667,339.466667 680.536667,338.466667 680.75,337.46 C684.12,321.38 681.99,308.4 674.6,304.11 C667.52,299.99 655.89,304.23 644.14,314.39 C642.98,315.396667 641.846667,316.43 640.74,317.49 C640.006667,316.776667 639.256667,316.08 638.49,315.4 C626.24,304.45 613.94,299.82 606.49,304.07 C599.39,308.15 597.25,320.33 600.18,335.6 C600.473333,337.113333 600.806667,338.616667 601.18,340.11 C599.44,340.6 597.75,341.11 596.18,341.68 C581.76,346.68 572.54,354.5 572.51,362.68 C572.51,371.11 582.33,379.6 597.32,384.78 C598.533333,385.2 599.76,385.586667 601,385.94 C600.593333,387.546667 600.233333,389.163333 599.92,390.79 C597.03,405.79 599.21,417.68 606.27,421.79 C613.56,426.03 625.83,421.73 637.81,411.34 C638.756667,410.52 639.706667,409.65 640.66,408.73 C641.853333,409.883333 643.076667,411.006667 644.33,412.1 C655.86,422.1 667.27,426.1 674.33,422.1 C681.64,417.9 684.05,405.1 681.02,389.56 C680.786667,388.373333 680.52,387.16 680.22,385.92 C681.08,385.666667 681.923333,385.406667 682.75,385.14 C698.36,380 708.58,371.65 708.58,363.1 C708.58,354.91 699.14,346.95 684.46,341.85 L684.44,341.85 Z" id="Shape" fill="#53C1DE" fill-rule="nonzero"></path>
            <path d="M680.93,379.57 C680.19,379.81 679.42,380.05 678.64,380.28 C676.7587,374.371469 674.476742,368.598081 671.81,363 C674.414114,357.489 676.645786,351.809596 678.49,346 C679.88,346.41 681.23,346.84 682.49,347.29 C695.07,351.66 702.73,358.1 702.71,363.03 C702.71,368.29 694.38,375.09 680.9,379.51 L680.93,379.57 Z M675.31,390.63 C676.65,397.51 676.82,403.73 675.91,408.63 C675.09,413 673.45,415.9 671.43,417.06 C667.13,419.53 657.97,416.27 648.11,407.73 C646.976667,406.75 645.84,405.706667 644.7,404.6 C648.837751,400.046706 652.66313,395.219045 656.15,390.15 C662.350727,389.633705 668.508596,388.691481 674.58,387.33 C674.853333,388.45 675.096667,389.546667 675.31,390.62 L675.31,390.63 Z M618.72,416.43 C614.53,417.9 611.19,417.93 609.18,416.76 C604.9,414.27 603.18,404.76 605.62,391.9 C605.913333,390.386667 606.246667,388.883333 606.62,387.39 C612.661664,388.706926 618.785733,389.61234 624.95,390.1 C628.506315,395.16595 632.391334,399.992994 636.58,404.55 C635.733333,405.363333 634.866667,406.156667 633.98,406.93 C628.69,411.53 623.39,414.78 618.72,416.42 L618.72,416.43 Z M599.21,379.29 C592.58,377 587.11,374.04 583.37,370.81 C580,367.91 578.31,365.03 578.32,362.71 C578.32,357.71 585.74,351.46 598.07,347.2 C599.616667,346.666667 601.18,346.18 602.76,345.74 C604.571816,351.612101 606.769945,357.357969 609.34,362.94 C606.706158,368.584894 604.447912,374.397538 602.58,380.34 C601.44,380.013333 600.316667,379.656667 599.21,379.27 L599.21,379.29 Z M605.93,334.53 C603.41,321.45 605.14,311.6 609.42,309.14 C613.98,306.52 624.03,310.31 634.61,319.76 C635.29,320.36 635.97,321 636.61,321.65 C632.418068,326.157562 628.529543,330.938042 624.97,335.96 C618.863444,336.487108 612.797423,337.409037 606.81,338.72 C606.47,337.326667 606.163333,335.926667 605.89,334.52 L605.93,334.53 Z M664.58,349.19 C663.246667,346.89 661.873333,344.616667 660.46,342.37 C664.8,342.93 668.96,343.67 672.86,344.58 C671.594239,348.551304 670.129045,352.456262 668.47,356.28 C667.21,353.893333 665.913333,351.53 664.58,349.19 Z M640.71,325.8 C643.538328,328.893059 646.208406,332.127191 648.71,335.49 C643.376667,335.216667 638.016667,335.2 632.63,335.44 C635.28,331.96 638,328.73 640.73,325.8 L640.71,325.8 Z M616.58,349.08 C615.246667,351.393333 613.96,353.726667 612.72,356.08 C611.04,352.08 609.6,348.08 608.43,344.29 C612.31,343.43 616.43,342.74 620.77,342.21 C619.31,344.476667 617.913333,346.766667 616.58,349.08 Z M620.77,383.83 C616.560835,383.358197 612.378665,382.670626 608.24,381.77 C609.45,377.89 610.95,373.87 612.69,369.77 C613.91,372.15 615.19,374.5 616.53,376.82 C617.87,379.14 619.273333,381.476667 620.74,383.83 L620.77,383.83 Z M640.67,400.39 C637.92,397.39 635.19,394.11 632.51,390.57 C635.116667,390.683333 637.783333,390.743333 640.51,390.75 C643.236667,390.756667 645.973333,390.703333 648.72,390.59 C646.196127,393.989573 643.499238,397.257215 640.64,400.38 L640.67,400.39 Z M668.51,369.75 C670.226939,373.668792 671.738979,377.674198 673.04,381.75 C668.846461,382.677281 664.607354,383.384911 660.34,383.87 C661.786667,381.596667 663.186667,379.293333 664.54,376.96 C665.893333,374.626667 667.226667,372.226667 668.54,369.76 L668.51,369.75 Z M659.51,374.03 C657.436667,377.603333 655.25,381.106667 652.95,384.54 C648.95,384.82 644.74,384.95 640.49,384.94 C636.24,384.93 632.14,384.78 628.17,384.51 C625.83,381.07 623.623333,377.546667 621.55,373.94 C619.476667,370.333333 617.553333,366.666667 615.78,362.94 C617.58,359.22 619.52,355.553333 621.6,351.94 C623.673333,348.366667 625.883333,344.873333 628.23,341.46 C632.23,341.17 636.43,341.02 640.62,341.03 C644.81,341.04 648.99,341.22 653.03,341.54 C655.33,344.96 657.503333,348.456667 659.55,352.03 C661.596667,355.603333 663.533333,359.26 665.36,363 C663.533333,366.733333 661.573333,370.4 659.48,374 L659.51,374.03 Z M671.71,309.16 C676.26,311.8 678,322.4 675.09,336.29 C674.896667,337.196667 674.69,338.096667 674.47,338.99 C668.481292,337.613245 662.408014,336.634438 656.29,336.06 C652.797833,331.011164 648.969146,326.20359 644.83,321.67 C645.85,320.69 646.896667,319.736667 647.97,318.81 C658.04,310.1 667.44,306.68 671.71,309.16 Z" id="Shape" fill="#FFFFFF" fill-rule="nonzero"></path>
            <path d="M640.58,350.74 C647.290206,350.762128 652.711972,356.21975 652.689868,362.929956 C652.667765,369.640162 647.210163,375.061947 640.499957,375.039868 C633.78975,375.017789 628.367945,369.560206 628.39,362.85 C628.400591,359.627614 629.690845,356.541418 631.976918,354.270349 C634.26299,351.99928 637.357614,350.729374 640.58,350.74" id="Shape" fill="#53C1DE" fill-rule="nonzero"></path>
            <g id="Group" opacity="0.7" transform="translate(534.000000, 565.000000)" fill-rule="nonzero">
                <g opacity="0.1" transform="translate(35.000000, 0.000000)" fill="url(#linearGradient-5)" id="Shape">
                    <polygon points="33.37 0.04 33.37 18.59 33.37 24.77 33.37 107.2 33.37 113.39 33.37 130.9 8.64 130.9 0.4 130.9 0.4 113.39 0.4 107.2 0.4 24.77 0.4 18.59 0.4 0.04 8.64 0.04"></polygon>
                </g>
                <g opacity="0.1" fill="url(#linearGradient-6)" id="Shape">
                    <polygon points="33.34 0.04 33.34 18.59 33.34 24.77 33.34 107.2 33.34 113.39 33.34 130.9 8.61 130.9 0.36 130.9 0.36 113.39 0.36 107.2 0.36 24.77 0.36 18.59 0.36 0.04 8.61 0.04"></polygon>
                </g>
            </g>
            <g id="Group" opacity="0.7" transform="translate(53.000000, 525.000000)" fill="url(#linearGradient-7)" fill-rule="nonzero">
                <path d="M97.91,64.11 C99.8165475,56.4389373 96.8035621,48.38576 90.33,43.85 C88.5792822,42.8482113 86.8835166,41.7533076 85.25,40.57 C82.68,38.41 81.25,35.22 80.16,32.04 C77.62,24.4 76.82,15.84 72.36,8.94 C68.3,2.66 60.36,0.82 53.36,0.2 C50.81,-0.03 48.13,-0.15 45.79,0.91 C41.88,2.68 40.02,7.29 39.85,11.57 C39.68,15.85 40.79,20.08 41.07,24.36 C41.35,28.64 40.59,33.36 37.43,36.24 C34.27,39.12 29.75,39.48 25.57,40.06 C20.0839648,40.8226798 14.6939832,42.1634712 9.49,44.06 C5.12,45.65 0.26,48.52 0.05,53.16 C-0.12,56.96 2.94,59.98 5.25,63 C9.55,68.65 11.7,76.09 10.25,83 C8.8,89.91 3.8,96.14 2.9,103.3 C2.57211714,105.117966 2.82398809,106.993005 3.62,108.66 C4.32138558,109.794978 5.24691959,110.774956 6.34,111.54 C9.04,113.63 12.05,115.3 14.6,117.54 C19.92,122.25 22.81,129.1 25.03,135.86 C25.24,136.51 25.43,137.17 25.64,137.86 L20.41,137.86 C9.72916991,137.887478 1.07747847,146.53917 1.05,157.22 C1.07747847,167.90083 9.72916991,176.552522 20.41,176.58 L72.68,176.58 C83.3608301,176.552522 92.0125215,167.90083 92.04,157.22 C92.0125215,146.53917 83.3608301,137.887478 72.68,137.86 L58.35,137.86 C61.74,133.32 65.28,129.06 70.51,127.31 C75.74,125.56 82.07,126.59 86.17,122.94 C88.0878246,121.058278 89.3349906,118.599078 89.72,115.94 C90.589391,111.168308 89.7802482,106.242784 87.43,102 C85.78,99.06 83.37,96.39 82.85,93.06 C82.4,90.21 83.43,87.33 84.85,84.81 C88.78,77.61 95.77,72 97.91,64.11 Z" id="Shape"></path>
            </g>
            <path d="M106.2,529.39 C103.77,529.17 101.2,529.06 98.99,530.07 C95.27,531.75 93.5,536.15 93.33,540.23 C93.16,544.31 94.23,548.33 94.49,552.41 C94.75,556.49 94.03,560.97 91.02,563.73 C88.01,566.49 83.71,566.82 79.72,567.37 C74.4969948,568.093502 69.3651317,569.36725 64.41,571.17 C60.25,572.68 55.62,575.42 55.41,579.84 C55.25,583.45 58.17,586.34 60.36,589.22 C64.46,594.6 66.5,601.69 65.11,608.31 C63.72,614.93 58.97,620.82 58.11,627.64 C57.7978987,629.373533 58.0393032,631.161326 58.8,632.75 C59.4680926,633.829904 60.3493794,634.76223 61.39,635.49 C63.96,637.49 66.83,639.07 69.26,641.22 C74.33,645.71 77.07,652.22 79.19,658.66 C81.2736645,664.983392 82.9077369,671.446165 84.08,678 C88.45,675.19 94.08,675.23 98.76,672.95 C108.69,668.08 112.02,653.95 122.5,650.48 C127.5,648.82 133.5,649.79 137.41,646.32 C139.242364,644.51881 140.430264,642.164098 140.79,639.62 C141.607714,635.074178 140.826848,630.385447 138.58,626.35 C137.01,623.55 134.72,621.01 134.22,617.84 C133.79,615.13 134.78,612.38 136.1,609.98 C139.87,603.13 146.53,597.82 148.56,590.27 C150.370445,582.978338 147.514315,575.323591 141.37,571 C139.705266,570.04366 138.092956,568.998829 136.54,567.87 C134.1,565.81 132.7,562.78 131.69,559.74 C129.27,552.47 128.5,544.31 124.26,537.74 C120.39,531.74 112.87,530 106.2,529.39 Z" id="Shape" fill="#4DB6AC" fill-rule="nonzero"></path>
            <path d="M106.13,529.64 C106.13,529.64 115.35,653.14 91.38,674.34" id="Shape" stroke="#535461" opacity="0.6"></path>
            <rect id="Rectangle-path" fill="#425B9A" fill-rule="nonzero" x="56.36" y="660.52" width="86.64" height="36.87" rx="14.3"></rect>
            <path d="M55.44,577.57 C55.44,577.57 79,574.82 107.77,592.32" id="Shape" stroke="#535461" opacity="0.6"></path>
            <path d="M107.31,607.06 C116.867441,593.109984 131.796369,583.763555 148.52,581.26" id="Shape" stroke="#535461" opacity="0.6"></path>
            <path d="M57.74,627.8 C57.74,627.8 90.4,622.26 105.41,631.48" id="Shape" stroke="#535461" opacity="0.6"></path>
            <path d="M103.58,644.15 C103.58,644.15 120.68,636.39 139.91,642.69" id="Shape" stroke="#535461" opacity="0.6"></path>
            <g id="Group" opacity="0.7" transform="translate(218.000000, 561.000000)" fill-rule="nonzero">
                <g opacity="0.1" transform="translate(0.000000, 5.000000)" fill="url(#linearGradient-8)" id="Shape">
                    <polygon points="0.83 0.04 0.83 18.59 0.83 24.77 0.83 107.2 0.83 113.39 0.83 130.9 25.56 130.9 33.81 130.9 33.81 113.39 33.81 107.2 33.81 24.77 33.81 18.59 33.81 0.04 25.56 0.04"></polygon>
                </g>
                <g opacity="0.1" transform="translate(35.000000, 5.000000)" fill="url(#linearGradient-9)" id="Shape">
                    <polygon points="0.87 0.04 0.87 18.59 0.87 24.77 0.87 107.2 0.87 113.39 0.87 130.9 25.6 130.9 33.84 130.9 33.84 113.39 33.84 107.2 33.84 24.77 33.84 18.59 33.84 0.04 25.6 0.04"></polygon>
                </g>
                <g opacity="0.1" transform="translate(69.000000, 0.000000)" fill="url(#linearGradient-10)" id="Shape">
                    <polygon points="65.6 127.38 38.25 24.84 38.25 24.84 36.66 18.87 36.66 18.87 31.88 0.94 0.02 9.44 4.8 27.36 4.8 27.36 6.07 32.12 27.63 112.98 27.63 112.98 29.23 118.96 29.23 118.96 33.74 135.88"></polygon>
                </g>
            </g>
            <rect id="Rectangle-path" fill="#535461" fill-rule="nonzero" x="222.21" y="569.24" width="31.31" height="124.26"></rect>
            <rect id="Rectangle-path" fill="#425B9A" fill-rule="nonzero" x="222.21" y="586.85" width="31.31" height="5.87"></rect>
            <rect id="Rectangle-path" fill="#425B9A" fill-rule="nonzero" x="222.21" y="670.99" width="31.31" height="5.87"></rect>
            <rect id="Rectangle-path" fill="#000000" fill-rule="nonzero" opacity="0.1" x="245.69" y="569.24" width="7.83" height="124.26"></rect>
            <rect id="Rectangle-path" fill="#535461" fill-rule="nonzero" x="255.47" y="569.24" width="31.31" height="124.26"></rect>
            <rect id="Rectangle-path" fill="#425B9A" fill-rule="nonzero" x="255.47" y="586.85" width="31.31" height="5.87"></rect>
            <rect id="Rectangle-path" fill="#425B9A" fill-rule="nonzero" x="255.47" y="670.99" width="31.31" height="5.87"></rect>
            <rect id="Rectangle-path" fill="#000000" fill-rule="nonzero" opacity="0.1" x="278.95" y="569.24" width="7.83" height="124.26"></rect>
            <rect id="Rectangle-path" fill="#535461" fill-rule="nonzero" transform="translate(318.048100, 629.459643) rotate(-14.930000) translate(-318.048100, -629.459643) " x="302.3931" y="567.329643" width="31.31" height="124.26"></rect>
            <rect id="Rectangle-path" fill="#425B9A" fill-rule="nonzero" transform="translate(307.339019, 589.280209) rotate(-14.930000) translate(-307.339019, -589.280209) " x="291.684019" y="586.345209" width="31.31" height="5.87"></rect>
            <rect id="Rectangle-path" fill="#425B9A" fill-rule="nonzero" transform="translate(329.023161, 670.580020) rotate(-14.930000) translate(-329.023161, -670.580020) " x="313.368161" y="667.64502" width="31.31" height="5.87"></rect>
            <rect id="Rectangle-path" fill="#000000" fill-rule="nonzero" opacity="0.1" transform="translate(329.406870, 626.437394) rotate(-14.930000) translate(-329.406870, -626.437394) " x="325.49187" y="564.307394" width="7.83" height="124.26"></rect>
            <rect id="Rectangle-path" fill="#535461" fill-rule="nonzero" transform="translate(582.515000, 631.370000) rotate(-180.000000) translate(-582.515000, -631.370000) " x="566.86" y="569.24" width="31.31" height="124.26"></rect>
            <rect id="Rectangle-path" fill="#425B9A" fill-rule="nonzero" transform="translate(582.515000, 589.795000) rotate(-180.000000) translate(-582.515000, -589.795000) " x="566.86" y="586.86" width="31.31" height="5.87"></rect>
            <rect id="Rectangle-path" fill="#425B9A" fill-rule="nonzero" transform="translate(582.515000, 673.935000) rotate(-180.000000) translate(-582.515000, -673.935000) " x="566.86" y="671" width="31.31" height="5.87"></rect>
            <rect id="Rectangle-path" fill="#000000" fill-rule="nonzero" opacity="0.1" transform="translate(570.775000, 631.370000) rotate(-180.000000) translate(-570.775000, -631.370000) " x="566.86" y="569.24" width="7.83" height="124.26"></rect>
            <rect id="Rectangle-path" fill="#535461" fill-rule="nonzero" transform="translate(549.255000, 631.370000) rotate(-180.000000) translate(-549.255000, -631.370000) " x="533.6" y="569.24" width="31.31" height="124.26"></rect>
            <rect id="Rectangle-path" fill="#425B9A" fill-rule="nonzero" transform="translate(549.255000, 589.795000) rotate(-180.000000) translate(-549.255000, -589.795000) " x="533.6" y="586.86" width="31.31" height="5.87"></rect>
            <rect id="Rectangle-path" fill="#425B9A" fill-rule="nonzero" transform="translate(549.255000, 673.935000) rotate(-180.000000) translate(-549.255000, -673.935000) " x="533.6" y="671" width="31.31" height="5.87"></rect>
            <rect id="Rectangle-path" fill="#000000" fill-rule="nonzero" opacity="0.1" transform="translate(537.515000, 631.370000) rotate(-180.000000) translate(-537.515000, -631.370000) " x="533.6" y="569.24" width="7.83" height="124.26"></rect>
            <g id="Group" opacity="0.7" transform="translate(633.000000, 488.000000)" fill="url(#linearGradient-11)" fill-rule="nonzero">
                <path d="M125.44,148.52 L69.52,148.52 L70.26,142.23 C86.06,128.05 96.26,90.23 96.26,90.23 C96.0338493,90.2619867 95.8100367,90.3087535 95.59,90.37 C86.29,92.24 79.73,96.05 75.12,100.62 L77.12,83.89 C106.31,77.6 117.88,38.99 117.88,38.99 C99.25,43.12 87.64,49.52 80.43,55.58 L83.27,31 C103,37.77 123.43,1.79 123.43,1.79 L122.65,1.63 L123.03,1.38 L122.45,1.59 C100.64,-3.11 88.98,9.36 85.19,14.54 L85.47,12.13 C84.89,13.65 84.33,15.1633333 83.79,16.67 L83.79,16.73 C82.27,20.9166667 80.8566667,25.05 79.55,29.13 C78.43,32.6166667 77.3833333,36.0633333 76.41,39.47 C76.41,39.47 75.51,17.47 52.34,11.71 C52.34,11.71 54.77,59.64 73.13,51.79 C71.43,58.71 70.01,65.43 68.84,71.92 C68.0733333,76.1466667 67.4066667,80.2766667 66.84,84.31 L66.73,84.43 L66.84,84.34 L66.84,84.66 C66.3266667,88.3 65.8866667,91.8466667 65.52,95.3 C65.88,88.65 64.66,69.42 42.01,51.3 C42.01,51.3 11.92,104.23 63.24,114.64 L63.58,114.93 L63.5,114.69 L63.97,114.79 L64.18,112.07 C63.5618899,123.413458 63.6219969,134.783711 64.36,146.12 C64.41,146.9 64.47,147.66 64.52,148.4 L7.97,148.4 C-13.6,193.03 19.97,217.48 19.97,217.48 L112.66,217.48 C148.58,172.15 125.44,148.52 125.44,148.52 Z" id="Shape"></path>
            </g>
            <path d="M699.38,653.47 C699.38,653.47 684.71,589.38 717.14,506.75" id="Shape" stroke="#535461" stroke-width="3" opacity="0.6"></path>
            <path d="M642.23,634.16 L755.75,634.16 C755.75,634.16 778.14,662.73 743.39,705.16 L653.82,705.16 C653.82,705.16 621.39,675.86 642.23,634.16 Z" id="Shape" fill="#425B9A" fill-rule="nonzero"></path>
            <path d="M715.51,511 C715.51,511 726.79,490.92 753.82,497.1 C753.82,497.1 731.48,535.1 711.38,522.68 L715.51,511 Z" id="Shape" fill="#4DB6AC" fill-rule="nonzero"></path>
            <path d="M708.35,532.3 C708.35,532.3 707.48,511.77 685.09,506.36 C685.09,506.36 687.44,551.15 705.18,543.81 L708.35,532.3 Z" id="Shape" fill="#4DB6AC" fill-rule="nonzero"></path>
            <path d="M701.03,562.63 C701.03,562.63 705.16,541.12 748.41,531.85 C748.41,531.85 734.62,576.34 699.05,574.56 L701.03,562.63 Z" id="Shape" fill="#4DB6AC" fill-rule="nonzero"></path>
            <path d="M697.58,586.77 C697.58,586.77 702.13,564.28 675.1,543.43 C675.1,543.43 645.73,593.36 696.32,602.76 L697.58,586.77 Z" id="Shape" fill="#4DB6AC" fill-rule="nonzero"></path>
            <path d="M696.72,617.69 C696.72,617.69 693.58,585.9 727.58,579.72 C727.58,579.72 715.17,624.11 696.67,632.03 L696.72,617.69 Z" id="Shape" fill="#4DB6AC" fill-rule="nonzero"></path>
            <path d="M711.73,523 C711.73,523 741.07,500.61 753.43,496.75" id="Shape" stroke="#535461" opacity="0.3"></path>
            <path d="M698.99,574.32 C698.99,574.32 734.51,536.48 748.41,531.85" id="Shape" stroke="#535461" opacity="0.3"></path>
            <path d="M685.09,506.37 C685.09,506.37 706.71,535.71 705.17,543.44" id="Shape" stroke="#535461" opacity="0.3"></path>
            <path d="M675.05,543.43 C675.05,543.43 686.63,595.94 695.9,602.89" id="Shape" stroke="#535461" opacity="0.3"></path>
            <path d="M696.67,632.23 C696.67,632.23 715.2,581.23 727.56,579.72" id="Shape" stroke="#535461" opacity="0.3"></path>
            <g id="Group" opacity="0.1" transform="translate(641.000000, 634.000000)" fill="#000000" fill-rule="nonzero">
                <path d="M114.75,0.16 L1.23,0.16 C0.97,0.68 0.73,1.16 0.48,1.7 L110.88,1.7 C110.88,1.7 132.72,29.58 99.76,71.2 L102.38,71.2 C137.14,28.73 114.75,0.16 114.75,0.16 Z" id="Shape"></path>
            </g>
            <rect id="Rectangle-path" fill="#E0E0E0" fill-rule="nonzero" x="0" y="692.4" width="787.17" height="26.68"></rect>
            <rect id="Rectangle-path" fill="#E0E0E0" fill-rule="nonzero" x="33.35" y="719.08" width="720.46" height="10.92"></rect>
            <rect id="Rectangle-path" fill="#000000" fill-rule="nonzero" opacity="0.1" x="33.35" y="719.08" width="720.46" height="3.64"></rect>
        </g>
    </g>
</svg>
