
<svg width="29px" height="22px" viewBox="0 0 29 22" version="1.1" xmlns="http://www.w3.org/2000/svg" xmlns:xlink="http://www.w3.org/1999/xlink">
    <!-- Generator: Sketch 49.3 (51167) - http://www.bohemiancoding.com/sketch -->
    <desc>Created with Sketch.</desc>
    <defs></defs>
    <g id="Page-1" stroke="none" stroke-width="1" fill="none" fill-rule="evenodd">
        <path d="M10.2243563,3.67774321 C7.33027246,2.55924774 5.33603955,2.18641591 4.24165758,2.55924774 C2.60008462,3.11849547 2.6336619e-16,5.03551881 0,6.93515259 C0,8.83478638 1.86068121,10.039534 1.86068121,11.4550429 C1.86068121,12.8705518 6.95932464e-17,13.5598733 0,14.9531236 C0,16.3463738 3.37113701,18.9019412 4.24165758,18.9019412 C5.11217815,18.9019412 10.5949066,19.5318129 12.3011687,17.2424682 C14.0074307,14.9531236 17.9075577,15.5829952 17.9075577,17.2424682 C17.9075577,18.9019412 19.1477799,19.7117638 24.07389,18.9019412 C29,18.0921186 29,18.0921186 29,11.2975034 C29,6.76775998 26.9918555,3.85500808 22.9755664,2.55924774 C17.7670501,1.81358409 14.5328268,1.81358409 13.2728964,2.55924774 C12.012966,3.30491138 10.9967859,3.67774321 10.2243563,3.67774321 Z" id="Path-3" fill="#A9B4D1"></path>
        <g id="map" transform="translate(4.000000, 1.000000)" stroke="#000000" stroke-linecap="round" stroke-linejoin="round" stroke-width="1.5">
            <polygon id="Shape" points="0 4 0 20 7 16 15 20 22 16 22 0 15 4 7 0"></polygon>
            <path d="M7,0 L7,16" id="Shape"></path>
            <path d="M15,4 L15,20" id="Shape"></path>
        </g>
    </g>
</svg>
