
<svg width="22px" height="20px" viewBox="0 0 22 20" version="1.1" xmlns="http://www.w3.org/2000/svg" xmlns:xlink="http://www.w3.org/1999/xlink">
    <!-- Generator: Sketch 49.3 (51167) - http://www.bohemiancoding.com/sketch -->
    <desc>Created with Sketch.</desc>
    <defs></defs>
    <g id="Page-1" stroke="none" stroke-width="1" fill="none" fill-rule="evenodd">
        <g id="Group-10" transform="translate(-1.000000, -2.000000)">
            <path d="M9.29700505,5.34820976 C7.63164527,4.3184214 6.48409204,3.97515861 5.85434535,4.3184214 C4.90972531,4.83331558 3.41354324,6.59830111 3.41354324,8.34727625 C3.41354324,10.0962514 4.48424604,11.2054513 4.48424604,12.5086971 C4.48424604,13.811943 3.41354324,14.4465949 3.41354324,15.7293474 C3.41354324,17.0121 5.35341655,19.3649871 5.85434535,19.3649871 C6.35527415,19.3649871 9.510233,19.944904 10.4920775,17.8371257 C11.4739219,15.7293474 13.718195,16.3092644 13.718195,17.8371257 C13.718195,19.3649871 14.4318635,20.1105832 17.2665241,19.3649871 C20.1011847,18.6193909 20.1011847,18.6193909 20.1011847,12.363652 C20.1011847,8.19315943 18.9456262,5.51141588 16.6345093,4.3184214 C13.637342,3.63189582 11.7762537,3.63189582 11.0512445,4.3184214 C10.3262353,5.00494698 9.7414888,5.34820976 9.29700505,5.34820976 Z" id="Path-3" fill="#61429A" opacity="0.421025815" transform="translate(11.757364, 11.730157) rotate(140.000000) translate(-11.757364, -11.730157) "></path>
            <g id="activity" transform="translate(2.000000, 3.000000)" stroke="#000000" stroke-linecap="round" stroke-linejoin="round" stroke-width="2">
                <polyline id="Shape" points="20 9 16 9 13 18 7 0 4 9 0 9"></polyline>
            </g>
        </g>
    </g>
</svg>
