
<svg width="902px" height="700px" viewBox="0 0 902 700" version="1.1" xmlns="http://www.w3.org/2000/svg" xmlns:xlink="http://www.w3.org/1999/xlink">
    <!-- Generator: Sketch 49.3 (51167) - http://www.bohemiancoding.com/sketch -->
    <desc>Created with Sketch.</desc>
    <defs>
        <linearGradient x1="59.1220456%" y1="83.8568432%" x2="40.8839473%" y2="16.1288868%" id="linearGradient-1">
            <stop stop-color="#808080" stop-opacity="0.25" offset="0%"></stop>
            <stop stop-color="#808080" stop-opacity="0.12" offset="54%"></stop>
            <stop stop-color="#808080" stop-opacity="0.1" offset="100%"></stop>
        </linearGradient>
        <linearGradient x1="34310%" y1="30160%" x2="34310%" y2="28320%" id="linearGradient-2">
            <stop stop-color="#808080" stop-opacity="0.25" offset="0%"></stop>
            <stop stop-color="#808080" stop-opacity="0.12" offset="54%"></stop>
            <stop stop-color="#808080" stop-opacity="0.1" offset="100%"></stop>
        </linearGradient>
        <linearGradient x1="29941%" y1="32219%" x2="29941%" y2="10025%" id="linearGradient-3">
            <stop stop-color="#808080" stop-opacity="0.25" offset="0%"></stop>
            <stop stop-color="#808080" stop-opacity="0.12" offset="54%"></stop>
            <stop stop-color="#808080" stop-opacity="0.1" offset="100%"></stop>
        </linearGradient>
        <linearGradient x1="98121%" y1="49223%" x2="98121%" y2="30403%" id="linearGradient-4">
            <stop stop-color="#808080" stop-opacity="0.25" offset="0%"></stop>
            <stop stop-color="#808080" stop-opacity="0.12" offset="54%"></stop>
            <stop stop-color="#808080" stop-opacity="0.1" offset="100%"></stop>
        </linearGradient>
    </defs>
    <g id="Page-1" stroke="none" stroke-width="1" fill="none" fill-rule="evenodd">
        <g id="Group-8">
            <g id="undraw_browser_stats_704t">
                <polygon id="Shape" fill="url(#linearGradient-1)" fill-rule="nonzero" points="38.44 238.68 47.16 265.48 181.88 679.65 826.78 469.2 692.06 55.03 683.35 28.23"></polygon>
                <polygon id="Shape" fill="#425B9A" fill-rule="nonzero" opacity="0.7" points="19.59 281.74 27.84 307.13 155.47 699.5 779.36 495.91 651.73 103.53 643.48 78.15"></polygon>
                <rect id="Rectangle-path" fill="#F5F5F5" fill-rule="nonzero" transform="translate(367.345100, 153.232600) rotate(-18.072322) translate(-367.345100, -153.232600) " x="39.4398749" y="139.896945" width="655.81045" height="26.6713105"></rect>
                <rect id="Rectangle-path" fill="#FFFFFF" fill-rule="nonzero" transform="translate(435.694826, 362.146739) rotate(-18.020000) translate(-435.694826, -362.146739) " x="107.559826" y="155.841739" width="656.27" height="412.61"></rect>
                <path d="M77.42,247.63 C78.7199424,251.631391 76.5309519,255.929139 72.5300664,257.230636 C68.5291809,258.532134 64.2305827,256.344814 62.9275304,252.344434 C61.6244782,248.344055 63.8101274,244.044607 67.81,242.74 C71.8138052,241.439917 76.114086,243.628093 77.42,247.63 Z" id="Shape" fill="#FF5252" fill-rule="nonzero"></path>
                <path d="M97.7,241.01 C98.9999424,245.011391 96.8109519,249.309139 92.8100664,250.610636 C88.8091809,251.912134 84.5105827,249.724814 83.2075304,245.724434 C81.9044782,241.724055 84.0901274,237.424607 88.09,236.12 C92.0938052,234.819917 96.394086,237.008093 97.7,241.01 Z" id="Shape" fill="#FFFF00" fill-rule="nonzero"></path>
                <path d="M117.99,234.38 C119.289942,238.381391 117.100952,242.679139 113.100066,243.980636 C109.099181,245.282134 104.800583,243.094814 103.49753,239.094434 C102.194478,235.094055 104.380127,230.794607 108.38,229.49 C112.383805,228.189917 116.684086,230.378093 117.99,234.38 Z" id="Shape" fill="#69F0AE" fill-rule="nonzero"></path>
                <rect id="Rectangle-path" fill="url(#linearGradient-2)" fill-rule="nonzero" transform="translate(188.538644, 276.361895) rotate(-18.070000) translate(-188.538644, -276.361895) " x="83.3536439" y="267.211895" width="210.37" height="18.3"></rect>
                <rect id="Rectangle-path" fill="#F2F2F2" fill-rule="nonzero" transform="translate(190.665480, 467.335125) rotate(-18.070000) translate(-190.665480, -467.335125) " x="139.985741" y="309.503761" width="101.359478" height="315.662728" rx="12"></rect>
                <path d="M260.22,0 L0,84.92 L39.87,207.49 L76.94,195.39 C77.08,200.79 76.83,217.73 68.27,221.94 C68.27,221.94 86.42,222.53 97.67,188.62 L300.08,122.57 L260.22,0 Z" id="Shape" fill="url(#linearGradient-3)" fill-rule="nonzero"></path>
                <path d="M254.54,6.11 L8.17,86.51 L45.92,202.51 L81.02,191.06 C81.16,196.18 80.91,212.21 72.81,216.2 C72.81,216.2 89.99,216.75 100.65,184.65 L292.29,122.15 L254.54,6.11 Z" id="Shape" fill="#425B9A" fill-rule="nonzero"></path>
                <path d="M33.97,96.8 L58.51,172.23" id="Shape" stroke="#FFFFFF" stroke-linecap="round" stroke-linejoin="round" stroke-dasharray="0"></path>
                <path d="M61.01,182.38 L265.35,115.7" id="Shape" stroke="#FFFFFF" stroke-linecap="round" stroke-linejoin="round"></path>
                <path d="M65.52,156.84 L237.98,100.56" id="Shape" stroke="#FFFFFF" opacity="0.3" stroke-linecap="round" stroke-linejoin="round"></path>
                <path d="M58.45,135.08 L230.9,78.81" id="Shape" stroke="#FFFFFF" opacity="0.3" stroke-linecap="round" stroke-linejoin="round"></path>
                <path d="M51.37,113.32 L223.82,57.05" id="Shape" stroke="#FFFFFF" opacity="0.3" stroke-linecap="round" stroke-linejoin="round"></path>
                <path d="M44.29,91.57 L216.75,35.29" id="Shape" stroke="#FFFFFF" opacity="0.3" stroke-linecap="round" stroke-linejoin="round"></path>
                <path d="M100.79,147.66 C100.719882,147.331599 100.696318,146.994967 100.72,146.66 C100.940554,143.818592 103.084365,141.500958 105.9,141.06 L106.64,140.91 C111.48,139.7 116.45,137.91 119.71,134.14 C124.83,128.14 124.24,119.03 123.36,111.65 C123.038474,109.324583 123.360114,106.955518 124.29,104.8 C127.46,97.8 134.44,99.62 140.39,99.32 C150.621458,98.5578067 159.094595,91.0779028 161.12,81.02 C161.86,76.82 161.39,72.49 161.99,68.27 C162.850634,62.4480727 165.719445,57.110174 170.1,53.18 C174.6,49.18 180.43,46.9 186.03,44.95 C190.492385,43.3608622 195.203689,42.5852414 199.94,42.66 L200.19,42.66 C208.349305,42.9776613 215.527715,48.1439109 218.42,55.78 C219.66,58.99 220.72,62.27 221.83,65.67 C227.96,84.53 233.63,101.93 240.71,123.77 C232.01,126.53 211.61,133.18 208.82,134.09 L178.39,144.02 C158.1,150.64 138.7,157.6 116.07,164.36 C111.4,165.75 116.07,164.36 105.93,167.67 C104.13,162.19 104.04,161.93 100.79,147.66 Z" id="Shape" fill="#FFFFFF" fill-rule="nonzero" opacity="0.2"></path>
                <rect id="Rectangle-path" fill="#6C63FF" fill-rule="nonzero" opacity="0.1" transform="translate(195.227550, 243.431050) rotate(-18.072322) translate(-195.227550, -243.431050) " x="65.7432843" y="240.383186" width="258.968531" height="6.0957285"></rect>
                <path d="M901.26,366.95 L848.19,203.75 L771.47,228.75 L779.03,252 C775.65,252.09 765.03,251.93 762.41,246.57 C762.41,246.57 762.04,257.95 783.26,265 L824.55,391.92 L901.26,366.95 Z" id="Shape" fill="url(#linearGradient-4)" fill-rule="nonzero"></path>
                <path d="M896.17,362.2 L846.86,210.61 L775.63,233.87 L782.63,255.47 C779.49,255.55 769.63,255.41 767.19,250.47 C767.19,250.47 766.85,261.04 786.56,267.59 L824.92,385.51 L896.17,362.2 Z" id="Shape" fill="#425B9A" fill-rule="nonzero"></path>
                <path d="M839.07,226.96 L794.94,241.37" id="Shape" stroke="#FFFFFF" stroke-linecap="round" stroke-linejoin="round" stroke-dasharray="0"></path>
                <path d="M787.97,243.14 L828.87,368.88" id="Shape" stroke="#FFFFFF" stroke-linecap="round" stroke-linejoin="round"></path>
                <path d="M803.66,245.92 L838.18,352.03" id="Shape" stroke="#FFFFFF" opacity="0.3" stroke-linecap="round" stroke-linejoin="round"></path>
                <path d="M817.02,241.56 L851.54,347.67" id="Shape" stroke="#FFFFFF" opacity="0.3" stroke-linecap="round" stroke-linejoin="round"></path>
                <path d="M830.39,237.2 L864.9,343.31" id="Shape" stroke="#FFFFFF" opacity="0.3" stroke-linecap="round" stroke-linejoin="round"></path>
                <path d="M843.75,232.84 L878.27,338.95" id="Shape" stroke="#FFFFFF" opacity="0.3" stroke-linecap="round" stroke-linejoin="round"></path>
                <path d="M809.28,267.63 C809.475766,267.603387 809.674234,267.603387 809.87,267.63 C811.617639,267.767031 813.041747,269.087643 813.31,270.82 C813.31,271.01 813.37,271.16 813.4,271.27 C814.14,274.27 815.23,277.27 817.55,279.27 C821.21,282.42 826.83,282.06 831.36,281.51 C832.789052,281.310469 834.245454,281.507654 835.57,282.08 C839.85,284.08 838.75,288.33 838.93,291.98 C839.379865,298.275975 843.973154,303.499154 850.16,304.75 C852.74,305.21 855.4,304.91 857.99,305.29 C861.569709,305.8211 864.84994,307.590372 867.26,310.29 C869.72,313.06 871.12,316.64 872.31,320.09 C873.284144,322.836824 873.758301,325.735954 873.71,328.65 L873.71,328.75 C873.513974,333.767065 870.341989,338.182656 865.65,339.97 C863.65,340.73 861.65,341.39 859.57,342.07 L823.89,353.75 C822.2,348.39 818.12,335.84 817.56,334.13 C815.43,327.59 813.56,321.95 811.47,315.4 C807.41,302.92 803.14,290.98 799,277.06 C798.15,274.19 799,277.06 797,270.82 C800.36,269.68 800.52,269.63 809.28,267.63 Z" id="Shape" fill="#FFFFFF" fill-rule="nonzero" opacity="0.2"></path>
                <rect id="Rectangle-path" fill="#6C63FF" fill-rule="nonzero" opacity="0.1" transform="translate(740.282723, 329.010142) rotate(-18.070000) translate(-740.282723, -329.010142) " x="736.472723" y="249.690142" width="7.62" height="158.64"></rect>
                <rect id="Rectangle-path" fill="#D5D5D5" fill-rule="nonzero" transform="translate(159.298845, 370.450178) rotate(-18.070000) translate(-159.298845, -370.450178) " x="110.668686" y="362.829428" width="97.2603177" height="15.2415005" rx="7"></rect>
            </g>
            <g id="download" transform="translate(539.412674, 349.584980) rotate(-19.000000) translate(-539.412674, -349.584980) translate(376.912674, 233.584980)">
                <g id="Group-4">
                    <g id="Stroke-2" transform="translate(109.064984, 174.832639) rotate(-24.000000) translate(-109.064984, -174.832639) translate(73.064984, 153.332639)">
                        <g id="path-1-link" fill="#000000" fill-rule="nonzero">
                            <polygon id="path-1" points="62.8322773 0.479384353 71.3364896 21.6588814 62.8322773 42.853184 8.98249925 42.853184 0.478286995 21.6588814 8.98249925 0.479384353"></polygon>
                        </g>
                        <g id="path-1-link" fill="#FFFFFF" stroke="#000000" stroke-width="0.5">
                            <polygon id="path-1" points="62.8322773 0.479384353 71.3364896 21.6588814 62.8322773 42.853184 8.98249925 42.853184 0.478286995 21.6588814 8.98249925 0.479384353"></polygon>
                        </g>
                    </g>
                    <path d="M88.723453,136.65891 L77.5852623,147.251834 C77.2886833,147.535853 76.9509127,147.749357 76.5987251,147.933479 L76.1410414,152.914147 L72.9372554,152.914147 L72.4795717,147.933479 C72.1273841,147.749357 71.7896135,147.535853 71.4930344,147.251834 L60.3548436,136.65891 C60.056205,136.37685 59.8296515,136.055615 59.6381109,135.720668 L41.5859211,135.720668 C35.9076681,135.720668 31.2880376,131.327191 31.2880376,125.926916 L31.2880376,113.303856 L34.4918236,113.303856 L35.407191,125.926916 C35.407191,129.166689 38.1793812,131.803168 41.5859211,131.803168 L59.6381109,131.803168 C59.8296515,131.468221 60.056205,131.146986 60.3548436,130.864926 L71.4930344,120.272002 C73.1757086,118.671703 75.9025882,118.671703 77.5852623,120.272002 L88.723453,130.864926 C89.0220917,131.146986 89.2465854,131.468221 89.4401855,131.803168 L107.492376,131.803168 C110.898916,131.803168 113.671106,129.166689 113.671106,125.926916 L114.586473,113.303856 L117.790259,113.303856 L117.790259,125.926916 C117.790259,131.327191 113.170628,135.720668 107.492376,135.720668 L89.4401855,135.720668 C89.2465854,136.055615 89.0220917,136.37685 88.723453,136.65891 Z" id="Stroke-3" stroke="#000000" stroke-width="0.8"></path>
                    <g id="Group" transform="translate(73.618912, 178.706895)" fill-rule="nonzero" stroke="#4A4A4A">
                        <path d="M0.0887632266,27.1081154 C0.561359247,29.9155333 3.65746907,36.4500843 9.77092271,42.5879897 L9.77092271,45.9124054 L31.7285215,45.9124054 L31.7285215,42.6060245 L31.7285215,42.5879897 L33.9460874,38.8908547 C34.739867,37.5743139 35.1578721,36.0654018 35.1578721,34.5324434 L35.1578721,23.2486672 C35.1396953,22.2687761 33.9946194,21.288885 32.4313566,20.9883049 C31.1892773,20.7478408 30.032023,21.000268 29.4140128,21.5654187 C29.395836,20.5855276 28.2567584,19.6056365 26.6936167,19.2990448 C25.572716,19.0766156 24.5124044,19.2629753 23.8640995,19.7198569 C23.670214,18.8181167 22.5371954,17.9644693 21.0405807,17.6699008 C19.7500301,17.4174135 18.5443649,17.6578776 17.9020584,18.2169565 L17.8959995,18.2169565 C17.8959995,18.2169565 17.8959995,18.2169565 17.8959995,18.2109449 C17.8657049,17.9163765 16.2054993,1.96158562 16.199501,1.93753922 C15.8904353,-0.875890362 11.2796553,-0.509182661 11.2856536,2.28621211 L11.2735963,28.5268534 C11.2735963,28.8394567 11.0432966,29.0979555 10.7343521,29.1400368 L10.7222343,29.1400368 C10.6858807,29.1460483 10.6555861,29.1460483 10.6192326,29.1460483 C9.72863146,29.122062 7.72306722,29.092004 5.76603498,26.284526 C5.50550128,25.9118066 5.26920327,25.5751569 5.05714095,25.2685653 C3.20304982,22.6173889 -0.420186333,24.0842797 0.0887632266,27.1081154 Z" id="Shape" stroke-width="0.5" fill="#FFFFFF"></path>
                        <path d="M9.78304054,50.914058 C9.78304054,51.5753342 10.3283437,52.1163783 10.9948252,52.1163783 L30.534853,52.1163783 C31.2013346,52.1163783 31.7466376,51.5753342 31.7466376,50.914058 L31.7466376,47.8420695 L9.78304054,47.8420695 L9.78304054,50.914058 Z" id="Shape" stroke-width="0.2" fill="#C0C0C0"></path>
                    </g>
                    <g id="Stroke-2" transform="translate(39.322917, 0.000000)">
                        <g id="path-3-link" fill="#000000" fill-rule="nonzero">
                            <polygon id="path-3" points="62.6012387 0 71.1054509 21.1794971 62.6012387 42.3737997 8.75146091 42.3737997 0.247248501 21.1794971 8.75146091 0"></polygon>
                        </g>
                        <g id="path-3-link" fill="#FFFFFF" stroke="#000000" stroke-width="0.8">
                            <polygon id="path-3" points="62.6012387 0 71.1054509 21.1794971 62.6012387 42.3737997 8.75146091 42.3737997 0.247248501 21.1794971 8.75146091 0"></polygon>
                        </g>
                    </g>
                    <g id="Stroke-5" transform="translate(83.364583, 81.003390)" fill="#000000" fill-rule="nonzero">
                        <g id="path-7-link">
                            <path d="M51.9101673,33.2216356 L7.73881999,33.2216356 C3.67321578,33.2216356 0.376929031,29.5095522 0.376929031,24.9311093 L0.376929031,8.35005749 C0.376929031,3.77161456 3.67321578,0.0595312 7.73881999,0.0595312 L51.9101673,0.0595312 C55.9757716,0.0595312 59.2720583,3.77161456 59.2720583,8.35005749 L59.2720583,24.9311093 C59.2720583,29.5095522 55.9757716,33.2216356 51.9101673,33.2216356 Z" id="path-7"></path>
                        </g>
                    </g>
                    <g id="Stroke-3" transform="translate(30.671875, 41.681356)">
                        <g id="path-9-link" fill="#000000" fill-rule="nonzero">
                            <path d="M58.7683105,17.8859218 C58.5747104,17.5509754 58.3502167,17.2297403 58.051578,16.9476802 L46.9133873,6.35475667 C46.6168083,6.07073779 46.2790377,5.85723401 45.9268501,5.67311141 L45.4691664,0.692443794 L42.2653804,0.692443794 L41.8076967,5.67311141 C41.4555091,5.85723401 41.1177385,6.07073779 40.8211594,6.35475667 L29.6829686,16.9476802 C29.38433,17.2297403 29.1577765,17.5509754 28.9662359,17.8859218 L10.9140461,17.8859218 C5.23579311,17.8859218 0.616162578,22.2793995 0.616162578,27.679675 L0.616162578,40.3027349 L3.81994861,40.3027349 L4.73531604,27.679675 C4.73531604,24.4399014 7.50750624,21.8034231 10.9140461,21.8034231 L28.9662359,21.8034231 C29.1577765,22.1383694 29.38433,22.4596046 29.6829686,22.7416647 L40.8211594,33.3345882 C42.5038336,34.9348875 45.2307132,34.9348875 46.9133873,33.3345882 L58.051578,22.7416647 C58.3502167,22.4596046 58.5747104,22.1383694 58.7683105,21.8034231 L76.8205005,21.8034231 C80.2270408,21.8034231 82.999231,24.4399014 82.999231,27.679675 L83.9145985,40.3027349 L87.1183843,40.3027349 L87.1183843,27.679675 C87.1183843,22.2793995 82.4987533,17.8859218 76.8205005,17.8859218 L58.7683105,17.8859218 Z" id="path-9"></path>
                        </g>
                        <g id="path-9-link" fill="#D8D8D8" stroke="#000000" stroke-width="0.8">
                            <path d="M58.7683105,17.8859218 C58.5747104,17.5509754 58.3502167,17.2297403 58.051578,16.9476802 L46.9133873,6.35475667 C46.6168083,6.07073779 46.2790377,5.85723401 45.9268501,5.67311141 L45.4691664,0.692443794 L42.2653804,0.692443794 L41.8076967,5.67311141 C41.4555091,5.85723401 41.1177385,6.07073779 40.8211594,6.35475667 L29.6829686,16.9476802 C29.38433,17.2297403 29.1577765,17.5509754 28.9662359,17.8859218 L10.9140461,17.8859218 C5.23579311,17.8859218 0.616162578,22.2793995 0.616162578,27.679675 L0.616162578,40.3027349 L3.81994861,40.3027349 L4.73531604,27.679675 C4.73531604,24.4399014 7.50750624,21.8034231 10.9140461,21.8034231 L28.9662359,21.8034231 C29.1577765,22.1383694 29.38433,22.4596046 29.6829686,22.7416647 L40.8211594,33.3345882 C42.5038336,34.9348875 45.2307132,34.9348875 46.9133873,33.3345882 L58.051578,22.7416647 C58.3502167,22.4596046 58.5747104,22.1383694 58.7683105,21.8034231 L76.8205005,21.8034231 C80.2270408,21.8034231 82.999231,24.4399014 82.999231,27.679675 L83.9145985,40.3027349 L87.1183843,40.3027349 L87.1183843,27.679675 C87.1183843,22.2793995 82.4987533,17.8859218 76.8205005,17.8859218 L58.7683105,17.8859218 Z" id="path-9"></path>
                        </g>
                    </g>
                    <g id="Stroke-2" transform="translate(109.064984, 174.832639) rotate(-24.000000) translate(-109.064984, -174.832639) translate(73.064984, 153.332639)">
                        <g id="path-11-link" fill="#000000" fill-rule="nonzero">
                            <polygon id="path-11" points="62.8322773 0.479384353 71.3364896 21.6588814 62.8322773 42.853184 8.98249925 42.853184 0.478286995 21.6588814 8.98249925 0.479384353"></polygon>
                        </g>
                        <g id="path-11-link" fill="#FFFFFF" stroke="#000000" stroke-width="0.5">
                            <polygon id="path-11" points="62.8322773 0.479384353 71.3364896 21.6588814 62.8322773 42.853184 8.98249925 42.853184 0.478286995 21.6588814 8.98249925 0.479384353"></polygon>
                        </g>
                    </g>
                    <path d="M88.723453,136.65891 L77.5852623,147.251834 C77.2886833,147.535853 76.9509127,147.749357 76.5987251,147.933479 L76.1410414,152.914147 L72.9372554,152.914147 L72.4795717,147.933479 C72.1273841,147.749357 71.7896135,147.535853 71.4930344,147.251834 L60.3548436,136.65891 C60.056205,136.37685 59.8296515,136.055615 59.6381109,135.720668 L41.5859211,135.720668 C35.9076681,135.720668 31.2880376,131.327191 31.2880376,125.926916 L31.2880376,113.303856 L34.4918236,113.303856 L35.407191,125.926916 C35.407191,129.166689 38.1793812,131.803168 41.5859211,131.803168 L59.6381109,131.803168 C59.8296515,131.468221 60.056205,131.146986 60.3548436,130.864926 L71.4930344,120.272002 C73.1757086,118.671703 75.9025882,118.671703 77.5852623,120.272002 L88.723453,130.864926 C89.0220917,131.146986 89.2465854,131.468221 89.4401855,131.803168 L107.492376,131.803168 C110.898916,131.803168 113.671106,129.166689 113.671106,125.926916 L114.586473,113.303856 L117.790259,113.303856 L117.790259,125.926916 C117.790259,131.327191 113.170628,135.720668 107.492376,135.720668 L89.4401855,135.720668 C89.2465854,136.055615 89.0220917,136.37685 88.723453,136.65891 Z" id="Stroke-3" stroke="#000000" stroke-width="0.8" fill="#D8D8D8"></path>
                    <g id="Group" transform="translate(73.618912, 178.706895)" fill-rule="nonzero" stroke="#4A4A4A">
                        <path d="M0.0887632266,27.1081154 C0.561359247,29.9155333 3.65746907,36.4500843 9.77092271,42.5879897 L9.77092271,45.9124054 L31.7285215,45.9124054 L31.7285215,42.6060245 L31.7285215,42.5879897 L33.9460874,38.8908547 C34.739867,37.5743139 35.1578721,36.0654018 35.1578721,34.5324434 L35.1578721,23.2486672 C35.1396953,22.2687761 33.9946194,21.288885 32.4313566,20.9883049 C31.1892773,20.7478408 30.032023,21.000268 29.4140128,21.5654187 C29.395836,20.5855276 28.2567584,19.6056365 26.6936167,19.2990448 C25.572716,19.0766156 24.5124044,19.2629753 23.8640995,19.7198569 C23.670214,18.8181167 22.5371954,17.9644693 21.0405807,17.6699008 C19.7500301,17.4174135 18.5443649,17.6578776 17.9020584,18.2169565 L17.8959995,18.2169565 C17.8959995,18.2169565 17.8959995,18.2169565 17.8959995,18.2109449 C17.8657049,17.9163765 16.2054993,1.96158562 16.199501,1.93753922 C15.8904353,-0.875890362 11.2796553,-0.509182661 11.2856536,2.28621211 L11.2735963,28.5268534 C11.2735963,28.8394567 11.0432966,29.0979555 10.7343521,29.1400368 L10.7222343,29.1400368 C10.6858807,29.1460483 10.6555861,29.1460483 10.6192326,29.1460483 C9.72863146,29.122062 7.72306722,29.092004 5.76603498,26.284526 C5.50550128,25.9118066 5.26920327,25.5751569 5.05714095,25.2685653 C3.20304982,22.6173889 -0.420186333,24.0842797 0.0887632266,27.1081154 Z" id="Shape" stroke-width="0.5" fill="#FFFFFF"></path>
                        <path d="M9.78304054,50.914058 C9.78304054,51.5753342 10.3283437,52.1163783 10.9948252,52.1163783 L30.534853,52.1163783 C31.2013346,52.1163783 31.7466376,51.5753342 31.7466376,50.914058 L31.7466376,47.8420695 L9.78304054,47.8420695 L9.78304054,50.914058 Z" id="Shape" stroke-width="0.2" fill="#C0C0C0"></path>
                    </g>
                    <g id="Stroke-3" transform="translate(30.671875, 41.681356)">
                        <g id="path-13-link" fill="#000000" fill-rule="nonzero">
                            <path d="M58.7683105,17.8859218 C58.5747104,17.5509754 58.3502167,17.2297403 58.051578,16.9476802 L46.9133873,6.35475667 C46.6168083,6.07073779 46.2790377,5.85723401 45.9268501,5.67311141 L45.4691664,0.692443794 L42.2653804,0.692443794 L41.8076967,5.67311141 C41.4555091,5.85723401 41.1177385,6.07073779 40.8211594,6.35475667 L29.6829686,16.9476802 C29.38433,17.2297403 29.1577765,17.5509754 28.9662359,17.8859218 L10.9140461,17.8859218 C5.23579311,17.8859218 0.616162578,22.2793995 0.616162578,27.679675 L0.616162578,40.3027349 L3.81994861,40.3027349 L4.73531604,27.679675 C4.73531604,24.4399014 7.50750624,21.8034231 10.9140461,21.8034231 L28.9662359,21.8034231 C29.1577765,22.1383694 29.38433,22.4596046 29.6829686,22.7416647 L40.8211594,33.3345882 C42.5038336,34.9348875 45.2307132,34.9348875 46.9133873,33.3345882 L58.051578,22.7416647 C58.3502167,22.4596046 58.5747104,22.1383694 58.7683105,21.8034231 L76.8205005,21.8034231 C80.2270408,21.8034231 82.999231,24.4399014 82.999231,27.679675 L83.9145985,40.3027349 L87.1183843,40.3027349 L87.1183843,27.679675 C87.1183843,22.2793995 82.4987533,17.8859218 76.8205005,17.8859218 L58.7683105,17.8859218 Z" id="path-13"></path>
                        </g>
                        <g id="path-13-link" fill="#D8D8D8" stroke="#000000" stroke-width="0.8">
                            <path d="M58.7683105,17.8859218 C58.5747104,17.5509754 58.3502167,17.2297403 58.051578,16.9476802 L46.9133873,6.35475667 C46.6168083,6.07073779 46.2790377,5.85723401 45.9268501,5.67311141 L45.4691664,0.692443794 L42.2653804,0.692443794 L41.8076967,5.67311141 C41.4555091,5.85723401 41.1177385,6.07073779 40.8211594,6.35475667 L29.6829686,16.9476802 C29.38433,17.2297403 29.1577765,17.5509754 28.9662359,17.8859218 L10.9140461,17.8859218 C5.23579311,17.8859218 0.616162578,22.2793995 0.616162578,27.679675 L0.616162578,40.3027349 L3.81994861,40.3027349 L4.73531604,27.679675 C4.73531604,24.4399014 7.50750624,21.8034231 10.9140461,21.8034231 L28.9662359,21.8034231 C29.1577765,22.1383694 29.38433,22.4596046 29.6829686,22.7416647 L40.8211594,33.3345882 C42.5038336,34.9348875 45.2307132,34.9348875 46.9133873,33.3345882 L58.051578,22.7416647 C58.3502167,22.4596046 58.5747104,22.1383694 58.7683105,21.8034231 L76.8205005,21.8034231 C80.2270408,21.8034231 82.999231,24.4399014 82.999231,27.679675 L83.9145985,40.3027349 L87.1183843,40.3027349 L87.1183843,27.679675 C87.1183843,22.2793995 82.4987533,17.8859218 76.8205005,17.8859218 L58.7683105,17.8859218 Z" id="path-13"></path>
                        </g>
                    </g>
                    <g id="Stroke-5" transform="translate(0.000000, 81.003390)">
                        <g id="path-5-link" fill="#000000" fill-rule="nonzero">
                            <path d="M51.5332384,33.2216356 L7.3618912,33.2216356 C3.29628678,33.2216356 0,29.5095522 0,24.9311093 L0,8.35005749 C0,3.77161456 3.29628678,0.0595312 7.3618912,0.0595312 L51.5332384,0.0595312 C55.5988428,0.0595312 58.8951296,3.77161456 58.8951296,8.35005749 L58.8951296,24.9311093 C58.8951296,29.5095522 55.5988428,33.2216356 51.5332384,33.2216356 Z" id="path-5"></path>
                        </g>
                        <g id="path-5-link" fill="#FFFFFF" stroke="#000000" stroke-width="0.8">
                            <path d="M51.5332384,33.2216356 L7.3618912,33.2216356 C3.29628678,33.2216356 0,29.5095522 0,24.9311093 L0,8.35005749 C0,3.77161456 3.29628678,0.0595312 7.3618912,0.0595312 L51.5332384,0.0595312 C55.5988428,0.0595312 58.8951296,3.77161456 58.8951296,8.35005749 L58.8951296,24.9311093 C58.8951296,29.5095522 55.5988428,33.2216356 51.5332384,33.2216356 Z" id="path-5"></path>
                        </g>
                    </g>
                    <g id="path-7-link" transform="translate(83.364583, 81.003390)" fill="#FFFFFF" stroke="#000000" stroke-width="0.8">
                        <path d="M51.9101673,33.2216356 L7.73881999,33.2216356 C3.67321578,33.2216356 0.376929031,29.5095522 0.376929031,24.9311093 L0.376929031,8.35005749 C0.376929031,3.77161456 3.67321578,0.0595312 7.73881999,0.0595312 L51.9101673,0.0595312 C55.9757716,0.0595312 59.2720583,3.77161456 59.2720583,8.35005749 L59.2720583,24.9311093 C59.2720583,29.5095522 55.9757716,33.2216356 51.9101673,33.2216356 Z" id="path-7"></path>
                    </g>
                </g>
                <path d="M179,20 L242,20" id="Path-47" stroke="#979797"></path>
                <path d="M261,38 L324,38" id="Path-47" stroke="#979797"></path>
                <path d="M179,38 L212,38" id="Path-47" stroke="#979797"></path>
                <rect id="Rectangle-14" fill="#E7E8E9" fill-rule="nonzero" x="249" y="13" width="52" height="13" rx="4"></rect>
                <path d="M256,19 L293,19" id="Path-47" stroke="#DD2929"></path>
                <rect id="Rectangle-14" fill="#E7E8E9" fill-rule="nonzero" x="218" y="31" width="34" height="13" rx="4"></rect>
                <path d="M222,37 L246,37" id="Path-47" stroke="#DD2929"></path>
                <path d="M307,20 L325,20" id="Path-48" stroke="#979797"></path>
            </g>
        </g>
    </g>
</svg>
