
<svg width="18px" height="18px" viewBox="0 0 18 18" version="1.1" xmlns="http://www.w3.org/2000/svg" xmlns:xlink="http://www.w3.org/1999/xlink">
    <!-- Generator: Sketch 49.3 (51167) - http://www.bohemiancoding.com/sketch -->
    <desc>Created with Sketch.</desc>
    <defs></defs>
    <g id="Page-1" stroke="none" stroke-width="1" fill="none" fill-rule="evenodd">
        <g id="Artboard" transform="translate(-184.000000, -424.000000)">
            <g id="Group" transform="translate(184.000000, 425.000000)">
                <path d="M6.51686755,2.13792777 C4.8360929,1.0986075 3.67791771,0.752167413 3.04234197,1.0986075 C2.08897837,1.61826764 0.578947368,3.39959019 0.578947368,5.16475415 C0.578947368,6.92991812 1.65956078,8.04938497 1.65956078,9.3646939 C1.65956078,10.6800028 0.578947368,11.3205292 0.578947368,12.6151551 C0.578947368,13.909781 2.53677648,16.2844469 3.04234197,16.2844469 C3.54790746,16.2844469 6.73206917,16.8697317 7.72300176,14.7424434 C8.71393436,12.6151551 10.9789809,13.2004399 10.9789809,14.7424434 C10.9789809,16.2844469 11.6992551,17.0369444 14.5601539,16.2844469 C17.4210526,15.5319494 17.4210526,15.5319494 17.4210526,9.21830622 C17.4210526,5.00921079 16.2547981,2.30264455 13.922289,1.0986075 C10.8973794,0.405727324 9.01906457,0.405727324 8.28734454,1.0986075 C7.55562451,1.79148768 6.96546551,2.13792777 6.51686755,2.13792777 Z" id="Path-3" fill="#A9B4D1" transform="translate(9.000000, 8.578947) rotate(-4.000000) translate(-9.000000, -8.578947) "></path>
                <g id="terminal" transform="translate(1.000000, 0.000000)" stroke="#000000" stroke-linecap="round" stroke-linejoin="round" stroke-width="2">
                    <polyline id="Shape" points="0 12 6 6 0 0"></polyline>
                    <path d="M8,14 L16,14" id="Shape"></path>
                </g>
            </g>
        </g>
    </g>
</svg>
