
<svg width="20px" height="22px" viewBox="0 0 20 22" version="1.1" xmlns="http://www.w3.org/2000/svg" xmlns:xlink="http://www.w3.org/1999/xlink">
    <!-- Generator: Sketch 49.3 (51167) - http://www.bohemiancoding.com/sketch -->
    <desc>Created with Sketch.</desc>
    <defs></defs>
    <g id="Page-1" stroke="none" stroke-width="1" fill="none" fill-rule="evenodd">
        <path d="M7.20748049,4.35128923 C5.21156059,3.11709641 3.83622755,2.7056988 3.08148136,3.11709641 C1.94936208,3.73419282 0.156200274,5.84951335 0.156200274,7.94564556 C0.156200274,10.0417778 1.4394287,11.3711447 1.4394287,12.933074 C1.4394287,14.4950033 0.156200274,15.2556284 0.156200274,16.7929967 C0.156200274,18.330365 2.48112235,21.1502807 3.08148136,21.1502807 C3.68184038,21.1502807 7.46303241,21.8453063 8.63976487,19.3191515 C9.81649732,16.7929967 12.50624,17.4880224 12.50624,19.3191515 C12.50624,21.1502807 13.3615657,22.0438715 16.758883,21.1502807 C20.1562003,20.2566899 20.1562003,20.2566899 20.1562003,12.7592386 C20.1562003,7.76093782 18.771273,4.54689041 16.0014185,3.11709641 C12.4093383,2.2943012 10.1788395,2.2943012 9.30992192,3.11709641 C8.44100438,3.93989162 7.74019057,4.35128923 7.20748049,4.35128923 Z" id="Path-3" fill="#A9B4D1" transform="translate(10.156200, 12.000000) rotate(90.000000) translate(-10.156200, -12.000000) "></path>
        <g id="shield" transform="translate(3.000000, 1.000000)" stroke="#000000" stroke-linecap="round" stroke-linejoin="round">
            <path d="M8,20 C8,20 16,16 16,10 L16,3 L8,0 L0,3 L0,10 C0,16 8,20 8,20 Z" id="Shape"></path>
        </g>
    </g>
</svg>
