
<svg width="631px" height="557px" viewBox="0 0 631 557" version="1.1" xmlns="http://www.w3.org/2000/svg" xmlns:xlink="http://www.w3.org/1999/xlink">
    <!-- Generator: Sketch 49.3 (51167) - http://www.bohemiancoding.com/sketch -->
    <desc>Created with Sketch.</desc>
    <defs>
        <path d="M141.187932,0.37272017 C110.427054,2.4411284 79.3451927,13.7417002 55.3450207,38.0328847 C34.2871935,59.3559874 19.1006818,92.8793355 22.8053614,126.562439 C27.1787558,166.324644 55.3918307,195.248727 65.8572164,233.177952 C72.5911738,257.561627 71.5412917,284.46775 67.1344616,309.692241 C64.2991111,325.945221 59.939091,342.215017 51.5600953,355.096324 C36.4672036,378.269223 9.2304522,389.45208 1.81440574,417.913714 C-6.25029403,448.864164 14.0719469,479.217634 33.1637528,501.230206 C48.4037617,518.79486 64.3659825,536.275432 83.5714699,545.902779 C97.6144794,552.94882 112.854488,555.479677 127.960754,556.488657 C169.675005,559.240615 211.380224,550.861909 250.335552,531.903187 C268.99938,522.797146 287.054678,511.252737 306.587836,505.762206 C348.215328,494.058043 391.046507,510.933227 433.23572,518.836901 C469.401009,525.592108 506.153633,525.728048 542.349905,519.240493 C565.126329,515.154125 588.6584,507.780166 605.810933,488.508655 C623.197517,468.942858 631.890808,438.656653 630.927859,409.312162 C629.96491,379.967672 620.121429,351.716242 605.623693,328.677874 C586.899681,298.921383 561.073917,277.749627 538.605102,252.390606 C515.72635,226.554975 496.264008,196.305136 480.948517,162.776399 C472.121483,143.437623 464.611816,122.913296 453.176794,105.886765 C435.342172,79.3506004 409.476286,63.5684774 383.630461,51.3766402 C324.007855,23.293374 262.165116,17.5758228 200.001393,5.16537339 C180.57523,1.27239367 160.868207,-0.922137016 141.187932,0.37272017 Z" id="path-1"></path>
        <linearGradient x1="49.9984429%" y1="100%" x2="49.9984429%" y2="0%" id="linearGradient-3">
            <stop stop-color="#808080" stop-opacity="0.25" offset="0%"></stop>
            <stop stop-color="#808080" stop-opacity="0.12" offset="54%"></stop>
            <stop stop-color="#808080" stop-opacity="0.1" offset="100%"></stop>
        </linearGradient>
        <linearGradient x1="56983%" y1="55149%" x2="56983%" y2="38082%" id="linearGradient-4">
            <stop stop-color="#808080" stop-opacity="0.25" offset="0%"></stop>
            <stop stop-color="#808080" stop-opacity="0.12" offset="54%"></stop>
            <stop stop-color="#808080" stop-opacity="0.1" offset="100%"></stop>
        </linearGradient>
    </defs>
    <g id="Page-1" stroke="none" stroke-width="1" fill="none" fill-rule="evenodd">
        <g id="Artboard-2" transform="translate(-269.000000, -254.000000)">
            <g id="Group-4" transform="translate(269.000000, 254.000000)">
                <mask id="mask-2" fill="white">
                    <use xlink:href="#path-1"></use>
                </mask>
                <use id="Mask" fill="#425B9A" fill-rule="nonzero" xlink:href="#path-1"></use>
                <g id="Group" opacity="0.7" mask="url(#mask-2)">
                    <g transform="translate(122.000000, 68.000000)">
                        <rect id="Rectangle-path" fill="#F6F7F9" fill-rule="nonzero" x="0.54" y="295.11" width="190.96" height="106.71"></rect>
                        <g id="Group" opacity="0.2" stroke-width="1" fill="none" fill-rule="evenodd" transform="translate(16.000000, 322.000000)">
                            <circle id="Oval" fill="#0D355D" fill-rule="nonzero" cx="20.49" cy="20.48" r="19.88"></circle>
                        </g>
                        <g id="Group" opacity="0.2" stroke-width="1" fill="none" fill-rule="evenodd" transform="translate(80.000000, 318.000000)">
                            <rect id="Rectangle-path" fill="#0D355D" fill-rule="nonzero" x="0.61" y="0.92" width="86.62" height="5.45"></rect>
                        </g>
                        <g id="Group" opacity="0.2" stroke-width="1" fill="none" fill-rule="evenodd" transform="translate(80.000000, 332.000000)">
                            <rect id="Rectangle-path" fill="#0D355D" fill-rule="nonzero" x="0.61" y="0.81" width="44.13" height="5.45"></rect>
                        </g>
                        <g id="Group" opacity="0.2" stroke-width="1" fill="none" fill-rule="evenodd" transform="translate(80.000000, 346.000000)">
                            <rect id="Rectangle-path" fill="#0D355D" fill-rule="nonzero" x="0.61" y="0.7" width="71.37" height="5.45"></rect>
                        </g>
                        <g id="Group" opacity="0.2" stroke-width="1" fill="none" fill-rule="evenodd" transform="translate(80.000000, 360.000000)">
                            <rect id="Rectangle-path" fill="#0D355D" fill-rule="nonzero" x="0.61" y="0.59" width="86.62" height="5.45"></rect>
                        </g>
                        <g id="Group" opacity="0.2" stroke-width="1" fill="none" fill-rule="evenodd" transform="translate(143.000000, 380.000000)">
                            <rect id="Rectangle-path" fill="#6C63FF" fill-rule="nonzero" x="0.27" y="0.64" width="23.97" height="10.53"></rect>
                        </g>
                        <rect id="Rectangle-path" fill="#F6F7F9" fill-rule="nonzero" x="161.31" y="0.2" width="190.96" height="106.71"></rect>
                        <g id="Group" opacity="0.2" stroke-width="1" fill="none" fill-rule="evenodd" transform="translate(177.000000, 27.000000)">
                            <circle id="Oval" fill="#0D355D" fill-rule="nonzero" cx="20.27" cy="20.57" r="19.88"></circle>
                        </g>
                        <g id="Group" opacity="0.2" stroke-width="1" fill="none" fill-rule="evenodd" transform="translate(241.000000, 24.000000)">
                            <rect id="Rectangle-path" fill="#0D355D" fill-rule="nonzero" x="0.39" y="0.01" width="86.62" height="5.45"></rect>
                        </g>
                        <g id="Group" opacity="0.2" stroke-width="1" fill="none" fill-rule="evenodd" transform="translate(241.000000, 37.000000)">
                            <rect id="Rectangle-path" fill="#0D355D" fill-rule="nonzero" x="0.39" y="0.9" width="44.13" height="5.45"></rect>
                        </g>
                        <g id="Group" opacity="0.2" stroke-width="1" fill="none" fill-rule="evenodd" transform="translate(241.000000, 51.000000)">
                            <rect id="Rectangle-path" fill="#0D355D" fill-rule="nonzero" x="0.39" y="0.79" width="71.37" height="5.45"></rect>
                        </g>
                        <g id="Group" opacity="0.2" stroke-width="1" fill="none" fill-rule="evenodd" transform="translate(241.000000, 65.000000)">
                            <rect id="Rectangle-path" fill="#0D355D" fill-rule="nonzero" x="0.39" y="0.69" width="86.62" height="5.45"></rect>
                        </g>
                        <g id="Group" opacity="0.2" stroke-width="1" fill="none" fill-rule="evenodd" transform="translate(304.000000, 85.000000)">
                            <rect id="Rectangle-path" fill="#0D355D" fill-rule="nonzero" x="0.04" y="0.73" width="23.97" height="10.53"></rect>
                        </g>
                        <rect id="Rectangle-path" fill="#F6F7F9" fill-rule="nonzero" x="224.87" y="179.36" width="190.96" height="106.71"></rect>
                        <g id="Group" opacity="0.2" stroke-width="1" fill="none" fill-rule="evenodd" transform="translate(240.000000, 206.000000)">
                            <circle id="Oval" fill="#0D355D" fill-rule="nonzero" cx="20.82" cy="20.74" r="19.88"></circle>
                        </g>
                        <g id="Group" opacity="0.2" stroke-width="1" fill="none" fill-rule="evenodd" transform="translate(304.000000, 203.000000)">
                            <rect id="Rectangle-path" fill="#0D355D" fill-rule="nonzero" x="0.95" y="0.18" width="86.62" height="5.45"></rect>
                        </g>
                        <g id="Group" opacity="0.2" stroke-width="1" fill="none" fill-rule="evenodd" transform="translate(304.000000, 217.000000)">
                            <rect id="Rectangle-path" fill="#0D355D" fill-rule="nonzero" x="0.95" y="0.07" width="44.13" height="5.45"></rect>
                        </g>
                        <g id="Group" opacity="0.2" stroke-width="1" fill="none" fill-rule="evenodd" transform="translate(304.000000, 230.000000)">
                            <rect id="Rectangle-path" fill="#0D355D" fill-rule="nonzero" x="0.95" y="0.96" width="71.37" height="5.45"></rect>
                        </g>
                        <g id="Group" opacity="0.2" stroke-width="1" fill="none" fill-rule="evenodd" transform="translate(304.000000, 244.000000)">
                            <rect id="Rectangle-path" fill="#0D355D" fill-rule="nonzero" x="0.95" y="0.85" width="86.62" height="5.45"></rect>
                        </g>
                        <g id="Group" opacity="0.2" stroke-width="1" fill="none" fill-rule="evenodd" transform="translate(367.000000, 264.000000)">
                            <rect id="Rectangle-path" fill="#0D355D" fill-rule="nonzero" x="0.6" y="0.9" width="23.97" height="10.53"></rect>
                        </g>
                    </g>
                </g>
                <rect id="Rectangle-path" fill="url(#linearGradient-3)" fill-rule="nonzero" mask="url(#mask-2)" x="56" y="131" width="321" height="181"></rect>
                <rect id="Rectangle-path" fill="#F6F7F9" fill-rule="nonzero" mask="url(#mask-2)" x="58" y="134" width="317" height="177"></rect>
                <g id="Group" opacity="0.2" mask="url(#mask-2)" fill="#0D355D" fill-rule="nonzero">
                    <g transform="translate(84.000000, 179.000000)" id="Oval">
                        <circle cx="33.75" cy="33.51" r="32.96"></circle>
                    </g>
                </g>
                <g id="Group" opacity="0.2" mask="url(#mask-2)" fill="#0D355D" fill-rule="nonzero">
                    <g transform="translate(190.000000, 173.000000)" id="Rectangle-path">
                        <rect x="0.92" y="0.44" width="143.62" height="9.03"></rect>
                    </g>
                </g>
                <g id="Group" opacity="0.2" mask="url(#mask-2)" fill="#0D355D" fill-rule="nonzero">
                    <g transform="translate(190.000000, 196.000000)" id="Rectangle-path">
                        <rect x="0.92" y="0.48" width="73.16" height="9.03"></rect>
                    </g>
                </g>
                <g id="Group" opacity="0.2" mask="url(#mask-2)" fill="#0D355D" fill-rule="nonzero">
                    <g transform="translate(190.000000, 219.000000)" id="Rectangle-path">
                        <rect x="0.92" y="0.51" width="118.33" height="9.03"></rect>
                    </g>
                </g>
                <g id="Group" opacity="0.2" mask="url(#mask-2)" fill="#0D355D" fill-rule="nonzero">
                    <g transform="translate(190.000000, 242.000000)" id="Rectangle-path">
                        <rect x="0.92" y="0.54" width="143.62" height="9.03"></rect>
                    </g>
                </g>
                <rect id="Rectangle-path" fill="#425B9A" fill-rule="nonzero" mask="url(#mask-2)" x="295" y="275" width="40" height="17"></rect>
                <rect id="Rectangle-path" fill="url(#linearGradient-4)" fill-rule="nonzero" mask="url(#mask-2)" x="281" y="376" width="305" height="171"></rect>
                <rect id="Rectangle-path" fill="#F6F7F9" fill-rule="nonzero" mask="url(#mask-2)" x="283" y="378" width="301" height="168"></rect>
                <g id="Group" opacity="0.2" mask="url(#mask-2)" fill="#0D355D" fill-rule="nonzero">
                    <g transform="translate(308.000000, 421.000000)" id="Oval">
                        <circle cx="31.94" cy="31.72" r="31.36"></circle>
                    </g>
                </g>
                <g id="Group" opacity="0.2" mask="url(#mask-2)" fill="#0D355D" fill-rule="nonzero">
                    <g transform="translate(409.000000, 415.000000)" id="Rectangle-path">
                        <rect x="0.54" y="0.55" width="136.63" height="8.59"></rect>
                    </g>
                </g>
                <g id="Group" opacity="0.2" mask="url(#mask-2)" fill="#0D355D" fill-rule="nonzero">
                    <g transform="translate(409.000000, 437.000000)" id="Rectangle-path">
                        <rect x="0.54" y="0.47" width="69.6" height="8.59"></rect>
                    </g>
                </g>
                <g id="Group" opacity="0.2" mask="url(#mask-2)" fill="#0D355D" fill-rule="nonzero">
                    <g transform="translate(409.000000, 459.000000)" id="Rectangle-path">
                        <rect x="0.54" y="0.38" width="112.57" height="8.59"></rect>
                    </g>
                </g>
                <g id="Group" opacity="0.2" mask="url(#mask-2)" fill="#0D355D" fill-rule="nonzero">
                    <g transform="translate(409.000000, 481.000000)" id="Rectangle-path">
                        <rect x="0.54" y="0.29" width="136.63" height="8.59"></rect>
                    </g>
                </g>
                <g id="Group" opacity="0.5" mask="url(#mask-2)" fill="#0D355D" fill-rule="nonzero">
                    <g transform="translate(508.000000, 512.000000)" id="Rectangle-path">
                        <rect x="0.36" y="0.91" width="37.81" height="16.61"></rect>
                    </g>
                </g>
            </g>
        </g>
    </g>
</svg>
